<?xml version="1.0" encoding="UTF-8"?>
<svg xmlns="http://www.w3.org/2000/svg" id="a" width="865.76" height="682.89" viewBox="0 0 865.76 682.89">
  <g>
    <g>
      <g>
        <g>
          <path d="M729.68,605.36l1.2,14.19s-1.02,12.81,3.83,16.6c.92,.72,3.83,.63,4.09-.51,.15-.68,1.02-1.24,1.02-2.55v-6.64c0-2.17-.16-5.65,1.71-6.75,2.99-1.76,8.26-3.41,15.91-.66l1.53-16.34-29.3,2.66h0Z" fill="#bd4d2d"></path>
          <path d="M738.03,248.73c7.7,51.03,14.23,105.61,18.9,163.45,5.14,63.77,7.41,124.05,7.66,180.3-15.49,1.19-30.99,2.38-46.48,3.58l-29.05-196.36c-.05-.35-.56-.31-.56,.04l.5,195.81-32.18,.51-34.73-312.59,6.64-48.01,109.31,5.62v7.66h-.01Z" fill="#274546"></path>
          <path d="M689.06,400.2c-.22,0-.42-.14-.48-.36-7.01-24.96-35.02-123.41-35.3-124.4-.08-.27,.08-.54,.34-.62,.27-.08,.54,.08,.62,.34,.28,.99,28.3,99.44,35.31,124.41,.07,.27-.08,.54-.35,.62-.04,.01-.09,.02-.13,.02h-.01Z" fill="#2e1407"></path>
          <path d="M668.22,326.6c-.26,0-.48-.2-.5-.46l-3.74-46.21c-.02-.28,.18-.52,.46-.54,.28-.02,.52,.18,.54,.46l3.74,46.21c.02,.28-.18,.52-.46,.54h-.04Z" fill="#2e1407"></path>
          <path d="M737.01,308.48c-.08,0-.17-.02-.25-.06-18.86-10.7-25.71-34.28-25.77-34.52-.08-.27,.08-.54,.35-.62s.54,.08,.62,.34c.07,.23,6.81,23.43,25.3,33.92,.24,.14,.32,.44,.19,.68-.09,.16-.26,.25-.43,.25h0Z" fill="#2e1407"></path>
          <polygon points="687.46 602.18 694.62 620.57 662.44 639.98 667.03 601.16 687.46 602.18" fill="#bd4d2d"></polygon>
          <path d="M699.11,96.06s.05-.08,.01-.11c-.66-.51-1.65-2.23-2.46-3.51-.51-1.02-1.31-3.03-1.28-3.83,8.94-.77,10.47,12,10.47,12l39.33,19.41c13.28,7.15,19.41,28.09,19.41,28.09l10.73,39.33c6.64,8.68,4.09,11.24,4.09,11.24,10.22,17.37,.51,25.54,.51,25.54,0,7.15-3.58,12.26-3.58,12.26-10.22,15.83-25.03,8.68-25.03,8.68l-30.65,4.09-81.21-3.58c-10.22-1.02-12.77-8.68-12.77-8.68-3.06-5.62,.51-9.7,.51-9.7l1.53-5.62-8.17-11.75-7.66,11.75c4.6,14.3-15.32,19.92-15.32,19.92-20.43,3.58-24.52-9.7-24.52-9.7-1.53-5.11-6.13-11.75-6.13-11.75-4.6-7.66,1.02-14.3,1.02-14.3l27.07-41.88,12.26-28.09c7.66-14.3,22.98-19.92,22.98-19.92l34.73-17.37,25.54,1.53,8.58-4.04h.01Z" fill="black"></path>
          <path d="M629.75,184.87h-.07c-.27-.04-.47-.29-.43-.56,1.5-10.97-4.5-25.13-4.56-25.27-.11-.25,0-.55,.26-.66s.55,0,.66,.26c.25,.59,6.17,14.56,4.63,25.8-.03,.25-.25,.43-.49,.43h0Z" fill="#2e1407"></path>
          <path d="M621.58,153.71c-.15,0-.3-.07-.4-.19-8.69-11.25-8.28-24.71-8.28-24.84,.01-.28,.27-.51,.52-.48,.28,0,.49,.24,.48,.52,0,.13-.4,13.24,8.07,24.19,.17,.22,.13,.53-.09,.7-.09,.07-.2,.1-.31,.1h.01Z" fill="#2e1407"></path>
          <path d="M664.6,95.95s1.92,29.17,12.14,50.11l6.27-20.59c.56-1.84,1.41-3.59,2.51-5.17,2.91-4.19,9.15-13.68,13.7-24.29,0,0-6.26-4.15-4.66-23.27l3.64-7.63-13.79-7.92-19.8,38.77h-.01Z" fill="#bd4d2d"></path>
          <path d="M656.82,140.43h-.04c-.19-.02-.36-.14-.42-.32-5.11-13.8,1.46-33.34,1.53-33.54,.09-.26,.37-.4,.63-.31,.26,.09,.4,.37,.31,.63-.06,.19-6.22,18.51-1.87,31.91,1.29-1.87,4.8-6.3,10.86-9.53,.24-.13,.55-.04,.68,.21,.13,.24,.04,.55-.21,.68-7.44,3.97-11.01,9.97-11.04,10.03-.09,.15-.25,.25-.43,.25h0Z" fill="#2e1407"></path>
          <path d="M700.74,138.39c-.16,0-.31-.08-.4-.21-3.96-5.44-15.51-10.51-15.63-10.56-.25-.11-.37-.4-.26-.66,.11-.25,.41-.37,.66-.26,.46,.2,10.94,4.8,15.46,10.15,1.14-3.5,5.22-17.25,4.78-34.2,0-.28,.21-.51,.49-.51s.51,.21,.51,.49c.51,19.79-5.08,35.27-5.14,35.43-.06,.17-.22,.3-.4,.32h-.07Z" fill="#2e1407"></path>
          <path d="M695.38,88.6s6.2,.64,3.74,7.34c0,0-2.72-1.21-3.74-7.34Z" fill="#2e1407"></path>
          <path d="M733.82,222.15c-.18,0-.36-.1-.44-.27-.07-.13-1.64-3.23-.49-6.77,.77-2.36,2.56-4.33,5.33-5.85-1.17-1.27-3.88-4.86-2.8-9.84-1.9-1.16-10.87-7.63-13.21-26.75-.03-.27,.16-.52,.44-.56,.27-.04,.52,.16,.56,.44,2.49,20.39,12.91,26.12,13.02,26.18,.2,.11,.31,.34,.25,.56-1.44,5.75,2.87,9.68,2.91,9.72,.12,.11,.18,.27,.16,.44-.02,.16-.12,.31-.27,.38-2.86,1.43-4.69,3.3-5.43,5.57-1.03,3.13,.41,5.98,.42,6.01,.13,.25,.03,.55-.22,.67-.07,.04-.15,.06-.23,.06h0Z" fill="#2e1407"></path>
          <path d="M727.82,172.1h-.03c-.28-.02-.49-.25-.47-.53,2.55-43.85,24-46.67,24.91-46.77,.27-.03,.52,.17,.55,.44,.03,.27-.17,.52-.44,.55-.21,.02-21.52,2.9-24.02,45.83-.02,.27-.24,.47-.5,.47h0Z" fill="#2e1407"></path>
          <path d="M779.91,224.71c-.22,0-.43-.15-.49-.38-1.88-7.52-5.66-12.72-11.23-15.46-11.42-5.63-26.76,.92-26.91,.99-.25,.11-.55,0-.66-.26-.11-.25,0-.55,.26-.66,.64-.28,15.91-6.8,27.74-.97,5.85,2.88,9.8,8.3,11.76,16.12,.07,.27-.1,.54-.36,.61-.04,0-.08,.02-.12,.02h0Z" fill="#2e1407"></path>
          <path d="M768.68,231.87s1.02,6.49-9.45,7.33l9.45-7.33Z" fill="#2e1407"></path>
          <path d="M745.69,205.81c-.15,0-.29-.06-.39-.19-.17-.22-.14-.53,.08-.7,.15-.12,15.26-11.86,30.2-2.59,.23,.15,.31,.45,.16,.69s-.45,.31-.69,.16c-14.33-8.9-28.91,2.41-29.05,2.52-.09,.07-.2,.11-.31,.11h0Z" fill="#2e1407"></path>
          <path d="M745.18,201.73c-.17,0-.34-.09-.43-.24-.14-.24-.06-.54,.17-.69,.58-.34,14.19-8.34,22.79-1.53,.22,.17,.25,.49,.08,.7-.17,.22-.49,.25-.7,.08-8.06-6.38-21.52,1.53-21.65,1.61-.08,.05-.17,.07-.26,.07h0Z" fill="#2e1407"></path>
          <path d="M673.67,204.79h-.03c-.28,0-.49-.25-.47-.53l3.06-58.23c.01-.28,.26-.49,.53-.47,.28,0,.49,.25,.47,.53l-3.06,58.23c-.01,.27-.23,.47-.5,.47Z" fill="#2e1407"></path>
          <path d="M612.89,222.16c-.28,0-.5-.22-.5-.5,0-3.51-.5-9.09-.51-9.15-.49-11.28-8.04-14.27-8.36-14.39-.26-.1-.39-.39-.29-.64,.1-.26,.38-.39,.64-.29,.08,.03,8.49,3.32,9.01,15.26,0,.03,.51,5.66,.51,9.22,0,.28-.22,.5-.5,.5h0Z" fill="#2e1407"></path>
          <path d="M601.14,137.89l4.35,77.28c.18,3.28-.73,6.53-2.59,9.23-2.44,3.54-6.39,8.14-11.65,10.51-3.57,1.61-7.73,1.04-10.91-1.23-5.37-3.84-13.59-11.52-12.9-22.25l12.77-79.17s-7.66-15.32-3.58-19.92l4.6-6.64s-1.63-15.46-8.15-25.32c-1.24-1.87-.63-4.39,1.31-5.5h0c1.84-1.05,4.19-.44,5.26,1.39,2.69,4.58,7.31,13.15,8.73,20.24,0,0,2.04-2.55,8.17,.51l6.13,4.09s4.6-3.06,6.64,2.55l2.04,4.6s2.04,3.58-1.02,9.7l-3.58,11.75s-1.02,5.11-5.62,8.17h0Z" fill="#bd4d2d"></path>
          <path d="M600.12,135.33c-.17,0-.34-.09-.43-.25-.04-.07-4.08-7.1-8.04-10.06-.03-.02-.06-.05-.09-.08-.22-.27-2.11-2.65-1.42-4.4,.33-.83,1.14-1.33,2.42-1.5,1.32-.17,2.51-.68,3.44-1.48l.8-.69c.66-.57,1.53-.76,2.34-.52,1.48,.44,3.56,.24,5.12-3.18,.07-.15,.2-.25,.36-.28,.02,0,2.01-.41,2.55-2.09,.46-1.44,0-4.24-4.86-9.33-.19-.2-.18-.52,.02-.71s.52-.18,.71,.02c4.17,4.38,5.88,7.86,5.08,10.34-.6,1.85-2.38,2.51-3.05,2.69-2.03,4.22-5.01,3.87-6.21,3.51-.48-.14-1-.02-1.41,.32l-.8,.69c-1.07,.92-2.44,1.51-3.96,1.71-.89,.12-1.44,.41-1.62,.88-.4,1,.72,2.71,1.22,3.35,4.1,3.11,8.09,10.03,8.26,10.33,.14,.24,.05,.54-.19,.68-.08,.04-.16,.07-.25,.07v-.02Z" fill="#2e1407"></path>
          <path d="M581.22,106.21c-.07,0-.14-.01-.21-.05-.25-.12-.36-.41-.24-.66,.13-.28,3.18-6.81,7.34-9.41,.23-.15,.54-.08,.69,.16,.15,.23,.08,.54-.16,.69-3.91,2.45-6.93,8.91-6.96,8.98-.08,.18-.27,.29-.45,.29h-.01Z" fill="#2e1407"></path>
          <rect x="715.05" y="588.9" width="53.12" height="16.86" fill="black"></rect>
          <rect x="654.26" y="587.37" width="37.8" height="16.86" fill="black"></rect>
          <path d="M784,655.31l-.09-1.1c-.27-3.17-2-6.03-4.69-7.72l-7.86-4.94c-1.07-.67-1.92-1.65-2.44-2.8-2.13-4.75-8.16-17.62-11.48-19.7,0,0-8.84-3.8-15.91,.65,0,0-3.5,2.07-2.99,5.3,0,0,.52,6.05-.26,9.24,0,0-.77,2.2-2.55,.91,0,0-4.92-2.6-4.89-17.27,0,0-5.07-1.38-5.07,8.32l-1.02,16.34v13.79l5.62,3.58,3.58-1.02s2.55,5.62,15.83,6.64l28.6-.51s7.15,0,5.62-9.7h0Z" fill="black"></path>
          <path d="M699.72,643.56c0-12.26-2.55-23.5-2.55-23.5-1.49-5.58-5.41-2.5-7.43-.4-1.24,1.28-2.58,2.45-4.03,3.48-14,9.99-24.8,12.25-24.8,12.25l-4.09,7.66,5.11,5.89v10.45h34.97c1.82,0,3.29-1.51,3.23-3.33l-.4-12.5h0Z" fill="black"></path>
          <polygon points="463.75 309 471.41 657.86 615.45 658.37 617.49 303.89 463.75 309" fill="#f99184"></polygon>
          <polygon points="441.27 301.85 626.68 297.25 692.57 351.39 673.16 351.91 673.16 344.24 617.49 303.89 463.75 309 464 321.48 441.27 301.85" fill="#f99184"></polygon>
          <g opacity=".2">
            <polygon points="441.27 301.85 626.68 297.25 692.57 351.39 673.16 351.91 673.16 344.24 617.49 303.89 463.75 309 464 321.48 441.27 301.85"></polygon>
          </g>
          <polygon points="630.77 269.16 695.13 329.43 692.57 351.39 626.68 297.25 630.77 269.16" fill="#f99184"></polygon>
          <g opacity=".2">
            <polygon points="630.77 269.16 695.13 329.43 692.57 351.39 626.68 297.25 630.77 269.16" fill="#fff"></polygon>
          </g>
          <polygon points="673.16 344.24 667.54 657.86 615.45 658.37 617.49 303.89 673.16 344.24" fill="#f99184"></polygon>
          <g opacity=".2">
            <polygon points="673.16 344.24 667.54 657.86 615.45 658.37 617.49 303.89 673.16 344.24" fill="#fff"></polygon>
          </g>
          <rect x="460.68" y="657.86" width="218.1" height="6.13" rx="3.06" ry="3.06" fill="#f99184"></rect>
          <path d="M640.98,252.3s-5.62-15.83-14.3-27.58c0,0-20.43-30.65-14.3-38.31,0,0,3.06-6.13,10.73-5.62l58.23-4.09s5.62-.51,6.13,3.06c0,0,6.13-3.58,7.15,5.11l6.64,51.59,2.55,18.39s-47.5-5.11-62.83-2.55Z" fill="#fff"></path>
          <path d="M691.04,183.86l-12.26,.51,12.77,42.39h-2.04l-12.03-34.18c-.83-2.36-1.21-4.87-1.02-7.36,.28-3.53,1.7-7.65,6.67-8.33,0,0,3.32-.7,4.34,2.87,0,0,6.13-3.58,7.15,5.11l5.62,42.39-2.59-.17-6.6-43.24h-.01Z" fill="#f1f2f2"></path>
          <path d="M618.56,270.42c-.08,0-.15-.02-.23-.05-.25-.12-.34-.43-.22-.67l2.22-4.35c3.13-6.14,1.24-13.69-4.38-17.55l-.27-.18-31.18-23.51c-.3-.22-7.5-5.63-8.53-12.65-.44-3.01,.33-5.86,2.3-8.48,.17-.22,.48-.26,.7-.1,.22,.17,.27,.48,.1,.7-1.8,2.4-2.51,5-2.11,7.73,.96,6.62,8.06,11.94,8.14,12l31.41,23.67c6.04,4.15,8.06,12.24,4.71,18.83l-2.22,4.35c-.09,.17-.26,.27-.45,.27h.01Z" fill="#2e1407"></path>
          <rect x="573.98" y="194.12" width="15.58" height="11.24" rx="5.42" ry="5.42" transform="translate(72.98 545.4) rotate(-53.14)" fill="#2e1407"></rect>
          <path d="M664.6,95.95s.9,9.76,1.41,11.8c0,0,13.06-4.6,17.77-15.58,0,0-7.04,6.38-19.18,3.78Z" fill="#2e1407"></path>
          <path d="M668.72,22.44h0c12.12-.4,22.27,9.11,22.67,21.23l.99,30.28c.4,12.12-9.11,22.27-21.23,22.67h0c-12.12,.4-22.27-9.11-22.67-21.23l-.99-30.28c-.4-12.12,9.11-22.27,21.23-22.67Z" fill="#bd4d2d"></path>
          <path d="M647.49,45.17s-7.53-5.35-3.44-13.52c0,0-3.06-8.68,10.22-13.28,0,0,8.17-3.06,22.47,1.53,0,0,9.19-9.7,25.03,16.86,0,0,4.7,5.23-.71,19.73l-9.52,5.57s-8.83-6.25-7.26-18c.58-4.31-2.45-8.28-6.75-8.89-.08,0-.16-.02-.24-.03-3.34-.43-6.73,.12-9.83,1.42l-6.55,2.76s-13.04-5.14-13.42,5.86h0Z" fill="#2e1407"></path>
          <ellipse cx="698.19" cy="65.11" rx="7.15" ry="8.94" fill="#bd4d2d"></ellipse>
          <path d="M736.5,217.57s-6.64,11.75-16.86,16.34c0,0-14.3-5.62-19.92-11.75l.51,5.11s-23.5-2.04-27.58,2.04c0,0-2.04,4.6,4.09,4.6l9.05-.45c.77-.04,1.54,.06,2.28,.28l9.83,2.99c.44,.13,.68,.61,.54,1.04h0c-.14,.41-.57,.65-.99,.53l-3.75-1.02c-.74-.2-1.52-.28-2.29-.21l-15.38,1.21c-1.58,.12-2.74,1.52-2.59,3.09h0c.13,1.31,1.15,2.36,2.46,2.52l5.94,.74s-4.09,4.6,3.06,7.15c0,0-3.06,4.09,2.55,6.64l14.82,4.53c2.35,.72,4.86,.7,7.2-.05,9.03-2.9,32.44-10.82,41.83-17.76l17.37-13.28s2.04-13.79-16.34-16.34c0,0-8.68-1.53-15.83,2.04h0Z" fill="#bd4d2d"></path>
          <path d="M707.38,261.78c-.1,0-.2-.06-.25-.15-1.06-2.12,.43-7.14,.49-7.36,.27-1.06,.38-2.2,.33-3.38-.07-1.59-.55-3.25-1.49-5.09-1.51-2.97,.09-6.25,.16-6.39,.98-2.95,.99-6.48,.99-6.52,0-.15,.12-.28,.28-.28h0c.15,0,.28,.12,.28,.28s-.01,3.66-1.04,6.73c-.03,.07-1.56,3.21-.17,5.92,.97,1.91,1.48,3.65,1.55,5.32,.05,1.23-.07,2.42-.35,3.55-.02,.06-1.49,5.04-.53,6.96,.07,.14,.01,.31-.12,.37-.04,.02-.08,.03-.12,.03h-.01Z" fill="#2e1407"></path>
          <path d="M697.68,245.43h0l-15.83-.51c-.15,0-.28-.13-.27-.29,0-.15,.13-.27,.28-.27h0l15.83,.51c.15,0,.28,.13,.27,.29,0,.15-.13,.27-.28,.27Z" fill="#2e1407"></path>
          <path d="M698.7,252.07h-13.79c-.15,0-.28-.12-.28-.28s.12-.28,.28-.28h13.79c.15,0,.28,.12,.28,.28s-.12,.28-.28,.28Z" fill="#2e1407"></path>
          <polygon points="441.27 301.85 441.27 274.27 630.77 269.16 626.68 297.25 441.27 301.85" fill="#f99184"></polygon>
        </g>
        <g>
          <g>
            <ellipse cx="498.92" cy="491.62" rx="45.55" ry="28.22" transform="translate(-185.9 638.71) rotate(-56.7)" fill="#2bb673"></ellipse>
            <ellipse cx="541.9" cy="549.58" rx="19.85" ry="32.94" transform="translate(-105.35 970.02) rotate(-78.41)" fill="#2bb673"></ellipse>
            <ellipse cx="440.45" cy="537.44" rx="17.38" ry="27.03" transform="translate(-221.55 326.24) rotate(-32.97)" fill="#2bb673"></ellipse>
            <path d="M476.33,598.61c-.25,0-.47-.19-.5-.45-6-59.81,7.22-95.97,19.37-115.77,13.19-21.51,28.05-28.94,28.2-29.01,.25-.12,.55-.02,.67,.23s.02,.55-.23,.67c-.15,.07-14.79,7.41-27.83,28.7-12.05,19.67-25.15,55.6-19.19,115.08,.03,.27-.17,.52-.45,.55h-.04Z" fill="#2e1407"></path>
            <path d="M485.81,502.75c-.21,0-.4-.13-.47-.33l-9.48-27.04c-.09-.26,.05-.55,.31-.64,.26-.09,.55,.05,.64,.31l9.48,27.04c.09,.26-.05,.55-.31,.64-.05,.02-.11,.03-.17,.03h0Z" fill="#2e1407"></path>
            <path d="M495.84,483.34c-.25,0-.47-.19-.5-.45-.03-.27,.18-.52,.45-.54l36.17-3.31c.27-.02,.52,.18,.54,.45,.03,.27-.18,.52-.45,.54l-36.17,3.31h-.04Z" fill="#2e1407"></path>
            <path d="M493.28,487.71c-.25,0-.47-.19-.5-.45-.03-.27,.18-.52,.45-.54l37.97-3.61c.26-.03,.52,.17,.54,.45,.03,.27-.18,.52-.45,.54l-37.97,3.61h-.04Z" fill="#2e1407"></path>
            <path d="M464.74,598.96c-.27,0-.49-.21-.5-.48,0-.12-.37-12.65,5.66-26.03,5.58-12.37,17.91-28.03,44.97-32.42,.35-.07,36.83-7.18,57.15,20.5,.16,.22,.12,.54-.11,.7-.22,.16-.53,.12-.7-.11-19.94-27.15-55.8-20.18-56.16-20.11-26.63,4.32-38.74,19.68-44.22,31.81-5.95,13.17-5.59,25.5-5.59,25.62,0,.28-.21,.51-.48,.52h-.02Z" fill="#2e1407"></path>
            <path d="M539.62,568.33c-.23,0-.43-.15-.49-.38l-6.77-27.6c-.07-.27,.1-.54,.37-.6s.54,.1,.6,.37l6.77,27.6c.07,.27-.1,.54-.37,.6-.04,0-.08,.01-.12,.01h.01Z" fill="#2e1407"></path>
            <path d="M542.26,541.64c-.17,0-.33-.08-.42-.24-.15-.23-.07-.54,.16-.69l12.91-7.98c.23-.15,.54-.07,.69,.16s.07,.54-.16,.69l-12.91,7.98c-.08,.05-.17,.07-.26,.07h-.01Z" fill="#2e1407"></path>
            <path d="M546.47,542.98c-.17,0-.34-.09-.43-.24-.14-.24-.06-.54,.17-.69l12.14-7.22c.24-.14,.54-.06,.69,.17,.14,.24,.06,.54-.17,.69l-12.14,7.22c-.08,.05-.17,.07-.26,.07Z" fill="#2e1407"></path>
            <path d="M458.42,598.96h-.02c-.28-.01-.49-.24-.48-.52,2.76-66.6-31.66-82.93-32.01-83.09-.25-.11-.36-.41-.25-.66s.41-.36,.66-.25c.36,.16,9,4.15,17.41,16.55,7.73,11.4,16.64,32.35,15.18,67.5-.01,.27-.23,.48-.5,.48h.01Z" fill="#2e1407"></path>
            <path d="M444.77,534.35h-.02l-24.15-1.02c-.28-.01-.49-.24-.48-.52,.01-.28,.2-.5,.52-.48l24.15,1.02c.28,.01,.49,.24,.48,.52-.01,.27-.23,.48-.5,.48Z" fill="#2e1407"></path>
            <path d="M447.36,539.31h-.02l-24.74-.98c-.28-.01-.49-.24-.48-.52s.24-.5,.52-.48l24.74,.98c.28,.01,.49,.24,.48,.52-.01,.27-.23,.48-.5,.48Z" fill="#2e1407"></path>
            <path d="M450.62,545.33s-.11,0-.16-.03c-.26-.09-.4-.37-.32-.63l5-15c.09-.26,.37-.4,.63-.32,.26,.09,.4,.37,.32,.63l-5,15c-.07,.21-.27,.34-.47,.34h0Z" fill="#2e1407"></path>
          </g>
          <rect x="430.09" y="597.69" width="64.36" height="65.89" rx="9.82" ry="9.82" fill="#2e1407"></rect>
        </g>
      </g>
      <g>
        <rect x="107.5" y="338.38" width="233.96" height="327.14" fill="#274546"></rect>
        <rect x="81.55" y="338.38" width="26.29" height="327.14" fill="#274546"></rect>
        <g opacity=".2">
          <rect x="81.55" y="338.38" width="26.29" height="327.14"></rect>
        </g>
        <g opacity=".2">
          <path d="M125.81,554.7c0,54.59,44.25,98.84,98.84,98.84s98.84-44.25,98.84-98.84-44.25-98.84-98.84-98.84-98.84,44.25-98.84,98.84h0Zm11.32,0c0-48.34,39.19-87.53,87.53-87.53s87.53,39.19,87.53,87.53-39.19,87.53-87.53,87.53-87.53-39.19-87.53-87.53h0Z"></path>
        </g>
        <g opacity=".2">
          <path d="M224.65,618.43c-35.14,0-63.73-28.59-63.73-63.73s28.59-63.73,63.73-63.73,63.73,28.59,63.73,63.73-28.59,63.73-63.73,63.73h0Zm0-126.46c-34.59,0-62.73,28.14-62.73,62.73s28.14,62.73,62.73,62.73,62.73-28.14,62.73-62.73-28.14-62.73-62.73-62.73h0Z"></path>
        </g>
        <g opacity=".2">
          <path d="M224.65,592.47c-20.83,0-37.77-16.95-37.77-37.77s16.95-37.77,37.77-37.77,37.77,16.95,37.77,37.77-16.95,37.77-37.77,37.77h0Zm0-74.55c-20.28,0-36.77,16.5-36.77,36.77s16.5,36.77,36.77,36.77,36.77-16.5,36.77-36.77-16.5-36.77-36.77-36.77h0Z"></path>
        </g>
        <g opacity=".2">
          <path d="M178.72,399.95c0,25.55,20.71,46.26,46.26,46.26s46.26-20.71,46.26-46.26-20.71-46.26-46.26-46.26-46.26,20.71-46.26,46.26Zm5.3,0c0-22.62,18.34-40.96,40.96-40.96s40.96,18.34,40.96,40.96-18.34,40.96-40.96,40.96-40.96-18.34-40.96-40.96h0Z"></path>
        </g>
        <g opacity=".2">
          <path d="M224.98,430.04c-16.59,0-30.09-13.5-30.09-30.09s13.5-30.09,30.09-30.09,30.09,13.5,30.09,30.09-13.5,30.09-30.09,30.09Zm0-59.19c-16.04,0-29.09,13.05-29.09,29.09s13.05,29.09,29.09,29.09,29.09-13.05,29.09-29.09-13.05-29.09-29.09-29.09Z"></path>
        </g>
        <g opacity=".2">
          <path d="M224.98,417.89c-9.89,0-17.94-8.05-17.94-17.94s8.05-17.94,17.94-17.94,17.94,8.05,17.94,17.94-8.05,17.94-17.94,17.94Zm0-34.89c-9.34,0-16.94,7.6-16.94,16.94s7.6,16.94,16.94,16.94,16.94-7.6,16.94-16.94-7.6-16.94-16.94-16.94Z"></path>
        </g>
        <g opacity=".2">
          <circle cx="125.47" cy="355.02" r="6.99" transform="translate(-237.55 455.01) rotate(-85.93)"></circle>
          <circle cx="323.82" cy="355.02" r="6.99"></circle>
        </g>
        <g opacity=".2">
          <circle cx="125.47" cy="649.21" r="6.99" transform="translate(-531 728.34) rotate(-85.93)"></circle>
          <circle cx="323.82" cy="649.21" r="6.99"></circle>
        </g>
      </g>
    </g>
    <ellipse cx="655.62" cy="59.33" rx="2" ry="3.5" fill="#2e1407"></ellipse>
    <ellipse cx="674.12" cy="58.83" rx="2" ry="3.5" fill="#2e1407"></ellipse>
    <path d="M667.12,73.83h-5c-.15,0-.29-.06-.38-.18-.09-.11-.14-.26-.11-.41l2-12c.05-.27,.3-.46,.58-.41,.27,.05,.46,.3,.41,.58l-1.9,11.42h4.41c.28,0,.5,.22,.5,.5s-.22,.5-.5,.5h0Z" fill="#2e1407"></path>
    <path d="M666.28,83.02c-.28,0-.56-.01-.85-.04-4.41-.39-7.09-3.7-7.2-3.84-.17-.22-.14-.53,.08-.7,.21-.17,.53-.14,.7,.08,.03,.03,2.54,3.12,6.52,3.47,2.81,.24,5.67-.91,8.54-3.42,.21-.18,.52-.16,.71,.05,.18,.21,.16,.52-.05,.71-2.8,2.46-5.63,3.7-8.45,3.7h0Z" fill="#2e1407"></path>
    <path d="M698.62,68.33c-.28,0-.5-.22-.5-.5v-6c0-.28,.22-.5,.5-.5s.5,.22,.5,.5v6c0,.28-.22,.5-.5,.5Z" fill="#2e1407"></path>
  </g>
  <path d="M652.62,54.33c-.18,0-.36-.1-.45-.28-.12-.25-.02-.55,.22-.67,.18-.09,4.35-2.14,6.58,.09,.2,.2,.2,.51,0,.71s-.51,.2-.71,0c-1.72-1.72-5.39,.08-5.42,.09-.07,.04-.15,.05-.22,.05h0Z" fill="#2e1407"></path>
  <path d="M670.62,53.33c-.18,0-.36-.1-.45-.28-.12-.25-.02-.55,.22-.67,.18-.09,4.35-2.14,6.58,.09,.2,.2,.2,.51,0,.71s-.51,.2-.71,0c-1.72-1.72-5.39,.08-5.42,.09-.07,.04-.15,.05-.22,.05h0Z" fill="#2e1407"></path>
</svg>
