<?xml version="1.0" encoding="UTF-8"?>
<svg xmlns="http://www.w3.org/2000/svg" id="a" width="865.76" height="682.89" viewBox="0 0 865.76 682.89">
  <path d="M825.88,499.75H39.88c-.3,0-.54-.24-.54-.54s.24-.54,.54-.54H825.88c.3,0,.54,.24,.54,.54s-.24,.54-.54,.54Z" fill="#002346"></path>
  <path d="M686.6,265.96H356.24v-7.59h314.77l1.27,.78s5.6,2.42,14.32,6.81Z" fill="#fff"></path>
  <g>
    <rect x="368.68" y="477.97" width="91.46" height="25.47" fill="#fff"></rect>
    <path d="M460.64,503.94h-92.46v-26.46h92.46v26.46Zm-91.46-1h90.46v-24.46h-90.46v24.46Z" fill="#002346"></path>
  </g>
  <g>
    <polygon points="368.68 503.45 396.47 530.38 494.91 530.38 460.14 503.45 368.68 503.45" fill="#fff"></polygon>
    <path d="M496.38,530.88h-100.11l-.15-.14-28.67-27.79h92.87l.14,.1,35.93,27.83Zm-99.7-1h96.78l-33.48-25.93h-90.05l26.75,25.93Z" fill="#002346"></path>
  </g>
  <g>
    <rect x="168.4" y="160.76" width="478.14" height="321.85" rx="25.95" ry="25.95" fill="#f7f5ed"></rect>
    <path d="M620.59,483.16H194.35c-14.61,0-26.5-11.89-26.5-26.5V186.72c0-14.61,11.89-26.5,26.5-26.5h426.24c14.61,0,26.5,11.89,26.5,26.5V456.66c0,14.61-11.89,26.5-26.5,26.5ZM194.35,161.31c-14.01,0-25.41,11.4-25.41,25.41V456.66c0,14.01,11.4,25.41,25.41,25.41h426.24c14.01,0,25.41-11.4,25.41-25.41V186.72c0-14.01-11.4-25.41-25.41-25.41H194.35Z" fill="#002346"></path>
  </g>
  <g>
    <rect x="183.44" y="174.66" width="445.73" height="269.75" rx="14.81" ry="14.81" fill="#fff"></rect>
    <path d="M614.36,444.91H198.26c-8.45,0-15.32-6.87-15.32-15.31V189.47c0-8.44,6.87-15.31,15.32-15.31h416.1c8.44,0,15.31,6.87,15.31,15.31v240.12c0,8.44-6.87,15.31-15.31,15.31ZM198.26,175.16c-7.89,0-14.32,6.42-14.32,14.31v240.12c0,7.89,6.42,14.31,14.32,14.31h416.1c7.89,0,14.31-6.42,14.31-14.31V189.47c0-7.89-6.42-14.31-14.31-14.31H198.26Z" fill="#002346"></path>
  </g>
  <g>
    <circle cx="424.26" cy="462.93" r="8.1" fill="#fff"></circle>
    <path d="M424.26,471.53c-4.74,0-8.6-3.86-8.6-8.6s3.86-8.6,8.6-8.6,8.6,3.86,8.6,8.6-3.86,8.6-8.6,8.6Zm0-16.2c-4.19,0-7.6,3.41-7.6,7.6s3.41,7.6,7.6,7.6,7.6-3.41,7.6-7.6-3.41-7.6-7.6-7.6Z" fill="#002346"></path>
  </g>
  <g>
    <circle cx="457.83" cy="462.93" r="5.79" fill="#fff"></circle>
    <path d="M457.83,469.22c-3.47,0-6.29-2.82-6.29-6.29s2.82-6.29,6.29-6.29,6.29,2.82,6.29,6.29-2.82,6.29-6.29,6.29Zm0-11.58c-2.92,0-5.29,2.37-5.29,5.29s2.37,5.29,5.29,5.29,5.29-2.37,5.29-5.29-2.37-5.29-5.29-5.29Z" fill="#002346"></path>
  </g>
  <g>
    <circle cx="390.68" cy="462.93" r="5.79" fill="#fff"></circle>
    <path d="M390.68,469.22c-3.47,0-6.29-2.82-6.29-6.29s2.82-6.29,6.29-6.29,6.29,2.82,6.29,6.29-2.82,6.29-6.29,6.29Zm0-11.58c-2.92,0-5.29,2.37-5.29,5.29s2.37,5.29,5.29,5.29,5.29-2.37,5.29-5.29-2.37-5.29-5.29-5.29Z" fill="#002346"></path>
  </g>
  <g>
    <path d="M316.76,277.33s-19.34,12.18-32.59,14.88c-2.92,.63-5.17,2.94-5.74,5.87-5.13,25.79-24.74,136.31,16.16,139.38l27.79-4.63,2.9,11.58h140.58v-134.87s-3.38-29.52-45.06-43.38l-104.03,11.18Z" fill="#1330be"></path>
    <path d="M465.85,444.95h-140.58c-.25,0-.47-.17-.53-.41l-2.77-11.1-27.29,4.55s-.09,0-.13,0c-6.15-.46-11.29-3.35-15.26-8.58-20.25-26.65-6.18-107.34-1.39-131.44,.6-3.14,3.02-5.62,6.15-6.29,13.01-2.65,32.22-14.69,32.42-14.81,.07-.04,.15-.07,.23-.08l104.03-11.18c.07,0,.15,0,.23,.02,41.53,13.81,45.4,43.54,45.43,43.83v134.94c0,.3-.24,.54-.54,.54Zm-140.16-1.08h139.61v-134.33c-.03-.23-3.85-29.23-44.58-42.83l-103.79,11.16c-1.58,.98-19.98,12.3-32.66,14.88-2.7,.58-4.79,2.72-5.31,5.44-4.77,23.99-18.79,104.29,1.19,130.57,3.77,4.96,8.62,7.7,14.42,8.15l27.72-4.62c.28-.05,.55,.13,.62,.4l2.79,11.17Z" fill="#002346"></path>
  </g>
  <g opacity=".05">
    <path d="M629.17,189.47v240.11c0,8.18-6.63,14.82-14.81,14.83h-9.76l1.29-.31c9.84-2.71,16.63-11.69,16.54-21.9V200.69c-.98-23.73-17.83-26.03-17.83-26.03h9.76c8.18,0,14.81,6.63,14.81,14.81Z"></path>
  </g>
  <g>
    <path d="M249.22,288.79h-.13l-43.09-10.2,30.37-6.22h47.84l-34.99,16.41Zm-39.7-10.17l39.62,9.37,31.72-14.89h-44.43l-26.91,5.52Z" fill="#002346"></path>
    <path d="M207.89,278.95l-.24-.71c1.65-.6,20.64-23.25,33.01-38.33l.23-.28,41.87,32.82-.49,.61-41.28-32.36c-4.09,4.98-30.85,37.51-33.1,38.26Z" fill="#002346"></path>
    <path d="M248.8,288.45l-7.83-45.87-4.24,30.19-.75-.11,4.61-32.61,.37-.05c.21,0,.39,.15,.42,.35l8.18,47.97-.76,.13Zm-7.5-47.98" fill="#002346"></path>
    <rect x="249.92" y="284.94" width="35.63" height=".76" transform="translate(-94.88 138.36) rotate(-24.76)" fill="#002346"></rect>
    <polygon points="255.13 294.77 250.6 292.96 252.68 288.97 253.35 289.32 251.65 292.57 255.41 294.07 255.13 294.77" fill="#002346"></polygon>
    <polygon points="282.37 281.78 281.7 281.43 283.39 278.18 279.64 276.67 279.92 275.97 284.45 277.78 282.37 281.78" fill="#002346"></polygon>
    <rect x="264.39" y="233.56" width=".76" height="38.23" transform="translate(-97.65 303.67) rotate(-51.67)" fill="#002346"></rect>
    <polygon points="249.69 245.29 249.14 240.01 253.89 239.99 253.89 240.74 249.98 240.76 250.44 245.22 249.69 245.29" fill="#002346"></polygon>
    <polygon points="275.31 265.02 275.31 264.26 279.22 264.23 278.77 259.78 279.52 259.71 280.06 264.98 275.31 265.02" fill="#002346"></polygon>
    <rect x="200.5" y="255.81" width="38.23" height=".76" transform="translate(-117.14 234.73) rotate(-45.75)" fill="#002346"></rect>
    <polygon points="210.71 270.43 205.41 270.43 205.87 265.7 206.62 265.77 206.24 269.67 210.71 269.67 210.71 270.43" fill="#002346"></polygon>
    <polygon points="232.98 246.97 232.22 246.9 232.6 243 228.13 243 228.13 242.25 233.43 242.25 232.98 246.97" fill="#002346"></polygon>
  </g>
  <path d="M255.2,216.66c-.54-55.59-.08-56.07,.15-56.31l.42-.17v.59l.53,.2c-.35,1.52-.16,34.14,0,55.69h-1.11Z" fill="#002346"></path>
  <g>
    <circle cx="255.62" cy="220.97" r="4.63" fill="#1330be"></circle>
    <path d="M255.62,226.1c-2.83,0-5.13-2.3-5.13-5.13s2.3-5.13,5.13-5.13,5.13,2.3,5.13,5.13-2.3,5.13-5.13,5.13Zm0-9.26c-2.28,0-4.13,1.85-4.13,4.13s1.85,4.13,4.13,4.13,4.13-1.85,4.13-4.13-1.85-4.13-4.13-4.13Z" fill="#002346"></path>
  </g>
  <polygon points="562.5 238.54 442.2 238.54 442.2 192.41 443.36 192.41 443.36 237.38 562.5 237.38 562.5 238.54" fill="#002346"></polygon>
  <polygon points="436.35 199.56 435.51 198.76 442.77 191.19 450.13 198.56 449.32 199.37 442.79 192.85 436.35 199.56" fill="#002346"></polygon>
  <polygon points="556.79 245.73 555.97 244.91 562.5 238.39 555.79 231.94 556.59 231.11 564.16 238.36 556.79 245.73" fill="#002346"></polygon>
  <path d="M464.2,238.54h-9.26v-39.04h9.26v39.04Zm-8.11-1.16h6.95v-36.68h-6.95v36.68Z" fill="#002346"></path>
  <path d="M479.24,238.54h-9.26v-18.16h9.26v18.16Zm-8.1-1.16h6.95v-15.83h-6.95v15.83Z" fill="#002346"></path>
  <path d="M495.46,238.54h-9.26v-29.73h9.26v29.73Zm-8.1-1.16h6.94v-27.42h-6.94v27.42Z" fill="#002346"></path>
  <g>
    <rect x="502.98" y="183.92" width="8.1" height="54.04" fill="#1330be"></rect>
    <path d="M511.09,238.5h-8.1c-.3,0-.54-.24-.54-.54v-54.04c0-.3,.24-.54,.54-.54h8.1c.3,0,.54,.24,.54,.54v54.04c0,.3-.24,.54-.54,.54Zm-7.56-1.08h7.02v-52.96h-7.02v52.96Z" fill="#002346"></path>
  </g>
  <g>
    <rect x="519.19" y="192.02" width="8.1" height="45.94" fill="#1330be"></rect>
    <path d="M527.29,238.5h-8.1c-.3,0-.54-.24-.54-.54v-45.94c0-.3,.24-.54,.54-.54h8.1c.3,0,.54,.24,.54,.54v45.94c0,.3-.24,.54-.54,.54Zm-7.56-1.08h7.02v-44.86h-7.02v44.86Z" fill="#002346"></path>
  </g>
  <g>
    <rect x="535.4" y="204.75" width="8.1" height="33.21" fill="#1330be"></rect>
    <path d="M543.5,238.5h-8.1c-.3,0-.54-.24-.54-.54v-33.21c0-.3,.24-.54,.54-.54h8.1c.3,0,.54,.24,.54,.54v33.21c0,.3-.24,.54-.54,.54Zm-7.56-1.08h7.02v-32.12h-7.02v32.12Z" fill="#002346"></path>
  </g>
  <g>
    <path d="M406.31,271.84l-17.74,50.42c-.07,.21-.36,.23-.46,.03-12.96-25.26-48.37-48.1-48.37-48.1l3.74-42.37c10.31,16.85,26.35,26.44,41.55,22.95,4.66-1.1,8.97-3.33,12.56-6.51l8.72,23.58Z" fill="#f2b3c1"></path>
    <path d="M388.33,322.93c-.28,0-.54-.16-.67-.41-12.75-24.85-47.84-47.68-48.19-47.91l-.25-.16,3.9-44.18,.79,1.29c10.48,17.12,26.57,26.04,41.01,22.72,4.56-1.08,8.83-3.29,12.34-6.39l.55-.48,9.04,24.43-.06,.17-17.74,50.42c-.1,.29-.36,.48-.66,.5-.02,0-.04,0-.05,0Zm-48.07-48.99c3.2,2.11,35.53,23.85,48.02,47.61l17.49-49.71-8.41-22.73c-3.53,2.97-7.74,5.09-12.23,6.14-14.5,3.33-30.58-5.25-41.3-21.91l-3.58,40.59Z" fill="#002346"></path>
  </g>
  <g>
    <path d="M341.87,245.28l-23.73,29.52c-1.28,1.58-1.7,3.68-1.15,5.64l9.13,32.09,13.61-11.41s11.58-6.26,24.32,3.7l23.12,17.11c.32,.24,.75-.12,.57-.47-2.53-5.04-13.55-23.64-48-47.26l2.14-28.91Z" fill="#f7f5ed"></path>
    <path d="M387.4,322.56c-.19,0-.38-.06-.55-.18l-23.12-17.11c-11.91-9.31-22.9-4.08-23.69-3.68l-14.21,11.91-9.36-32.9c-.6-2.12-.14-4.41,1.25-6.13l24.82-30.88-2.24,30.34c34.27,23.55,45.34,42.14,47.92,47.29,.2,.39,.1,.84-.23,1.12-.17,.15-.38,.22-.59,.22Zm-38.67-23.88c4.4,0,9.93,1.25,15.66,5.72l22.55,16.69c-3.08-5.85-14.51-23.82-47.51-46.44l-.26-.18,2.03-27.49-22.64,28.16c-1.17,1.44-1.56,3.37-1.05,5.15l8.9,31.29,13.06-10.93c.07-.04,3.77-1.97,9.25-1.97Z" fill="#002346"></path>
  </g>
  <g>
    <path d="M388.37,322.82s13.89-35.89,39.36-27.79l-6.94-28.94-21.53-19.38-1.68,1.55,8.73,23.58s-19.1,50.97-17.94,50.97Z" fill="#f7f5ed"></path>
    <path d="M388.37,323.36h-.28l-.19-.25c-.27-.4-.62-.89,8.65-26.37,4.23-11.63,8.58-23.28,9.19-24.9l-8.79-23.73,2.31-2.13,.37,.33,21.65,19.49,7.21,30.03-.92-.29c-24.68-7.85-38.55,27.11-38.69,27.47l-.13,.35h-.37Zm9.84-74.94l8.67,23.43-.07,.19c-5.49,14.66-13.01,35.14-16.3,44.99,5.15-9.69,17.67-28.05,36.46-22.79l-6.68-27.86-21.04-18.94-1.05,.97Z" fill="#002346"></path>
  </g>
  <g>
    <rect x="420.04" y="278.94" width="200.37" height="131.76" fill="#fff"></rect>
    <path d="M620.91,411.2h-201.37v-132.76h201.37v132.76Zm-200.37-1h199.37v-130.76h-199.37v130.76Z" fill="#002346"></path>
  </g>
  <path d="M621.57,411.85h-202.69v-134.07h202.69v134.07Zm-200.37-2.27h198.05v-129.49h-198.05v129.49Z" fill="#002346"></path>
  <path d="M606.91,404.42h-173.41c-.3,0-.54-.24-.54-.54v-.29c0-3.34-2.72-6.06-6.06-6.06h-.23c-.3,0-.54-.24-.54-.54v-104.43c0-.3,.24-.54,.54-.54h.18c3.38,.04,6.08-2.68,6.11-6.02v-.22c0-.3,.24-.54,.54-.54h173.41c.3,0,.54,.24,.54,.54v.18c0,3.34,2.72,6.06,6.06,6.06h.18c.3,0,.54,.24,.54,.54v104.41c0,.3-.24,.54-.54,.54h-.16c-3.34,0-6.06,2.73-6.06,6.07l-.02,.34c-.02,.28-.26,.5-.54,.5Zm-172.87-1.08h172.35c.1-3.69,3.07-6.71,6.76-6.91v-103.35c-3.66-.18-6.6-3.12-6.78-6.78h-172.34c-.2,3.7-3.17,6.62-6.82,6.78v103.36c3.71,.16,6.7,3.17,6.83,6.89Z" fill="#002346"></path>
  <path d="M466.91,307.11c.04-2.83,2.35-5.1,5.18-5.09,1.17,0,2.32,.37,3.25,1.08,.31,.28,.37,.74,.14,1.08-.27,.32-.73,.39-1.08,.16-.65-.52-1.45-.79-2.28-.78-.95,0-1.86,.37-2.55,1.02-.65,.66-1.02,1.54-1.03,2.46,0,.92,.37,1.81,1.03,2.45,.69,.65,1.6,1.01,2.55,1.02,.83,.01,1.63-.26,2.28-.78,.35-.21,.8-.15,1.08,.15,.26,.36,.2,.85-.14,1.14-.93,.71-2.08,1.09-3.25,1.08-2.81,.02-5.11-2.21-5.18-5.01Z" fill="#1330be"></path>
  <path d="M478.25,311.42v-8.34c-.02-.4,.28-.75,.68-.78h4.72c.41,.02,.74,.37,.74,.78,0,.41-.32,.76-.74,.79h-3.84v2.58h3.25c.43,0,.78,.36,.78,.79,0,.43-.35,.78-.78,.78h-3.25v2.6h3.84c.43,0,.78,.35,.78,.78s-.35,.78-.78,.78h-4.6c-.42,0-.76-.33-.77-.75,0,0,0,0,0-.01h-.03Z" fill="#1330be"></path>
  <path d="M493.45,311.03c.14,.4-.08,.84-.48,.98,0,0,0,0,0,0h0c-.1,.02-.21,.02-.31,0h0c-.2,0-.39-.04-.55-.15-.19-.12-.34-.29-.46-.49-.22-.54-.32-1.12-.29-1.7,0-.22-.06-.43-.17-.61-.11-.17-.25-.31-.42-.41-.25-.15-.51-.26-.79-.34h-1.66v3.07c-.03,.42-.37,.74-.79,.74-.41,0-.76-.32-.78-.74v-8.3c-.02-.4,.28-.75,.68-.78h2.61c1.67,0,3.02,1.34,3.03,3,0,0,0,0,0,.01h0c0,.89-.39,1.75-1.08,2.31,.19,.15,.36,.33,.5,.53,.3,.45,.47,.98,.47,1.52-.02,.28,0,.56,.05,.84,.23,.08,.41,.28,.47,.52Zm-1.97-5.68c0-.81-.66-1.47-1.47-1.47h-1.74v2.94h1.74c.81,0,1.47-.65,1.47-1.46Z" fill="#1330be"></path>
  <path d="M501.5,303.87h-2.25v7.59c0,.41-.33,.74-.74,.74h0c-.41,0-.76-.32-.78-.74v-7.59h-2.17c-.43,0-.78-.36-.78-.79h0c-.02-.41,.29-.75,.69-.78h6.12c.43,0,.77,.34,.78,.77h0c0,.44-.35,.79-.79,.79h-.09Z" fill="#1330be"></path>
  <path d="M504.71,303.08c-.02-.4,.28-.75,.68-.78h.1c.43,0,.79,.35,.79,.78h0v8.34c-.03,.42-.37,.74-.79,.74-.41,.02-.76-.29-.78-.69,0,0,0,0,0,0v-8.38Z" fill="#1330be"></path>
  <path d="M508.94,311.42v-8.34c0-.42,.34-.77,.76-.78h4.64c.43,0,.78,.36,.78,.79,0,.43-.35,.78-.78,.78h-3.84v2.58h3.25c.43,0,.79,.36,.79,.79,0,.43-.36,.78-.79,.78h-3.25v3.39c-.03,.41-.38,.73-.79,.74-.41,0-.75-.33-.77-.74Z" fill="#1330be"></path>
  <path d="M517.57,303.08c-.02-.41,.29-.75,.69-.78h.09c.43,0,.79,.35,.79,.78v8.34c-.03,.41-.38,.73-.79,.74-.41,.02-.76-.29-.78-.69,0,0,0,0,0,0v-8.38Z" fill="#1330be"></path>
  <path d="M521.35,307.11c.05-2.83,2.36-5.09,5.18-5.09,1.17,0,2.32,.37,3.25,1.08,.31,.28,.37,.74,.14,1.08-.27,.32-.73,.39-1.08,.16-.65-.52-1.45-.79-2.28-.78-.95,.02-1.86,.41-2.54,1.08-.67,.64-1.06,1.52-1.08,2.45,.01,.93,.4,1.82,1.08,2.46,.7,.63,1.62,.97,2.57,.95,.83,.02,1.63-.26,2.28-.78,.35-.21,.81-.15,1.08,.16,.23,.35,.17,.81-.14,1.08-.93,.72-2.08,1.1-3.25,1.08-2.8,.04-5.12-2.17-5.22-4.97Z" fill="#1330be"></path>
  <path d="M537.52,309.87h-3.44l-.69,1.83c-.12,.29-.41,.49-.73,.49-.4,.04-.77-.25-.81-.65-.01-.14,.01-.28,.08-.4l3.12-8.33c.13-.3,.42-.49,.74-.49,.33-.01,.62,.18,.74,.49l3.11,8.33c.15,.41-.05,.86-.46,1.02-.4,.12-.83-.08-1-.46l-.66-1.83Zm-.59-1.56l-1.08-3.04-1.16,3.04h2.25Z" fill="#1330be"></path>
  <path d="M546.22,303.87h-2.25v7.59c-.04,.43-.42,.74-.85,.7-.37-.04-.66-.33-.7-.7v-7.59h-2.23c-.43,0-.78-.36-.78-.79-.02-.4,.28-.75,.68-.78h6.13c.43,0,.77,.33,.78,.76,0,0,0,0,0,.01h0c0,.44-.34,.8-.78,.8h0Z" fill="#1330be"></path>
  <path d="M549.44,303.08c-.02-.41,.29-.75,.69-.78h.09c.43,0,.79,.35,.79,.78h0v8.34c-.02,.42-.37,.74-.79,.74-.41,.02-.75-.29-.78-.69v-8.38h0Z" fill="#1330be"></path>
  <path d="M561.47,303.53c1.91,2,1.91,5.15,0,7.15-.87,.94-2.1,1.47-3.38,1.47-1.31,0-2.55-.53-3.46-1.47-1.87-2.02-1.87-5.13,0-7.15,.89-.96,2.15-1.51,3.46-1.51,1.29,0,2.52,.55,3.38,1.51Zm-.18,3.58c0-.92-.34-1.8-.97-2.47-1.11-1.26-3.03-1.38-4.29-.27-.02,.02-.04,.03-.05,.05-.08,.07-.15,.15-.22,.23-1.29,1.39-1.29,3.53,0,4.92,1.1,1.25,2.99,1.37,4.24,.27,0,0,0,0,.01-.01,.09-.08,.18-.17,.26-.26,.63-.66,.98-1.54,.99-2.45h.02Z" fill="#1330be"></path>
  <path d="M566.9,311.42c0,.43-.35,.77-.77,.77-.42,0-.76-.34-.77-.77v-8.21c-.02-.25,.09-.5,.3-.64,.34-.26,.82-.19,1.08,.15,0,0,0,0,0,0l4.49,6.31v-5.83c.02-.4,.34-.71,.74-.73,.41,0,.75,.32,.78,.73v8.22c-.03,.41-.37,.73-.78,.73-.23,0-.44-.09-.59-.27l-.07-.09-4.52-6.28,.1,5.9Z" fill="#1330be"></path>
  <path d="M561.21,329.64h-83.51c-.3,0-.54-.24-.54-.54s.24-.54,.54-.54h83.51c.3,0,.54,.24,.54,.54s-.24,.54-.54,.54Z" fill="#002346"></path>
  <path d="M583.98,339.94h-126.35c-.3,0-.54-.24-.54-.54s.24-.54,.54-.54h126.35c.3,0,.54,.24,.54,.54s-.24,.54-.54,.54Z" fill="#002346"></path>
  <path d="M591.58,378.99h-54.77c-.3,0-.54-.24-.54-.54s.24-.54,.54-.54h54.77c.3,0,.54,.24,.54,.54s-.24,.54-.54,.54Z" fill="#002346"></path>
  <path d="M503.73,378.45h-57.48c-.3,0-.54-.24-.54-.54s.24-.54,.54-.54h57.48c.3,0,.54,.24,.54,.54s-.24,.54-.54,.54Z" fill="#002346"></path>
  <path d="M579.65,351.15h-118.22c-.3,0-.54-.24-.54-.54s.24-.54,.54-.54h118.22c.3,0,.54,.24,.54,.54s-.24,.54-.54,.54Z" fill="#002346"></path>
  <path d="M564.46,356.75h-77c-.3,0-.54-.24-.54-.54s.24-.54,.54-.54h77c.3,0,.54,.24,.54,.54s-.24,.54-.54,.54Z" fill="#002346"></path>
  <path d="M548.25,375.23c.9-.62,1.82-1.21,2.79-1.76,.94-.58,1.96-1.03,3.02-1.36,.13-.04,.27-.07,.41-.09,.17-.04,.35,.02,.47,.15,.14,.27,.21,.57,.18,.87-.01,.55-.07,1.1-.16,1.65-.2,1.08-.47,2.17-.74,3.25-.59,2.12-1.31,4.21-2.17,6.24-.22,.51-.48,1.01-.78,1.47-.09,.12-.19,.24-.3,.34-.08,.08-.18,.12-.28,.13-.07,0-.14-.02-.2-.07l-.1-.11c-.17-.26-.25-.57-.24-.88,.02-1.11,.22-2.21,.59-3.25,.32-1.06,.73-2.08,1.24-3.07,.46-1.04,1.11-1.99,1.91-2.8,.43-.38,.95-.63,1.52-.73,.29-.04,.59-.02,.87,.07,.26,.14,.47,.36,.61,.62,.12,.24,.27,.46,.46,.66,.16,.19,.42,.28,.66,.23,.51-.18,.97-.46,1.38-.81,.23-.16,.43-.34,.66-.49,.12-.09,.24-.16,.37-.23,.14-.09,.32-.09,.46,0,.22,.27,.16,.56,.27,.8,.06,.25,.31,.41,.56,.36,.46-.29,.87-.66,1.2-1.08,.37-.4,.74-.81,1.08-1.23,.74-.84,1.43-1.67,2.17-2.49,.37-.41,.74-.81,1.14-1.2,.21-.2,.41-.37,.63-.54,.12-.09,.25-.16,.38-.22,.08-.03,.16-.05,.24-.05,.1,0,.2,.05,.25,.13,.13,.27,.17,.58,.12,.88-.03,.28-.07,.55-.13,.82-.38,1.62-.97,3.19-1.76,4.65-.14,.25-.32,.49-.52,.69-.13,.13-.31,.2-.49,.18-.15-.01-.3-.05-.43-.12-.54-.26-.94-.76-1.08-1.34-.04-.18-.02-.36,.07-.52,.05-.05,.11-.09,.17-.12,.09-.04,.18-.06,.28-.05,.29,.02,.58,.09,.86,.2,.52,.18,1.08,.41,1.54,.64l1.51,.64,.73,.27,.36,.09c.1,0,.21-.02,.3-.07,.42-.21,.69-.74,1.08-1.08,.22-.25,.52-.4,.85-.43,.12-.01,.24,.03,.34,.11,.09,.09,.13,.21,.11,.34,0,.15-.03,.31-.08,.46-.08,.24-.11,.55,0,.56,.21,.02,.41,.02,.62,0,.51-.15,.98-.4,1.39-.74,.22-.15,.44-.31,.69-.47,.27-.18,.6-.26,.92-.22,.55,.21,1.04,.56,1.41,1.02,.17,.19,.37,.36,.59,.5,.1,.08,.2,.09,.22,.07,.11-.05,.22-.12,.31-.2,.44-.33,.85-.7,1.24-1.08,.82-.72,1.55-1.54,2.17-2.44,.3-.42,.49-.91,.53-1.43,0-.49-.51-.73-1.08-.79-1.07-.21-2.18-.21-3.25,0-.53,.1-1.06,.24-1.56,.43-.26,.1-.5,.23-.73,.38-.21,.15-.39,.37-.33,.56,.11,.22,.29,.39,.52,.48,.24,.11,.49,.22,.74,.3,.51,.18,1.03,.33,1.56,.46,2.15,.41,4.32,.62,6.51,.63h0c-2.2,.05-4.4-.11-6.57-.48-.54-.12-1.08-.27-1.61-.44-.26-.09-.52-.19-.77-.3-.29-.11-.52-.33-.65-.62-.04-.32,.12-.64,.4-.8,.22-.17,.47-.32,.73-.42,.52-.22,1.05-.38,1.61-.48,1.1-.23,2.22-.26,3.33-.09,.29,.04,.58,.13,.84,.28,.28,.17,.46,.47,.48,.8-.02,.59-.22,1.16-.56,1.64-.62,.93-1.34,1.78-2.17,2.54-.4,.39-.83,.76-1.28,1.08-.12,.1-.25,.18-.39,.24-.19,.06-.4,.03-.56-.08-.24-.17-.45-.36-.65-.57-.33-.39-.75-.7-1.21-.9-.4-.07-.87,.31-1.3,.62-.45,.36-.97,.62-1.52,.79-.31,.13-.66,.13-.98,0-.16-.14-.23-.35-.18-.55,.01-.15,.04-.3,.09-.44,.03-.12,.05-.24,.07-.36h0c-.23,.04-.43,.15-.59,.31-.38,.35-.63,.89-1.21,1.19-.15,.08-.32,.11-.49,.1-.15-.02-.3-.05-.44-.1-.27-.08-.52-.18-.78-.28l-1.52-.66c-.51-.23-1-.46-1.51-.63-.23-.1-.48-.16-.74-.18-.17,0-.27,.14-.23,.38,.13,.48,.47,.87,.91,1.08,.11,.05,.23,.09,.35,.11,.1,0,.19-.04,.25-.12,.18-.18,.34-.39,.47-.62,.54-.93,.99-1.92,1.33-2.94,.18-.52,.32-1.04,.44-1.57,.06-.26,.11-.53,.14-.79,.07-.24,.07-.5,0-.74-.09-.14-.39,0-.6,.18s-.41,.34-.61,.52c-.4,.37-.77,.78-1.08,1.18-.74,.8-1.47,1.65-2.17,2.46-.37,.41-.74,.82-1.08,1.23-.36,.43-.79,.8-1.27,1.08-.32,.08-.65-.1-.74-.42-.11-.26-.1-.59-.24-.74s-.21,0-.33,0l-.34,.22c-.22,.15-.43,.33-.65,.5-.42,.37-.91,.66-1.43,.86-.3,.07-.62-.03-.82-.26-.18-.21-.35-.44-.49-.68-.15-.23-.29-.47-.52-.54-.24-.07-.48-.09-.73-.05-.52,.1-1.01,.34-1.41,.69-.77,.77-1.39,1.66-1.84,2.65-.49,.97-.89,1.99-1.19,3.04-.34,1.03-.52,2.1-.53,3.19-.01,.24,.05,.48,.16,.69v.05h0s.06-.03,.08-.05c.09-.09,.17-.18,.24-.28,.27-.46,.52-.93,.74-1.42,.86-2.01,1.58-4.07,2.17-6.17,.31-1.05,.57-2.11,.78-3.19,.11-.53,.17-1.07,.18-1.62,.02-.25-.03-.5-.14-.73-.06-.09-.18-.13-.28-.09-.13,.01-.26,.04-.38,.08-1.05,.3-2.06,.73-3,1.28-.97,.52-1.91,1.08-2.83,1.68l.04-.1Z" fill="#002346"></path>
  <path d="M488.27,373.06c-.9-.62-1.82-1.21-2.79-1.76-.95-.57-1.96-1.03-3.02-1.36-.14-.04-.28-.07-.42-.09-.17-.04-.34,.02-.46,.15-.14,.27-.21,.57-.18,.87,0,.55,.06,1.1,.16,1.65,.2,1.08,.47,2.17,.74,3.25,.59,2.12,1.31,4.21,2.17,6.24,.22,.51,.48,1.01,.78,1.47,.09,.12,.19,.24,.3,.34,.08,.08,.18,.12,.28,.13,.07,0,.14-.02,.2-.07l.1-.11c.16-.26,.24-.57,.24-.88-.03-1.11-.23-2.2-.59-3.25-.33-1.06-.74-2.08-1.24-3.07-.48-1.01-1.14-1.92-1.94-2.7-.43-.38-.95-.64-1.52-.73-.29-.04-.58-.02-.86,.07-.26,.14-.48,.35-.61,.62-.13,.24-.28,.46-.46,.66-.16,.19-.42,.28-.66,.23-.51-.18-.98-.46-1.39-.81-.22-.16-.43-.34-.66-.49-.11-.08-.23-.16-.36-.23-.14-.09-.32-.09-.46,0-.22,.27-.16,.56-.27,.8-.06,.25-.31,.41-.56,.36-.46-.29-.87-.66-1.21-1.08-.37-.4-.73-.81-1.08-1.23-.74-.84-1.43-1.67-2.17-2.49-.37-.41-.74-.81-1.14-1.2-.2-.19-.42-.37-.64-.54-.11-.09-.24-.16-.37-.22-.08-.03-.16-.05-.24-.05-.1,0-.2,.05-.26,.13-.13,.27-.16,.58-.11,.88,.02,.28,.07,.55,.13,.82,.38,1.62,.97,3.19,1.76,4.65,.14,.25,.32,.49,.52,.69,.12,.13,.3,.2,.48,.18,.15-.01,.31-.05,.44-.12,.54-.27,.94-.76,1.08-1.34,.03-.18,0-.36-.07-.52-.05-.08-.12-.15-.21-.21-.09-.04-.19-.06-.29-.05-.29,.03-.57,.09-.85,.2-.53,.18-1.03,.41-1.54,.64l-1.51,.64c-.25,.1-.5,.2-.74,.27-.12,.04-.24,.07-.37,.09-.1,0-.21-.02-.3-.07-.41-.21-.68-.74-1.08-1.08-.22-.24-.51-.4-.84-.43-.12-.02-.25,.02-.34,.11-.09,.09-.13,.21-.12,.34,0,.15,.03,.31,.08,.46,.08,.24,.11,.55,0,.56-.21,.02-.42,.02-.63,0-.51-.15-.98-.4-1.39-.74-.23-.17-.48-.33-.74-.47-.27-.18-.59-.26-.91-.22-.55,.21-1.03,.56-1.41,1.02-.17,.19-.37,.36-.59,.5-.1,.08-.18,.09-.21,.07-.11-.05-.22-.12-.33-.2-.44-.33-.85-.69-1.24-1.08-.81-.73-1.54-1.55-2.17-2.44-.29-.42-.46-.91-.5-1.42,0-.49,.5-.74,1.03-.8,1.08-.19,2.18-.19,3.25,0,.53,.1,1.05,.25,1.55,.44,.26,.1,.51,.23,.74,.38,.2,.15,.38,.36,.33,.56-.11,.22-.3,.39-.53,.48-.24,.11-.49,.21-.74,.29-.52,.18-1.04,.34-1.57,.47-2.15,.41-4.32,.62-6.51,.63h0c2.21,.05,4.42-.11,6.6-.48,.54-.12,1.08-.27,1.61-.44,.25-.1,.52-.18,.77-.3,.29-.11,.52-.33,.65-.62,.04-.32-.11-.64-.39-.8-.23-.17-.47-.31-.74-.42-.52-.22-1.05-.38-1.61-.48-1.09-.24-2.22-.27-3.33-.1-.29,.04-.58,.14-.84,.29-.28,.17-.46,.47-.48,.8,.03,.59,.22,1.16,.56,1.64,.61,.93,1.34,1.79,2.17,2.54,.4,.39,.83,.75,1.28,1.08,.12,.09,.25,.17,.38,.24,.19,.06,.4,.03,.56-.09,.24-.16,.46-.35,.66-.56,.33-.4,.74-.71,1.21-.91,.4-.05,.87,.31,1.3,.63,.45,.35,.97,.62,1.52,.79,.31,.14,.66,.14,.98,0,.16-.13,.23-.34,.18-.54-.01-.15-.04-.3-.09-.44-.03-.12-.05-.24-.07-.36h.05c.23,.03,.43,.14,.59,.31,.37,.35,.63,.88,1.2,1.19,.15,.08,.33,.11,.5,.09,.15-.01,.3-.04,.44-.09,.27-.09,.52-.18,.78-.29,.51-.21,1.01-.43,1.52-.66s1-.44,1.51-.62c.24-.1,.48-.16,.74-.2,.17,0,.27,.15,.23,.38-.14,.47-.47,.86-.91,1.08-.11,.05-.23,.09-.35,.1-.1,0-.19-.03-.25-.11-.19-.18-.34-.39-.47-.62-.54-.93-.99-1.92-1.33-2.94-.17-.52-.33-1.08-.46-1.57-.07-.26-.11-.53-.13-.8-.05-.24-.03-.49,.05-.73,.09-.14,.39,0,.59,.18,.22,.16,.43,.33,.62,.52,.4,.37,.74,.77,1.14,1.18,.74,.8,1.47,1.64,2.17,2.46,.37,.41,.74,.82,1.08,1.23,.35,.44,.78,.8,1.27,1.08,.32,.08,.64-.11,.73-.42,.11-.27,.1-.59,.24-.74s.21,0,.31,0c.12,.06,.24,.13,.35,.22,.22,.15,.43,.33,.65,.5,.42,.37,.91,.66,1.43,.85,.3,.08,.62-.02,.82-.25,.18-.21,.35-.44,.49-.68,.15-.23,.29-.48,.52-.55,.24-.05,.49-.05,.73,0,.52,.1,1.01,.33,1.41,.68,.77,.77,1.39,1.67,1.84,2.66,.49,.97,.89,1.99,1.19,3.04,.34,1.03,.52,2.1,.53,3.19,.01,.24-.04,.48-.16,.68v.05h0s-.06-.03-.08-.05c-.09-.08-.16-.17-.23-.27-.28-.46-.53-.94-.74-1.43-.86-2-1.58-4.06-2.17-6.16-.3-1.08-.59-2.11-.78-3.19-.11-.53-.17-1.07-.18-1.62-.02-.25,.03-.51,.14-.74,.07-.09,.13-.11,.28-.08,.13,0,.26,.04,.39,.08,1.05,.31,2.05,.74,3,1.27,.95,.52,1.91,1.08,2.82,1.68l-.07-.15Z" fill="#002346"></path>
  <path d="M520.59,363.58h0c.14,.35,.53,.52,.88,.39,.13-.05,.25-.14,.33-.26h0c.21-.31,.63-.4,.94-.2,.15,.11,.26,.27,.29,.46h0c.07,.37,.42,.62,.79,.55,.13-.02,.26-.08,.36-.17h0c.25-.26,.67-.27,.94-.02,0,0,.01,.01,.02,.02,.13,.13,.21,.32,.2,.51h0c-.01,.37,.28,.69,.65,.7,.14,.01,.28-.02,.4-.1h0c.31-.2,.73-.12,.93,.19,0,0,0,0,0,0,.1,.16,.13,.35,.09,.53h0c-.1,.36,.12,.74,.49,.83,0,0,0,0,0,0,.13,.04,.28,.04,.41,0h0c.35-.13,.75,.05,.88,.4,.08,.17,.08,.37,0,.54h0c-.17,.34-.03,.75,.3,.92,.13,.07,.29,.09,.43,.05h0c.37-.05,.71,.21,.77,.59,.02,.18-.03,.36-.14,.51h0c-.23,.29-.18,.71,.11,.94,0,0,0,0,.01,0,.11,.09,.23,.14,.37,.15h0c.38,.02,.66,.35,.64,.72h0c-.02,.19-.11,.36-.25,.48h0c-.29,.24-.33,.66-.09,.95,0,0,0,0,0,0,.09,.11,.2,.19,.34,.23h0c.36,.09,.58,.45,.49,.81-.05,.19-.18,.36-.36,.44h0c-.33,.18-.45,.59-.27,.92,.06,.12,.15,.22,.27,.28h0c.34,.17,.47,.59,.29,.92,0,0,0,0,0,0-.09,.17-.24,.29-.42,.34h0c-.36,.1-.57,.47-.47,.83,0,0,0,0,0,0,.03,.14,.11,.26,.22,.35h0c.29,.24,.33,.67,.08,.96-.12,.14-.29,.23-.47,.24h0c-.38,.03-.65,.36-.63,.74,0,.13,.06,.26,.14,.37h0c.22,.3,.16,.73-.14,.96-.14,.1-.31,.15-.49,.13h0c-.37-.07-.73,.17-.8,.54-.02,.15,0,.3,.07,.43h0c.16,.34,.02,.75-.31,.91-.17,.07-.36,.07-.53,0h0c-.35-.13-.75,.05-.88,.4-.05,.13-.05,.27-.02,.4h0c.09,.36-.14,.72-.5,.81,0,0-.01,0-.02,0-.17,.04-.35,.01-.5-.08h0c-.32-.2-.74-.11-.94,.21-.07,.12-.11,.25-.11,.39h0c.02,.37-.26,.69-.63,.72,0,0,0,0-.01,0-.19,0-.37-.06-.51-.2h0c-.27-.27-.7-.27-.97,0-.1,.1-.16,.22-.18,.36h0c-.07,.37-.42,.62-.79,.56-.18-.03-.34-.14-.44-.29h0c-.21-.31-.64-.4-.95-.2-.11,.08-.2,.19-.25,.31h0c-.14,.35-.54,.52-.89,.38-.17-.07-.31-.21-.38-.38h0c-.13-.35-.52-.52-.87-.38,0,0,0,0,0,0-.13,.05-.25,.14-.33,.26h0c-.21,.3-.63,.39-.94,.18-.15-.11-.26-.27-.29-.46h0c-.07-.37-.42-.62-.79-.55-.14,.02-.26,.09-.36,.18h0c-.27,.26-.69,.26-.95,0-.13-.14-.2-.33-.2-.52h0c.01-.38-.28-.69-.66-.7,0,0,0,0,0,0-.14,0-.28,.03-.39,.11h0c-.32,.19-.74,.09-.93-.23-.1-.15-.13-.34-.09-.51h0c.09-.37-.14-.74-.5-.83-.13-.03-.27-.02-.4,.02h0c-.36,.12-.75-.07-.88-.42-.06-.17-.06-.35,0-.52h0c.17-.34,.03-.75-.3-.92-.13-.07-.29-.08-.43-.05h0c-.37,.05-.71-.21-.77-.59-.02-.18,.03-.36,.14-.51h0c.22-.32,.14-.75-.18-.97-.09-.06-.2-.11-.31-.12h0c-.38-.03-.66-.36-.63-.73,0,0,0,0,0,0,.01-.18,.1-.35,.24-.47h0c.28-.24,.33-.66,.1-.95-.09-.1-.21-.18-.35-.23h0c-.36-.09-.58-.45-.49-.81,.05-.19,.18-.36,.36-.44h0c.33-.19,.45-.62,.26-.95-.06-.11-.15-.2-.26-.26h0c-.34-.17-.47-.59-.29-.92,0,0,0,0,0,0,.09-.17,.24-.29,.42-.34h0c.36-.1,.57-.48,.47-.85-.03-.13-.11-.25-.22-.34h0c-.29-.24-.33-.67-.09-.96,0,0,0,0,0,0,.12-.14,.29-.23,.48-.24h0c.38-.03,.65-.36,.63-.74,0-.13-.06-.26-.14-.37h0c-.22-.3-.16-.73,.14-.96,.14-.1,.31-.15,.49-.13h0c.37,.07,.72-.18,.79-.54,.03-.15,.01-.3-.05-.43h0c-.17-.34-.03-.75,.31-.91,.17-.08,.36-.09,.53-.03h0c.35,.13,.75-.05,.88-.4,.04-.13,.04-.28,0-.41h0c-.09-.36,.13-.72,.49-.81,.18-.05,.38-.02,.53,.09h0c.32,.22,.75,.13,.96-.18,.09-.12,.13-.27,.12-.43h0c-.02-.36,.25-.68,.62-.7,0,0,.02,0,.02,0,.19-.01,.38,.06,.51,.2h0c.27,.27,.7,.27,.97,0,.1-.1,.16-.22,.18-.36h0c.06-.37,.41-.61,.77-.55,0,0,0,0,0,0,.19,.02,.36,.13,.46,.29h0c.21,.31,.63,.4,.95,.19,.12-.08,.21-.19,.26-.32h0c.14-.35,.53-.52,.88-.39,.17,.07,.3,.2,.38,.37Z" fill="#1330be"></path>
  <circle cx="519.95" cy="375.4" r="10.57" fill="#fff"></circle>
  <path d="M519.95,385.27c-5.47,0-9.9-4.43-9.9-9.9,0-5.47,4.43-9.9,9.9-9.9s9.9,4.43,9.9,9.9h0c0,5.48-4.44,9.9-9.9,9.9Zm0-19.42c-5.28,0-9.55,4.28-9.55,9.55s4.28,9.55,9.55,9.55,9.55-4.28,9.55-9.55h0c0-5.28-4.28-9.55-9.55-9.55Z" fill="#1330be"></path>
  <rect x="503.91" y="372.34" width="32.1" height="6.08" fill="#fff"></rect>
  <path d="M508.12,375.44c.01-.97,.8-1.75,1.77-1.75,.39,0,.77,.14,1.08,.38,.1,.11,.1,.28,0,.39-.11,.1-.27,.1-.38,0-.22-.18-.5-.27-.78-.26-.32,0-.63,.12-.87,.35-.22,.22-.35,.52-.35,.84-.01,.32,.12,.62,.35,.84,.23,.22,.54,.35,.87,.36,.28,0,.56-.1,.78-.27,.12-.09,.29-.07,.38,.05h0c.1,.11,.1,.27,0,.38-.31,.24-.69,.37-1.08,.38-.94,0-1.72-.74-1.77-1.68Z" fill="#1330be"></path>
  <path d="M512,376.9v-2.84c0-.14,.12-.26,.26-.26h1.58c.14,.03,.24,.16,.22,.3-.02,.11-.11,.2-.22,.23h-1.31v.88h1.08c.15,.03,.24,.17,.22,.31-.02,.11-.11,.2-.22,.23h-1.08v.88h1.31c.15,.03,.24,.17,.21,.32-.02,.11-.11,.19-.21,.21h-1.58c-.14,0-.26-.12-.26-.26Z" fill="#1330be"></path>
  <path d="M517.18,376.77c.04,.14-.03,.29-.17,.34h-.1c-.07,0-.13-.02-.18-.05-.06-.04-.12-.1-.16-.16-.08-.19-.11-.39-.1-.59,0-.07-.02-.15-.07-.21-.03-.06-.08-.11-.14-.14-.08-.06-.17-.09-.26-.11h-.57v1.08c-.04,.15-.2,.24-.35,.19-.09-.03-.17-.1-.19-.19v-2.83c0-.15,.13-.26,.27-.26h.87c.56,0,1.02,.46,1.02,1.02h0c0,.31-.13,.6-.37,.79,.07,.04,.12,.1,.16,.17,.11,.16,.16,.34,.16,.53-.01,.09-.01,.19,0,.28,.08,.01,.15,.06,.18,.13Zm-.67-1.94c0-.27-.23-.49-.5-.5h-.6v.99h.6c.26,0,.47-.19,.5-.44v-.04Z" fill="#1330be"></path>
  <path d="M519.95,374.33h-.77v2.57c0,.14-.1,.25-.24,.26,0,0,0,0-.01,0h0c-.14,0-.26-.12-.26-.26h0v-2.57h-.74c-.14,0-.26-.12-.26-.26h0c-.01-.13,.08-.25,.22-.26,.01,0,.02,0,.03,0h2.04c.15,0,.27,.11,.27,.26h0c0,.15-.13,.27-.28,.26,0,0,0,0,0,0Z" fill="#1330be"></path>
  <path d="M521.02,374.06c0-.15,.12-.27,.27-.28,.02,0,.04,0,.06,0h0c.15,0,.27,.11,.27,.26v2.84c0,.15-.13,.26-.27,.26h0c-.14,0-.26-.11-.27-.25h0s-.05-2.84-.05-2.84Z" fill="#1330be"></path>
  <path d="M522.43,376.9v-2.84c0-.14,.12-.26,.26-.26h1.58c.15,.03,.24,.17,.21,.32-.02,.11-.11,.19-.21,.21h-1.31v.88h1.08c.15,0,.27,.12,.27,.27s-.12,.27-.27,.27h-1.08v1.15c0,.14-.12,.26-.26,.26,0,0,0,0-.01,0-.14,0-.26-.12-.26-.26Z" fill="#1330be"></path>
  <path d="M525.41,374.06c0-.15,.12-.27,.27-.27,.15,0,.27,.11,.27,.26v2.84c0,.15-.13,.26-.27,.26h0c-.14,0-.26-.11-.27-.25h0v-2.84Z" fill="#1330be"></path>
  <path d="M526.85,376.9v-2.84c0-.14,.1-.25,.24-.26,0,0,0,0,.01,0h1.58c.15,.02,.25,.16,.23,.3-.02,.12-.11,.21-.23,.23h-1.3v.88h1.08c.15,0,.27,.12,.27,.27s-.12,.27-.27,.27h-1.08v.88h1.3c.14,0,.26,.12,.26,.26,0,.14-.11,.26-.25,.27,0,0,0,0-.01,0h-1.57c-.14,0-.25-.1-.26-.24,0,0,0,0,0-.01h0Z" fill="#1330be"></path>
  <path d="M529.71,376.9v-2.84c0-.15,.12-.27,.27-.27,.02,0,.03,0,.05,0h.56c.93,0,1.68,.75,1.68,1.68s-.75,1.68-1.68,1.68h-.56c-.15,.02-.29-.08-.31-.22,0,0,0-.02,0-.03Zm.52-.27h.3c.64-.06,1.1-.63,1.04-1.27-.05-.55-.49-.99-1.04-1.04h-.3v2.31Z" fill="#1330be"></path>
  <g>
    <path d="M393,349.47l-52.51,35.23c-4.99,3.35-10.32,6.15-15.91,8.36-13.25,5.26-38.7,16.5-40.4,25.88,0,0,10.41,32.42,28.94,28.95,0,0,17.35,7.28,54.42-37.46l40.22-45.3c1.64-1.85,3.86-3.1,6.29-3.56,4.2-.77,11.08-2.28,15.66-4.52,1.71-.86,3.16-2.16,4.2-3.77l12.35-18.87s1.16-1.16-1.16-6.95c0,0,2.32-5.78-2.31-8.1,0,0,1.82-5.79-1.98-9.84,0,0,.82-5.22-2.65-6.37,0,0-1.16-6.95-6.95-5.79l-19.67,5.79c-4.42,1.01-7.7,4.74-8.11,9.26l-10.41,37.07Z" fill="#f2b3c1"></path>
    <path d="M316.4,448.85c-1.83,0-2.93-.32-3.33-.46-18.67,3.33-28.94-27.97-29.37-29.31l-.04-.12,.02-.12c1.72-9.47,26.24-20.51,40.71-26.25,5.55-2.2,10.87-4.99,15.82-8.31l52.36-35.12,10.36-36.89c.42-4.66,3.83-8.56,8.48-9.61l19.64-5.78c1.72-.35,3.19-.08,4.43,.77,2.13,1.47,2.89,4.22,3.09,5.12,3.12,1.27,2.86,5.5,2.74,6.57,3.23,3.61,2.39,8.35,2.04,9.75,4.04,2.34,2.61,7.3,2.26,8.34,2.11,5.33,1.32,6.91,1.03,7.26l-12.33,18.84c-1.08,1.68-2.6,3.05-4.39,3.95-4.74,2.32-11.93,3.86-15.8,4.57-2.31,.43-4.44,1.64-6.01,3.4l-40.22,45.3c-27.97,33.75-44.73,38.1-51.51,38.1Zm-3.23-1.49l.14,.06c.17,.07,17.55,6.48,53.84-37.32l40.23-45.31c1.71-1.93,4.04-3.25,6.57-3.72,3.82-.7,10.91-2.21,15.53-4.48,1.62-.82,3.01-2.06,4-3.6l12.42-18.95h0s.79-1.26-1.27-6.41l-.07-.19,.07-.19c.09-.22,2.09-5.38-2.07-7.47l-.38-.19,.13-.41c.02-.06,1.68-5.57-1.87-9.34l-.17-.18,.04-.24s.71-4.81-2.31-5.81l-.29-.09-.05-.3s-.58-3.27-2.74-4.76c-1.01-.69-2.23-.91-3.62-.62l-19.63,5.78c-4.26,.97-7.36,4.51-7.76,8.83l-10.48,37.34-.15,.1-52.51,35.23c-5.01,3.36-10.39,6.19-16,8.41-11.44,4.54-38.16,16.07-40.07,25.38,.72,2.14,10.99,31.72,28.33,28.49l.15-.03Z" fill="#002346"></path>
  </g>
  <polygon points="618.78 457.8 625.41 449.83 635.48 452.19 623.13 415.38 606.43 420.99 618.78 457.8" fill="#002346"></polygon>
  <g opacity=".2">
    <polygon points="612.57 439.24 606.43 420.99 623.13 415.38 612.57 439.24"></polygon>
  </g>
  <polygon points="620.97 416.11 632.87 451.58 633.24 451.66 621.28 416.01 620.97 416.11" fill="#fff"></polygon>
  <polygon points="608.28 420.36 620.25 456.02 620.49 455.73 608.6 420.26 608.28 420.36" fill="#fff"></polygon>
  <polygon points="587.49 457.74 597.43 454.79 604.5 462.34 615.98 419.99 598.99 415.38 587.49 457.74" fill="#002346"></polygon>
  <polygon points="613.78 419.41 602.66 460.39 602.92 460.66 614.09 419.48 613.78 419.41" fill="#fff"></polygon>
  <polygon points="600.88 415.9 589.7 457.07 590.06 456.98 601.19 415.98 600.88 415.9" fill="#fff"></polygon>
  <g>
    <path d="M612.95,374.37h0c.32,.79,1.23,1.17,2.02,.85,.28-.12,.53-.31,.7-.57h0c.48-.71,1.45-.89,2.15-.41,.34,.23,.58,.6,.65,1.01h0c.15,.84,.95,1.41,1.79,1.27,.31-.05,.59-.2,.81-.42h0c.63-.59,1.61-.57,2.21,.06,.28,.3,.44,.7,.43,1.11h0c-.03,.86,.64,1.58,1.49,1.61,.31,.01,.61-.07,.87-.23h0c.72-.47,1.68-.27,2.15,.44,0,.01,.01,.02,.02,.03,.23,.36,.3,.79,.2,1.2h0c-.21,.82,.27,1.66,1.08,1.89,.31,.08,.63,.06,.92-.05h0c.8-.31,1.7,.09,2,.89,.16,.42,.13,.88-.07,1.28h0c-.37,.77-.05,1.7,.72,2.07,0,0,0,0,0,0,.27,.13,.58,.18,.88,.14h0c.84-.15,1.64,.41,1.78,1.25,.08,.44-.04,.89-.32,1.23h0c-.52,.67-.4,1.64,.26,2.17,.25,.19,.55,.3,.86,.33h0c.85,.05,1.5,.78,1.44,1.63,0,0,0,.01,0,.02-.03,.42-.23,.82-.55,1.08h0c-.64,.55-.72,1.51-.2,2.17,.2,.24,.47,.41,.77,.5h0c.83,.23,1.31,1.08,1.09,1.91h0c-.12,.41-.4,.75-.77,.96h0c-.75,.39-1.05,1.32-.66,2.08,.15,.28,.38,.51,.66,.66h0c.76,.4,1.05,1.34,.65,2.1-.2,.37-.54,.65-.95,.77h0c-.82,.23-1.3,1.09-1.07,1.92,.08,.3,.26,.56,.49,.76h0c.66,.54,.76,1.51,.22,2.17,0,0,0,0,0,0-.27,.33-.66,.54-1.08,.56h0c-.85,.07-1.49,.83-1.41,1.68,.03,.3,.14,.59,.33,.83h0c.53,.66,.43,1.63-.23,2.17,0,0,0,0,0,0-.35,.27-.79,.39-1.23,.31h0c-.85-.12-1.63,.48-1.75,1.32-.04,.3,0,.61,.14,.88h0c.37,.77,.05,1.7-.72,2.07-.38,.18-.82,.21-1.21,.07h0c-.8-.3-1.68,.11-1.98,.9,0,0,0,0,0,0-.1,.3-.1,.62,0,.92h0c.21,.83-.29,1.67-1.12,1.88-.41,.1-.85,.03-1.21-.19h0c-.71-.47-1.66-.28-2.13,.43-.01,.02-.02,.04-.03,.05-.17,.26-.25,.58-.24,.89h0c.02,.85-.64,1.57-1.5,1.61-.41,0-.79-.16-1.08-.44h0c-.6-.6-1.57-.6-2.17,0-.21,.22-.36,.51-.41,.81h0c-.14,.84-.94,1.41-1.79,1.27,0,0,0,0,0,0-.41-.08-.78-.32-1.02-.66h0c-.46-.71-1.42-.91-2.13-.45-.01,0-.03,.02-.04,.03-.26,.17-.46,.41-.57,.7h0c-.32,.79-1.22,1.18-2.02,.87-.39-.16-.7-.48-.87-.87h0c-.31-.79-1.19-1.17-1.98-.87,0,0-.02,0-.03,.01-.29,.11-.54,.31-.72,.57h0c-.48,.71-1.45,.89-2.16,.41-.35-.24-.58-.6-.65-1.01h0c-.15-.84-.95-1.4-1.79-1.26-.31,.05-.59,.19-.81,.41h0c-.6,.6-1.57,.6-2.17,0-.29-.29-.45-.68-.44-1.08h0c.04-.86-.63-1.58-1.49-1.61-.31-.01-.62,.07-.89,.24h0c-.72,.47-1.68,.27-2.15-.45,0-.01-.02-.02-.02-.04-.23-.36-.3-.79-.2-1.2h0c.21-.83-.3-1.67-1.13-1.88-.3-.07-.61-.06-.9,.05h0c-.8,.29-1.69-.12-1.98-.92-.17-.39-.17-.83,0-1.21h0c.37-.77,.05-1.69-.72-2.06,0,0,0,0,0,0-.27-.13-.58-.18-.88-.14h0c-.84,.15-1.64-.4-1.79-1.24-.08-.45,.04-.9,.33-1.25h0c.53-.67,.41-1.65-.26-2.18-.24-.19-.53-.3-.83-.33h0c-.85-.05-1.5-.78-1.45-1.63,.03-.42,.23-.82,.56-1.08h0c.66-.55,.74-1.53,.19-2.19-.2-.24-.47-.41-.76-.49h0c-.83-.23-1.31-1.08-1.09-1.91h0c.12-.41,.4-.76,.77-.96h0c.75-.39,1.05-1.32,.66-2.08-.15-.28-.38-.51-.66-.66h0c-.75-.4-1.04-1.33-.65-2.09,.2-.38,.54-.66,.95-.77h0c.83-.23,1.31-1.09,1.08-1.92-.09-.3-.26-.57-.5-.77h0c-.66-.54-.76-1.51-.22-2.17,.27-.34,.68-.54,1.11-.57h0c.85-.07,1.49-.83,1.41-1.68-.03-.3-.14-.59-.33-.83h0c-.53-.67-.41-1.64,.25-2.17,.34-.27,.79-.38,1.21-.3h0c.85,.1,1.62-.5,1.73-1.35,.03-.28,0-.56-.12-.82h0c-.4-.76-.11-1.7,.65-2.09,.4-.21,.86-.24,1.28-.07h0c.8,.3,1.68-.11,1.98-.9,.11-.3,.13-.62,.05-.93h0c-.21-.82,.27-1.65,1.08-1.88,.41-.11,.85-.04,1.2,.2h0c.74,.46,1.71,.24,2.17-.5,0,0,0,0,0,0,.16-.26,.24-.57,.23-.88h0c-.02-.85,.64-1.56,1.5-1.59,.41,0,.8,.15,1.08,.44h0c.6,.59,1.57,.59,2.17,0,.22-.22,.36-.51,.42-.81h0c.14-.84,.94-1.41,1.79-1.27,0,0,0,0,0,0,.41,.08,.78,.32,1.02,.66h0c.48,.71,1.44,.9,2.15,.42,.26-.17,.45-.42,.57-.7h0c.32-.8,1.22-1.19,2.01-.87,0,0,0,0,0,0,.38,.13,.7,.4,.89,.75Z" fill="#1330be"></path>
    <path d="M611.62,429.39c-.25,0-.51-.05-.76-.14-.54-.23-.95-.64-1.17-1.16-.1-.26-.29-.45-.53-.56-.24-.11-.51-.11-.75-.01-.22,.08-.38,.21-.49,.38-.32,.47-.8,.78-1.35,.89-.55,.1-1.11-.01-1.57-.33-.46-.31-.79-.81-.88-1.37-.09-.54-.62-.91-1.16-.82-.2,.03-.38,.12-.52,.26-.81,.8-2.12,.8-2.93,0-.39-.39-.61-.92-.6-1.47,.01-.29-.08-.54-.26-.74-.18-.2-.43-.31-.7-.32-.19,0-.4,.04-.58,.15-.96,.63-2.26,.35-2.89-.61-.33-.52-.42-1.11-.29-1.67,.06-.26,.02-.53-.12-.76-.14-.23-.36-.39-.62-.46-.19-.05-.39-.04-.58,.03-1.07,.39-2.28-.17-2.67-1.25-.22-.5-.22-1.09,.01-1.62,.25-.52,.04-1.11-.46-1.35-.18-.09-.38-.12-.58-.1-.53,.1-1.08-.02-1.53-.34-.46-.32-.76-.79-.86-1.34-.11-.6,.05-1.22,.44-1.7,.16-.2,.23-.47,.2-.73-.03-.27-.17-.51-.38-.67-.15-.12-.34-.2-.54-.21-1.13-.07-2.01-1.05-1.95-2.19,.04-.58,.32-1.12,.77-1.48,.42-.35,.47-.99,.11-1.41-.13-.15-.3-.27-.5-.32-.53-.15-.98-.5-1.26-.98-.27-.48-.35-1.03-.21-1.56,0-.01,0-.02,0-.04,.16-.54,.53-1.01,1.03-1.28,.24-.13,.42-.33,.5-.59s.06-.52-.07-.76c-.1-.18-.24-.33-.42-.42-1.01-.54-1.41-1.81-.88-2.82,.27-.51,.74-.89,1.29-1.04,.54-.15,.85-.71,.71-1.25-.06-.19-.17-.37-.33-.5-.88-.71-1.02-2.03-.29-2.92,.37-.46,.92-.73,1.5-.77,.54-.05,.95-.54,.9-1.09-.02-.2-.09-.38-.21-.54-.71-.9-.56-2.21,.34-2.93,.47-.37,1.07-.52,1.65-.42,.23,.03,.5-.04,.71-.21,.21-.17,.35-.41,.38-.67,.02-.18,0-.36-.08-.53-.24-.46-.3-1.03-.13-1.56,.17-.53,.53-.97,1.02-1.23,.53-.28,1.17-.32,1.73-.1,.24,.09,.51,.08,.76-.03,.24-.11,.43-.31,.52-.56,.07-.19,.08-.4,.03-.6-.28-1.12,.36-2.23,1.46-2.54,.57-.15,1.16-.05,1.64,.26,.47,.29,1.11,.15,1.41-.32,0,0,0,0,0,0h0c.11-.18,.16-.38,.15-.58-.03-1.15,.87-2.12,2.02-2.15,.56-.02,1.1,.21,1.49,.61,.39,.38,1.01,.38,1.4,0,.13-.14,.23-.32,.27-.53,.19-1.13,1.27-1.9,2.41-1.7,.57,.1,1.05,.42,1.38,.89,.15,.23,.38,.38,.65,.43,.27,.05,.53,0,.76-.15,.17-.11,.29-.27,.37-.46,.2-.51,.6-.92,1.11-1.14,.51-.22,1.08-.23,1.6-.02,.49,.16,.91,.52,1.17,.99,0,.02,.02,.04,.03,.05,.21,.52,.8,.76,1.32,.55,.18-.08,.34-.2,.46-.37,.65-.96,1.95-1.21,2.91-.56,.46,.31,.78,.81,.88,1.36,.1,.55,.62,.92,1.17,.83,.19-.03,.38-.13,.52-.27,.85-.81,2.19-.77,2.99,.07,.38,.41,.59,.94,.58,1.5-.02,.56,.41,1.03,.97,1.05,.2,.01,.4-.04,.57-.15,.45-.3,1.01-.4,1.56-.29,.55,.11,1.02,.43,1.32,.9,.34,.52,.43,1.12,.29,1.67-.14,.54,.18,1.08,.71,1.23,.18,.05,.39,.04,.57-.04,1.08-.42,2.29,.12,2.71,1.2,.22,.56,.18,1.19-.1,1.73-.23,.48-.02,1.09,.48,1.33,.18,.08,.38,.12,.58,.09,.52-.09,1.07,.03,1.53,.35s.76,.8,.85,1.34c.1,.59-.05,1.2-.43,1.67-.33,.43-.25,1.06,.18,1.41,.15,.12,.35,.19,.56,.21,.54,.03,1.05,.28,1.42,.7,.37,.42,.55,.95,.52,1.51-.03,.59-.31,1.12-.75,1.49-.41,.35-.46,.98-.12,1.41,.12,.15,.3,.26,.5,.32,.53,.15,.98,.49,1.26,.98,.28,.49,.35,1.05,.2,1.59-.17,.56-.53,1.01-1.03,1.29-.5,.26-.69,.87-.44,1.35,.09,.18,.24,.33,.43,.43,.5,.26,.86,.7,1.02,1.24,.16,.53,.11,1.1-.15,1.59-.27,.5-.73,.88-1.28,1.04-.54,.15-.85,.71-.7,1.25,.06,.19,.17,.37,.32,.5,.88,.72,1.02,2.04,.29,2.92-.36,.45-.9,.73-1.47,.76-.26,.02-.5,.15-.67,.35-.17,.21-.26,.47-.23,.74,.02,.2,.09,.38,.21,.54,.35,.43,.5,.97,.44,1.52-.06,.54-.32,1.04-.75,1.38,0,0-.02,.02-.03,.03-.46,.36-1.07,.52-1.65,.42-.54-.07-1.04,.31-1.12,.86-.03,.19,0,.39,.09,.57,.5,1.04,.07,2.29-.97,2.8-.51,.25-1.11,.28-1.63,.09-.53-.19-1.1,.07-1.29,.58-.06,.17-.06,.38,0,.57,.29,1.15-.39,2.29-1.5,2.58-.56,.14-1.15,.04-1.63-.26-.23-.15-.5-.21-.76-.15-.26,.05-.49,.21-.63,.43-.14,.22-.19,.42-.18,.62,.03,1.16-.87,2.13-2.02,2.17-.57,0-1.09-.22-1.48-.6-.39-.39-1.02-.39-1.41,0-.13,.14-.22,.32-.26,.52-.19,1.13-1.28,1.9-2.41,1.71-.57-.1-1.05-.42-1.38-.89-.15-.24-.38-.39-.64-.44-.26-.05-.53,0-.75,.14-.21,.13-.33,.29-.4,.47-.33,.82-1.13,1.32-1.96,1.32Zm-2.85-3.03c.28,0,.56,.06,.82,.17,.51,.22,.9,.63,1.1,1.14,.11,.25,.31,.46,.57,.57,.5,.19,1.1-.06,1.3-.57,.15-.39,.42-.73,.79-.96,.5-.33,1.06-.43,1.6-.32,.54,.12,1.01,.43,1.32,.9,.15,.22,.39,.37,.67,.42,.53,.09,1.06-.28,1.16-.83,.07-.42,.27-.79,.55-1.1,.82-.81,2.14-.81,2.94-.01,.19,.18,.44,.28,.71,.29,.53-.02,.97-.49,.95-1.05-.02-.42,.09-.84,.32-1.2,.34-.52,.81-.84,1.36-.95,.54-.11,1.1,0,1.56,.3,.22,.14,.51,.19,.78,.12,.54-.14,.87-.69,.73-1.23-.12-.37-.12-.82,0-1.22,.41-1.11,1.62-1.65,2.69-1.25,.25,.09,.54,.08,.79-.04,.5-.24,.71-.85,.46-1.35-.18-.37-.25-.78-.19-1.19,.16-1.14,1.21-1.94,2.36-1.79,.29,.05,.58-.02,.8-.19,0,0,0,0,.01-.01,.21-.17,.34-.4,.37-.67,.03-.26-.05-.52-.21-.73-.26-.33-.41-.71-.45-1.12-.05-.56,.12-1.1,.48-1.53,.36-.43,.87-.69,1.42-.74,.28-.02,.54-.15,.71-.36,.35-.43,.29-1.06-.14-1.41-.33-.27-.56-.63-.67-1.04-.15-.54-.09-1.1,.19-1.59,.27-.49,.72-.84,1.26-.99,.26-.08,.49-.26,.62-.5,.13-.24,.15-.51,.07-.77-.08-.26-.25-.47-.49-.59-.38-.2-.69-.5-.88-.88-.53-1.02-.13-2.28,.89-2.81,.24-.13,.42-.36,.5-.63,.07-.25,.03-.52-.1-.75-.13-.23-.35-.4-.61-.47-.41-.12-.77-.35-1.04-.67-.72-.9-.61-2.18,.25-2.93,.22-.18,.35-.44,.37-.71,.02-.29-.07-.54-.25-.74-.18-.2-.42-.32-.69-.33-.43-.03-.82-.18-1.15-.44-.9-.72-1.05-2.03-.36-2.93,.19-.23,.26-.52,.21-.81-.1-.54-.61-.9-1.15-.81-.43,.05-.83-.01-1.2-.18-1.05-.51-1.49-1.76-.99-2.8,.15-.28,.16-.58,.06-.85-.2-.52-.79-.78-1.3-.58-.39,.16-.84,.18-1.25,.07-1.11-.32-1.75-1.43-1.47-2.55,.07-.26,.02-.55-.12-.77-.17-.26-.39-.41-.66-.46-.26-.06-.53,0-.76,.14-.37,.23-.79,.34-1.19,.32-1.16-.04-2.06-1.02-2.02-2.17,0-.26-.09-.52-.28-.72-.39-.41-1.03-.43-1.44-.04-.29,.29-.67,.49-1.09,.56-1.14,.18-2.22-.58-2.42-1.71-.05-.26-.2-.5-.42-.65-.46-.31-1.09-.19-1.4,.27-.23,.34-.56,.61-.94,.77-1.06,.43-2.27-.07-2.71-1.12-.13-.22-.33-.39-.57-.47-.28-.11-.55-.11-.8,0-.25,.11-.44,.3-.54,.55-.16,.39-.42,.72-.77,.95-.46,.31-1.02,.43-1.57,.32-.55-.11-1.02-.42-1.34-.89-.16-.22-.39-.38-.67-.43-.54-.09-1.06,.28-1.16,.83-.08,.42-.28,.8-.57,1.1-.82,.8-2.13,.8-2.94,0-.19-.19-.41-.3-.7-.29-.54,.02-.98,.48-.96,1.04,.01,.41-.09,.81-.3,1.16,0,0,0,.01-.01,.02-.62,.99-1.93,1.29-2.92,.67-.23-.15-.52-.2-.78-.13-.51,.14-.83,.69-.7,1.22,.11,.41,.09,.85-.06,1.25-.19,.52-.58,.94-1.09,1.17-.51,.23-1.07,.25-1.59,.06-.28-.1-.58-.09-.84,.05-.24,.13-.41,.34-.49,.59-.08,.26-.05,.53,.07,.77,.17,.38,.23,.76,.18,1.14-.07,.55-.35,1.05-.79,1.39-.44,.34-.99,.5-1.54,.43-.3-.05-.59,.02-.81,.19-.43,.34-.5,.97-.16,1.41,.25,.32,.41,.71,.44,1.11,.1,1.15-.76,2.17-1.91,2.27-.3,.02-.56,.15-.74,.37-.35,.43-.28,1.06,.15,1.4,.33,.28,.56,.63,.68,1.03,.31,1.13-.35,2.29-1.46,2.6-.27,.07-.49,.25-.62,.5-.25,.49-.06,1.1,.43,1.37,.38,.19,.68,.5,.88,.88,.26,.49,.31,1.06,.14,1.59s-.53,.96-1.03,1.22c-.23,.12-.41,.35-.49,.6,0,0,0,.01,0,.02-.07,.26-.04,.53,.1,.77,.13,.23,.35,.4,.61,.47,.41,.12,.76,.35,1.03,.67,.74,.88,.63,2.21-.25,2.95-.22,.18-.35,.43-.37,.71-.03,.54,.4,1.02,.95,1.05,.42,.04,.81,.19,1.13,.44,.44,.35,.72,.84,.78,1.4,.07,.56-.09,1.1-.43,1.54-.19,.24-.27,.53-.22,.82,.05,.26,.19,.49,.41,.64,.22,.15,.49,.21,.75,.16,.43-.06,.84,0,1.21,.19,1.04,.5,1.48,1.75,.98,2.78-.1,.23-.1,.51,0,.76,.2,.55,.78,.82,1.3,.63,.39-.14,.81-.16,1.21-.06,.54,.13,1,.47,1.29,.95s.37,1.04,.24,1.58c-.07,.27-.02,.55,.13,.79,.32,.49,.95,.63,1.41,.32,.37-.23,.79-.34,1.21-.32,.56,.02,1.08,.26,1.46,.67,.38,.41,.57,.95,.55,1.5,0,.24,.1,.5,.28,.68,.39,.38,1.02,.38,1.41,0,.3-.3,.69-.49,1.11-.56,1.13-.19,2.21,.57,2.41,1.7,.05,.27,.2,.51,.42,.66,.22,.15,.49,.21,.76,.16,.26-.05,.49-.2,.65-.42,.23-.35,.57-.62,.97-.78,.26-.1,.52-.15,.78-.15Z" fill="#002346"></path>
  </g>
  <g>
    <circle cx="611.48" cy="401.15" r="24" fill="#fff"></circle>
    <path d="M611.48,425.66c-13.51,0-24.5-10.99-24.5-24.5s10.99-24.5,24.5-24.5,24.5,10.99,24.5,24.5-10.99,24.5-24.5,24.5Zm0-48c-12.96,0-23.5,10.54-23.5,23.5s10.54,23.5,23.5,23.5,23.5-10.54,23.5-23.5-10.54-23.5-23.5-23.5Z" fill="#002346"></path>
  </g>
  <path d="M611.47,423.47c-12.33,0-22.33-10-22.33-22.33s10-22.33,22.33-22.33c12.33,0,22.33,10,22.33,22.33h0c0,12.33-9.98,22.32-22.3,22.33h-.03Zm0-44.09c-12.03,0-21.78,9.75-21.78,21.78,0,12.03,9.75,21.78,21.78,21.78s21.78-9.75,21.78-21.78h0c-.01-12.03-9.76-21.77-21.78-21.78Z" fill="#002346"></path>
  <g>
    <polygon points="609.01 414.52 595.85 401.36 601.24 395.96 609.01 403.71 633.72 379.01 639.11 384.41 609.01 414.52" fill="#1330be"></polygon>
    <path d="M609.01,415.06c-.14,0-.28-.06-.38-.16l-13.16-13.16c-.21-.21-.21-.55,0-.77l5.39-5.4c.1-.1,.24-.16,.38-.16h0c.14,0,.28,.06,.38,.16l7.38,7.37,24.32-24.32c.1-.1,.24-.16,.38-.16h0c.14,0,.28,.06,.38,.16l5.39,5.4c.21,.21,.21,.55,0,.77l-30.1,30.11c-.1,.1-.24,.16-.38,.16Zm-12.39-13.7l12.39,12.39,29.33-29.34-4.62-4.63-24.32,24.32c-.21,.21-.56,.21-.77,0l-7.38-7.37-4.62,4.63Z" fill="#002346"></path>
  </g>
  <g>
    <path d="M599.02,325.69s-11.81-12.11-1.53-12.11c.28,0,10.25-1.08,16.84-1.81,3.95-.45,7.79,1.49,9.76,4.93,.29,.52,.56,1.04,.82,1.57,3.95,7.97,4.82,17.12,2.93,25.81-1.04,4.76-2.66,10.84-4.76,14.66-1.2,2.18-3.51,3.52-6,3.58-8.21,.22-30.68-.17-19.19-11.66,0,0-14.67-6.41-1.53-13.64,0,0-2.5-.92-4.69-2.45-2.76-1.93-2.48-6.08,.57-7.51,1.49-.7,3.66-1.23,6.79-1.37Z" fill="#f2b3c1"></path>
    <path d="M614.2,362.87c-7.58,0-17.86-.83-19.72-5.16-.81-1.89,.05-4.21,2.56-6.88-1.76-.88-6.48-3.59-6.65-7.28-.1-2.27,1.52-4.43,4.83-6.44-.95-.41-2.45-1.14-3.85-2.12-1.47-1.02-2.25-2.68-2.1-4.45,.15-1.72,1.17-3.19,2.75-3.92,1.51-.71,3.5-1.16,5.91-1.35-1.85-2.04-6.17-7.25-4.92-10.21,.55-1.31,2.06-1.97,4.48-1.97,.38-.02,9.02-.95,16.79-1.81,4.14-.48,8.17,1.56,10.25,5.18,.29,.53,.57,1.06,.84,1.6,3.88,7.83,4.94,17.12,2.97,26.14-1,4.58-2.65,10.87-4.81,14.8-1.27,2.3-3.73,3.77-6.43,3.84-.9,.02-1.87,.04-2.89,.04Zm1.27-50.67c-.36,0-.72,.02-1.08,.06-.17,.02-16.47,1.81-16.9,1.81-1.98,0-3.18,.46-3.56,1.36-1.04,2.47,3.58,7.99,5.44,9.9l.78,.8-1.11,.05c-2.77,.13-4.99,.57-6.6,1.33-1.25,.58-2.06,1.74-2.17,3.1-.12,1.4,.51,2.72,1.68,3.54,2.12,1.48,4.56,2.38,4.58,2.39l1.03,.38-.96,.53c-3.55,1.95-5.3,3.98-5.21,6.03,.17,3.82,6.63,6.69,6.7,6.72l.67,.29-.52,.52c-2.57,2.57-3.53,4.69-2.84,6.29,1.36,3.15,9.46,4.84,21.67,4.52,2.35-.06,4.48-1.34,5.58-3.32,2.11-3.82,3.72-10.01,4.71-14.53,1.92-8.81,.9-17.86-2.89-25.48-.26-.52-.53-1.04-.81-1.55-1.69-2.95-4.83-4.74-8.19-4.74Z" fill="#002346"></path>
  </g>
  <polygon points="609.22 549.46 598.19 548.92 598.2 548.65 609.23 549.19 609.22 549.46" fill="red"></polygon>
  <g>
    <polygon points="509.24 517.09 509.24 537.19 634.84 544.01 634.18 514.66 509.24 517.09" fill="#f7f5ed"></polygon>
    <path d="M635.4,544.58l-.58-.03-126.11-6.85v-21.14h.53s125.48-2.45,125.48-2.45l.69,30.47Zm-125.62-7.91l124.5,6.76-.64-28.22-123.87,2.41v19.05Z" fill="#002346"></path>
  </g>
  <g>
    <path d="M501.11,544.02l133.74,6.56v-6.56l-125.6-6.82-8.15,6.77s-.01,.06,.02,.06Z" fill="#fff"></path>
    <path d="M635.34,551.1l-.52-.03-134.07-6.57-.25-.67,.28-.26,8.31-6.89h.2s126.07,6.86,126.07,6.86v7.56Zm-133.01-7.52l132.01,6.47v-5.56l-124.93-6.79-7.08,5.88Z" fill="#002346"></path>
  </g>
  <g>
    <polygon points="501.02 544.01 502.57 560.96 634.18 570.41 634.84 550.57 501.02 544.01" fill="#e6e7e8"></polygon>
    <path d="M634.71,570.99l-.56-.04-132.07-9.48-1.65-18.03,.62,.03,134.36,6.59-.7,20.93Zm-131.64-10.54l130.59,9.37,.62-18.74-132.67-6.5,1.45,15.87Z" fill="#002346"></path>
  </g>
  <g>
    <path d="M470.65,491.48l89.21,13.9,78.21-10.85-41.59-10.85-125.81,7.72s-.05,.07-.02,.07Z" fill="#1330be"></path>
    <path d="M559.87,505.92s-.06,0-.08,0l-89.21-13.9h0c-.18-.03-.34-.15-.42-.31-.09-.19-.03-.48,.11-.64,.1-.12,.23-.19,.38-.19l125.81-7.72c.06,0,.12,0,.17,.02l41.59,10.84c.25,.07,.42,.3,.4,.56-.01,.26-.21,.47-.47,.5l-78.21,10.85s-.05,0-.07,0Zm-84.48-14.26l84.48,13.17,75.43-10.46-38.87-10.13-121.04,7.43Z" fill="#002346"></path>
  </g>
  <g>
    <polygon points="558.32 525.5 467.99 510.02 470.65 491.48 559.86 505.38 558.32 525.5" fill="#fff"></polygon>
    <path d="M558.77,526.08l-91.35-15.65,2.81-19.53,90.16,14.05-1.62,21.13Zm-90.22-16.47l89.31,15.3,1.46-19.11-88.25-13.75-2.53,17.56Z" fill="#002346"></path>
  </g>
  <g>
    <path d="M465.63,455.99l36.94,27.71,124.93-7.44s.02-.02,0-.02l-35.13-23.5-126.69,3.08c-.09,0-.13,.12-.05,.17Z" fill="#e6e7e8"></path>
    <path d="M502.41,484.25l-.16-.12-36.94-27.71c-.22-.16-.31-.45-.22-.7,.08-.26,.32-.44,.59-.44l126.86-3.09,.14,.09,35.46,23.72-.21,.79h-.42s-125.1,7.46-125.1,7.46Zm-35.42-27.92l35.75,26.82,123.17-7.33-33.68-22.53-125.23,3.05Zm-1.29,.03h0Zm.25-.8h0s0,0,0,0h0Z" fill="#002346"></path>
  </g>
  <g>
    <path d="M463.86,471.31s36.71,27.92,37.93,29.53c.01,.02,.04,0,.04-.01,.08-1.29,.78-17.13,.78-17.13l-36.89-27.67c-.12-.09-.28-.01-.3,.13l-1.56,15.16Z" fill="#fff"></path>
    <path d="M501.64,501.43l-.23-.27c-.88-1.16-23.11-18.24-37.84-29.45l-.22-.17,1.59-15.44c.02-.25,.18-.46,.41-.56,.23-.1,.49-.07,.69,.08l37.1,27.83v.26c-.04,.65-.72,15.86-.8,17.14l-.02,.35-.67,.22Zm-37.25-30.34c4.32,3.29,31.82,24.23,36.99,28.7,.17-3.44,.64-14.03,.72-15.84l-36.24-27.18-1.47,14.33Zm1.53-14.88h0s0,0,0,0Z" fill="#002346"></path>
  </g>
  <g>
    <path d="M501.8,500.54l.78-16.84,124.97-7.44v17.67l-125.4,6.95c-.19,.01-.35-.15-.34-.34Z" fill="#e6e7e8"></path>
    <path d="M502.12,501.42c-.23,0-.45-.09-.61-.25-.17-.17-.27-.41-.26-.66h0s.8-17.33,.8-17.33l.49-.03,125.55-7.47v18.75l-125.92,6.98s-.03,0-.05,0Zm.97-17.21l-.74,16.11,124.65-6.91v-16.58l-123.91,7.38Z" fill="#002346"></path>
  </g>
  <g>
    <polygon points="559.86 505.38 558.32 525.5 634.18 514.66 638.08 494.53 559.86 505.38" fill="#1330be"></polygon>
    <path d="M558.32,526.04c-.14,0-.27-.05-.37-.15-.12-.11-.18-.27-.17-.44l1.54-20.12c.02-.25,.21-.46,.47-.5l78.22-10.85c.17-.03,.35,.04,.47,.16,.12,.13,.17,.3,.14,.48l-3.89,20.13c-.04,.23-.23,.4-.46,.43l-75.86,10.83s-.05,0-.08,0Zm2.05-20.18l-1.46,19.01,74.81-10.68,3.68-19.01-77.03,10.68Z" fill="#002346"></path>
  </g>
  <g>
    <ellipse cx="650.28" cy="546.8" rx="54.36" ry="52.25" fill="#1330be"></ellipse>
    <path d="M650.28,599.61c-30.29,0-54.93-23.69-54.93-52.82s24.64-52.82,54.93-52.82,54.93,23.69,54.93,52.82-24.64,52.82-54.93,52.82Zm0-104.51c-29.67,0-53.8,23.19-53.8,51.69s24.14,51.69,53.8,51.69,53.8-23.19,53.8-51.69-24.14-51.69-53.8-51.69Z" fill="#002346"></path>
  </g>
  <path d="M618.95,505.84c-.32,0-.61-.2-.72-.5-.11-.28-2.59-7.01-1.08-23.26,0-.66-.33-18.33,8.09-20.79l.89-.26c7.71-2.28,17.35-5.1,38.35-2.09,.38,.08,7.96,1.85,7.4,15.51l1.01,19.28c0,.27-.42,3.55-1.71,5.17-.31,.3-.8,.3-1.1,0-.26-.26-.3-.66-.11-.96,.76-1.31,1.24-2.76,1.39-4.26l-1.01-19.22c.5-12.34-5.86-13.94-6.13-13.99-20.61-2.95-30.07-.18-37.64,2.05l-.89,.26c-7.28,2.17-6.98,19.2-6.97,19.36-1.52,15.99,.92,22.59,.94,22.66,.15,.4-.04,.84-.44,1,0,0,0,0,0,0-.08,.03-.16,.05-.25,.05Z" fill="#002346"></path>
  <g>
    <path d="M608.49,488.99l-2.9-7.1c-.32-.79,.06-1.7,.85-2.03l3.15-1.28c.79-.32,1.7,.06,2.03,.85l2.78,6.67-5.9,2.9Z" fill="#fff"></path>
    <path d="M608.23,489.68l-3.1-7.6c-.42-1.04,.08-2.25,1.12-2.68l3.15-1.28c1.04-.43,2.24,.08,2.68,1.12l2.96,7.1-6.8,3.34Zm1.94-10.71c-.13,0-.27,.03-.4,.08l-3.15,1.28c-.53,.22-.79,.84-.57,1.38l2.69,6.61,5-2.45-2.6-6.24c-.17-.41-.57-.65-.98-.65Z" fill="#002346"></path>
  </g>
  <g>
    <path d="M621.03,509.24c-.6,0-1.15-.34-1.4-.89l-4.59-9.76c-.36-.77-.03-1.69,.74-2.06s1.69-.03,2.06,.74l4.59,9.76c.36,.78,.03,1.7-.75,2.06-.2,.09-.43,.14-.65,.14Z" fill="#fff"></path>
    <path d="M621.02,509.74c-.79,0-1.51-.46-1.84-1.18l-4.59-9.76c-.23-.5-.26-1.05-.07-1.56s.56-.92,1.06-1.16c1.02-.48,2.24-.04,2.72,.98l4.59,9.76c.48,1.03,.04,2.25-.99,2.73-.27,.12-.56,.19-.86,.19,0,0-.01,0-.02,0Zm-4.58-12.85c-.15,0-.3,.03-.44,.1-.25,.12-.44,.33-.54,.59-.09,.26-.08,.55,.04,.8l4.59,9.76c.17,.37,.54,.6,.94,.6h.02c.15,0,.3-.03,.43-.1,.52-.24,.75-.87,.51-1.39l-4.59-9.76c-.18-.38-.56-.6-.95-.6Z" fill="#002346"></path>
  </g>
  <g>
    <path d="M600.29,505.3l33.72-15.4c-1.6-4.06-5.25-6.96-9.58-7.59-2.82-.35-5.67,.22-8.14,1.62l-8.87,3.74c-5.43,2.22-8.79,7.69-8.32,13.54,0,.34,.09,.68,.15,1.08l1.04,3.02Z" fill="#1330be"></path>
    <path d="M600.29,505.87c-.08,0-.15-.02-.22-.05-.14-.06-.26-.18-.31-.33l-1.04-3.01-.08-.4c-.05-.29-.1-.57-.1-.87-.49-6.07,2.99-11.74,8.67-14.05l8.87-3.74c2.5-1.42,5.51-2.02,8.43-1.66,4.52,.66,8.36,3.71,10.03,7.94,.11,.28-.02,.59-.29,.72l-33.72,15.4c-.07,.03-.15,.05-.23,.05Zm22.53-23.09c-2.18,0-4.35,.57-6.26,1.64l-8.93,3.77c-5.23,2.14-8.43,7.35-7.98,12.97,0,.24,.04,.46,.09,.71l.06,.33,.81,2.34,32.66-14.92c-1.62-3.61-4.99-6.18-8.93-6.75-.51-.06-1.02-.09-1.53-.09Z" fill="#002346"></path>
  </g>
  <g>
    <ellipse cx="645.41" cy="546.41" rx="49.93" ry="48.77" fill="#f7f5ed"></ellipse>
    <path d="M645.41,595.72c-27.83,0-50.47-22.12-50.47-49.31s22.64-49.31,50.47-49.31,50.47,22.12,50.47,49.31-22.64,49.31-50.47,49.31Zm0-97.54c-27.23,0-49.39,21.64-49.39,48.23s22.16,48.23,49.39,48.23,49.39-21.64,49.39-48.23-22.16-48.23-49.39-48.23Z" fill="#002346"></path>
  </g>
  <g>
    <ellipse cx="646.49" cy="547.49" rx="44.39" ry="43.35" fill="#fff"></ellipse>
    <path d="M646.49,591.34c-24.75,0-44.89-19.67-44.89-43.85s20.14-43.85,44.89-43.85,44.89,19.67,44.89,43.85-20.14,43.85-44.89,43.85Zm0-86.7c-24.2,0-43.89,19.22-43.89,42.85s19.69,42.85,43.89,42.85,43.89-19.22,43.89-42.85-19.69-42.85-43.89-42.85Z" fill="#002346"></path>
  </g>
  <circle cx="646.57" cy="544.09" r="3.87" fill="#002346"></circle>
  <path d="M634.01,567.31c-.14,0-.28-.04-.4-.11-.37-.22-.49-.7-.27-1.07,0,0,0,0,0-.01l13.58-22.66c.08-.13,.2-.24,.35-.3l26.52-11.64c.39-.17,.85,0,1.02,.39s0,.85-.39,1.02l-26.29,11.56-13.46,22.44c-.14,.24-.39,.38-.66,.38Z" fill="#002346"></path>
  <path d="M666.75,518.54c-.19,0-.37-.06-.51-.18-.32-.28-.36-.76-.09-1.08l6.51-7.74c.27-.33,.76-.37,1.08-.1,.32,.28,.36,.76,.1,1.08l-6.51,7.74c-.14,.17-.36,.28-.59,.28Z" fill="#1330be"></path>
  <path d="M650.22,512.16c-.43,0-.77-.34-.77-.77h0v-10.49c0-.43,.34-.77,.77-.77,.43,0,.77,.34,.77,.77h0v10.5c0,.43-.34,.77-.77,.77Z" fill="#1330be"></path>
  <path d="M610.28,575.2c-.2,0-.4-.08-.54-.22-.3-.3-.3-.78,0-1.08l7.59-7.9c.27-.33,.76-.37,1.08-.1,.33,.27,.37,.76,.1,1.08-.03,.04-.06,.07-.1,.1l-7.59,7.9c-.14,.14-.34,.22-.54,.22Z" fill="#1330be"></path>
  <path d="M680.06,578.77c-.22,0-.43-.1-.57-.26l-6.77-7.52c-.3-.32-.28-.82,.03-1.12,.32-.3,.82-.28,1.12,.03l6.77,7.52c.29,.31,.27,.8-.05,1.09-.14,.13-.33,.2-.53,.2v.05Z" fill="#1330be"></path>
  <path d="M678.31,531.7c-.43-.01-.77-.37-.76-.8,0-.35,.25-.66,.6-.74l11.49-2.55c.42-.09,.83,.17,.92,.59,.09,.42-.17,.83-.59,.92l-11.47,2.56-.17,.02Z" fill="#1330be"></path>
  <path d="M692.25,553.37h-.14l-11.16-2.02c-.41-.12-.65-.55-.53-.97,.1-.35,.44-.59,.8-.56l11.17,2.03c.42,.08,.69,.48,.62,.9-.07,.36-.39,.62-.76,.62Z" fill="#1330be"></path>
  <path d="M610.19,548.73h-.14l-11.17-2.03c-.42-.08-.7-.48-.62-.9s.48-.7,.9-.62l11.12,2.01c.42,.1,.68,.52,.58,.94-.08,.34-.37,.58-.71,.6h.04Z" fill="#1330be"></path>
  <path d="M613.75,530.42c-.16,0-.31-.05-.44-.14l-9.03-6.32c-.35-.23-.45-.7-.22-1.05,0-.01,.02-.02,.02-.03,.24-.35,.72-.44,1.07-.21,0,0,.01,0,.02,.01l9.05,6.32c.35,.24,.45,.71,.21,1.07-.15,.22-.39,.35-.66,.34h-.01Z" fill="#1330be"></path>
  <path d="M628.77,590.54c-.12,0-.24-.03-.35-.09-.39-.18-.56-.63-.38-1.02,0-.02,.02-.04,.03-.06l4.64-9.28c.23-.36,.72-.47,1.08-.23,.31,.2,.43,.58,.31,.93l-4.65,9.28c-.11,.28-.38,.47-.68,.48Z" fill="#1330be"></path>
  <path d="M656.77,591.79c-.43,0-.77-.33-.78-.76,0,0,0,0,0-.01v-10.55c-.05-.43,.26-.82,.68-.87s.82,.26,.87,.68c0,.06,0,.12,0,.18v10.55c0,.43-.34,.77-.77,.77h0Z" fill="#1330be"></path>
  <path d="M628.77,516.21c-.23,0-.45-.1-.6-.28l-6.6-7.99c-.26-.33-.22-.81,.11-1.08,.32-.27,.8-.23,1.07,.09,0,0,0,.01,.01,.02l6.6,7.99c.26,.33,.21,.81-.11,1.08-.14,.11-.31,.18-.49,.17Z" fill="#1330be"></path>
  <g>
    <path d="M666.75,518.54c-.19,0-.37-.06-.51-.18-.32-.28-.36-.76-.09-1.08l6.51-7.74c.27-.33,.76-.37,1.08-.1,.32,.28,.36,.76,.1,1.08l-6.51,7.74c-.14,.17-.36,.28-.59,.28Z" fill="#002346"></path>
    <path d="M650.22,512.16c-.43,0-.77-.34-.77-.77h0v-10.49c0-.43,.34-.77,.77-.77,.43,0,.77,.34,.77,.77h0v10.5c0,.43-.34,.77-.77,.77Z" fill="#002346"></path>
    <path d="M610.28,575.2c-.2,0-.4-.08-.54-.22-.3-.3-.3-.78,0-1.08l7.59-7.9c.27-.33,.76-.37,1.08-.1,.33,.27,.37,.76,.1,1.08-.03,.04-.06,.07-.1,.1l-7.59,7.9c-.14,.14-.34,.22-.54,.22Z" fill="#002346"></path>
    <path d="M680.06,578.77c-.22,0-.43-.1-.57-.26l-6.77-7.52c-.3-.32-.28-.82,.03-1.12,.32-.3,.82-.28,1.12,.03l6.77,7.52c.29,.31,.27,.8-.05,1.09-.14,.13-.33,.2-.53,.2v.05Z" fill="#002346"></path>
    <path d="M678.31,531.7c-.43-.01-.77-.37-.76-.8,0-.35,.25-.66,.6-.74l11.49-2.55c.42-.09,.83,.17,.92,.59,.09,.42-.17,.83-.59,.92l-11.47,2.56-.17,.02Z" fill="#002346"></path>
    <path d="M692.25,553.37h-.14l-11.16-2.02c-.41-.12-.65-.55-.53-.97,.1-.35,.44-.59,.8-.56l11.17,2.03c.42,.08,.69,.48,.62,.9-.07,.36-.39,.62-.76,.62Z" fill="#002346"></path>
    <path d="M610.19,548.73h-.14l-11.17-2.03c-.42-.08-.7-.48-.62-.9s.48-.7,.9-.62l11.12,2.01c.42,.1,.68,.52,.58,.94-.08,.34-.37,.58-.71,.6h.04Z" fill="#002346"></path>
    <path d="M613.75,530.42c-.16,0-.31-.05-.44-.14l-9.03-6.32c-.35-.23-.45-.7-.22-1.05,0-.01,.02-.02,.02-.03,.24-.35,.72-.44,1.07-.21,0,0,.01,0,.02,.01l9.05,6.32c.35,.24,.45,.71,.21,1.07-.15,.22-.39,.35-.66,.34h-.01Z" fill="#002346"></path>
    <path d="M628.77,590.54c-.12,0-.24-.03-.35-.09-.39-.18-.56-.63-.38-1.02,0-.02,.02-.04,.03-.06l4.64-9.28c.23-.36,.72-.47,1.08-.23,.31,.2,.43,.58,.31,.93l-4.65,9.28c-.11,.28-.38,.47-.68,.48Z" fill="#002346"></path>
    <path d="M656.77,591.79c-.43,0-.77-.33-.78-.76,0,0,0,0,0-.01v-10.55c-.05-.43,.26-.82,.68-.87s.82,.26,.87,.68c0,.06,0,.12,0,.18v10.55c0,.43-.34,.77-.77,.77h0Z" fill="#002346"></path>
    <path d="M628.77,516.21c-.23,0-.45-.1-.6-.28l-6.6-7.99c-.26-.33-.22-.81,.11-1.08,.32-.27,.8-.23,1.07,.09,0,0,0,.01,.01,.02l6.6,7.99c.26,.33,.21,.81-.11,1.08-.14,.11-.31,.18-.49,.17Z" fill="#002346"></path>
  </g>
  <g>
    <path d="M670.57,501.51c-.23,0-.45-.06-.65-.15-.77-.36-1.1-1.28-.75-2.05l3.52-7.59c.36-.78,1.28-1.12,2.06-.76,0,0,0,0,0,0,.77,.35,1.11,1.27,.76,2.04,0,0,0,.01,0,.02l-3.52,7.59c-.25,.55-.8,.9-1.41,.9Z" fill="#fff"></path>
    <path d="M670.57,502.01h-.01c-.3,0-.58-.07-.85-.2-1.01-.48-1.46-1.69-.99-2.71l3.53-7.59c.23-.5,.64-.88,1.15-1.06,.48-.18,.99-.17,1.46,.02l.11,.05c1.02,.47,1.47,1.68,1,2.71l-3.54,7.61c-.33,.72-1.06,1.19-1.86,1.19Zm3.53-10.7c-.12,0-.24,.02-.36,.06-.26,.1-.47,.29-.59,.55l-3.53,7.59c-.24,.52-.01,1.14,.51,1.39,.14,.07,.29,.1,.44,.1,.41,0,.78-.24,.95-.61l3.53-7.59c.24-.53,.02-1.14-.49-1.39h0c-.15-.07-.31-.1-.46-.1Z" fill="#002346"></path>
  </g>
  <g>
    <path d="M658.18,484.47l33.23,16.43c2.16-3.81,2.11-8.48-.13-12.24-1.51-2.41-3.75-4.26-6.4-5.29l-11.59-4.75s-7.03-5.82-13.39,3.11l-1.71,2.74Z" fill="#1330be"></path>
    <path d="M691.41,501.46c-.08,0-.17-.02-.25-.06l-33.23-16.43c-.14-.07-.25-.2-.29-.35s-.02-.32,.06-.45l1.71-2.74c2.19-3.08,4.69-4.81,7.45-5.17,3.54-.46,6.23,1.5,6.71,1.87l11.52,4.72c2.73,1.06,5.1,3.02,6.66,5.51,2.35,3.94,2.4,8.84,.14,12.82-.1,.18-.29,.28-.49,.28Zm-32.43-17.22l32.19,15.92c1.8-3.54,1.67-7.78-.38-11.21-1.43-2.28-3.6-4.08-6.12-5.06l-11.6-4.75c-.05-.02-.1-.05-.14-.09-.03-.02-2.62-2.12-5.93-1.67-2.43,.32-4.66,1.9-6.65,4.68l-1.37,2.19Z" fill="#002346"></path>
  </g>
  <g>
    <rect x="332.46" y="143.37" width="79.61" height="113.37" rx="39.81" ry="39.81" transform="translate(-47.21 148.62) rotate(-21.26)" fill="#f2b3c1"></rect>
    <path d="M378.38,256.12c-5.51,0-11.02-1.15-16.21-3.43-9.86-4.33-17.43-12.25-21.34-22.28l-12.24-31.46c-3.9-10.03-3.67-20.99,.67-30.84,4.33-9.86,12.25-17.43,22.28-21.34,20.72-8.06,44.12,2.23,52.18,22.95l12.24,31.46c8.06,20.71-2.23,44.12-22.95,52.18h0c-4.74,1.85-9.69,2.77-14.63,2.77Zm-12.28-111.1c-4.73,0-9.54,.86-14.21,2.68-9.78,3.81-17.5,11.2-21.72,20.81-4.23,9.61-4.46,20.29-.65,30.07l12.24,31.46c3.81,9.78,11.2,17.5,20.81,21.73s20.29,4.46,30.07,.65c20.2-7.86,30.23-30.68,22.38-50.88l-12.24-31.46c-6.04-15.53-20.93-25.05-36.67-25.05Z" fill="#002346"></path>
  </g>
  <path d="M415.22,178.82s-13.98-1.17-20.96-11.65c0,0-19.46,28.61-36.82,1.89-.06-.08-.17-.11-.26-.05-.05,.03-.08,.09-.08,.15,.22,2.28-.14,8.5-10.61,8.5,0,0,14.24,31.68-6.77,30.77l-7.64,1.09c-.72-1.05-.23-.15-1.09-1.09-7.19-8.02-1.54-11.09-6.55-6.55-.86,.78-.64,12.03-1.09,13.09,0,0-5.59-8.09-10.09-18.45-7.02-16.18-.03-35.03,15.8-42.82l81.5-40.1s20.96-4.66,16.3,20.96c0,0,16.31-2.32,18.64,11.65-.01-.02,4.69,32.6-30.29,32.6Z" fill="#002346"></path>
  <path d="M445.71,129.21c-6.62-.47-13.15,1.77-18.08,6.22l-1.43-1.79c2.35-1.98,3.81-5.06,4.79-7.98,1-3.17,1.59-6.45,1.76-9.77,.22,3.37,0,6.75-.63,10.06-.75,3.45-1.92,6.86-4.46,9.49l-1.48-1.8c5.66-4.11,12.76-5.72,19.64-4.45h-.1Z" fill="#002346"></path>
  <g>
    <polygon points="436.06 87.31 363.12 170.67 251.36 168.36 315.65 83.84 436.06 87.31" fill="#1330be"></polygon>
    <path d="M363.12,171.21h-.01l-111.76-2.31c-.2,0-.39-.12-.48-.31-.09-.18-.07-.4,.06-.56l64.29-84.52c.11-.14,.27-.2,.45-.21l120.41,3.47c.21,0,.4,.13,.48,.33s.05,.42-.09,.57l-72.94,83.36c-.1,.12-.25,.18-.41,.18Zm-110.68-3.37l110.44,2.28,72.01-82.3-118.98-3.43-63.48,83.45Z" fill="#002346"></path>
  </g>
  <g>
    <ellipse cx="331.54" cy="210.06" rx="9.28" ry="12.55" transform="translate(-60.61 193.91) rotate(-30)" fill="#f2b3c1"></ellipse>
    <path d="M334.16,222.39c-1.31,0-2.69-.3-4.07-.9-2.8-1.22-5.3-3.54-7.02-6.54-1.73-3-2.49-6.32-2.15-9.35,.35-3.09,1.8-5.52,4.09-6.84s5.12-1.37,7.97-.12c2.8,1.22,5.3,3.54,7.02,6.54h0c3.6,6.23,2.73,13.5-1.94,16.19-1.18,.68-2.51,1.02-3.9,1.02Zm-5.24-23.65c-1.23,0-2.38,.3-3.4,.89-2,1.16-3.28,3.32-3.59,6.08-.32,2.82,.4,5.92,2.02,8.73,1.62,2.81,3.95,4.98,6.55,6.12,2.55,1.11,5.06,1.09,7.07-.07,4.19-2.42,4.9-9.07,1.57-14.82h0c-1.62-2.81-3.95-4.98-6.55-6.12-1.25-.54-2.49-.82-3.66-.82Z" fill="#002346"></path>
  </g>
  <path d="M334.85,386.33c-.24,0-.45-.16-.52-.39l-22-77.29c-.08-.29,.08-.59,.37-.67,.29-.08,.59,.08,.67,.37l22,77.29c.08,.29-.08,.59-.37,.67-.05,.01-.1,.02-.15,.02Z" fill="#002346"></path>
  <g>
    <path d="M279.54,295.19s18.13-6.22,30.06,7.88" fill="#1330be"></path>
    <path d="M309.59,303.61c-.15,0-.31-.06-.41-.19-11.54-13.64-29.29-7.78-29.47-7.72-.28,.1-.59-.05-.69-.34s.05-.59,.34-.69c.18-.06,18.62-6.18,30.65,8.04,.19,.23,.17,.57-.06,.76-.1,.09-.23,.13-.35,.13Z" fill="#002346"></path>
  </g>
  <path d="M408.36,321.15c-.07,0-.15-.01-.22-.05-.27-.12-.4-.44-.27-.72l3.02-6.8c.9-2.03,2.63-3.56,4.76-4.2l22.35-6.78c.29-.09,.59,.07,.68,.36,.09,.29-.07,.59-.36,.68l-22.35,6.78c-1.82,.55-3.31,1.87-4.08,3.61l-3.02,6.8c-.09,.2-.29,.32-.5,.32Z" fill="#002346"></path>
  <path d="M416.96,325.3c-.1,0-.2-.03-.29-.08-.25-.16-.33-.49-.17-.75l3.37-5.39c1.39-2.22,3.52-3.94,5.99-4.82l14.76-5.28c.28-.1,.59,.05,.69,.33s-.05,.59-.33,.69l-14.76,5.28c-2.24,.8-4.17,2.36-5.43,4.37l-3.37,5.39c-.1,.17-.28,.25-.46,.25Z" fill="#002346"></path>
  <path d="M426.35,332.78c-.09,0-.18-.02-.27-.07-.26-.15-.35-.48-.2-.74l2.26-3.99c.94-1.66,2.34-3,4.05-3.87l10.34-5.26c.27-.13,.59-.03,.73,.24,.14,.27,.03,.59-.24,.73l-10.34,5.26c-1.51,.77-2.76,1.96-3.6,3.44l-2.26,3.99c-.1,.18-.28,.27-.47,.27Z" fill="#002346"></path>
  <g>
    <polyline points="445.09 327.44 437.57 332.35 433.23 338.86" fill="#f2b3c1"></polyline>
    <polygon points="433.65 339.14 432.82 338.58 437.3 331.93 444.82 327.02 445.36 327.86 437.93 332.71 433.65 339.14" fill="#002346"></polygon>
  </g>
  <path d="M549.51,323.13h-58.57c-.3,0-.54-.24-.54-.54s.24-.54,.54-.54h58.57c.3,0,.54,.24,.54,.54s-.24,.54-.54,.54Z" fill="#002346"></path>
  <path d="M572.33,345.55h-103.03c-.3,0-.54-.24-.54-.54s.24-.54,.54-.54h103.03c.3,0,.54,.24,.54,.54s-.24,.54-.54,.54Z" fill="#002346"></path>
  <path d="M615.44,326.23h-16.42c-.3,0-.54-.24-.54-.54s.24-.54,.54-.54h16.42c.3,0,.54,.24,.54,.54s-.24,.54-.54,.54Z" fill="#002346"></path>
  <path d="M616.52,337.08h-20.75c-.3,0-.54-.24-.54-.54s.24-.54,.54-.54h20.75c.3,0,.54,.24,.54,.54s-.24,.54-.54,.54Z" fill="#002346"></path>
  <path d="M617.06,351.21h-19.18c-.3,0-.54-.24-.54-.54s.24-.54,.54-.54h19.18c.3,0,.54,.24,.54,.54s-.24,.54-.54,.54Z" fill="#002346"></path>
  <path d="M498.31,485.82c-.11,0-.23-.04-.33-.11l-30.37-22.78c-.24-.18-.29-.52-.11-.76,.18-.24,.52-.29,.76-.11l30.37,22.78c.24,.18,.29,.52,.11,.76-.11,.14-.27,.22-.43,.22Z" fill="#002346"></path>
  <path d="M498.31,490.15c-.11,0-.23-.04-.33-.11l-30.37-22.78c-.24-.18-.29-.52-.11-.76,.18-.24,.52-.29,.76-.11l30.37,22.78c.24,.18,.29,.52,.11,.76-.11,.14-.27,.22-.43,.22Z" fill="#002346"></path>
  <path d="M497.22,493.41c-.11,0-.23-.04-.33-.11l-30.37-22.78c-.24-.18-.29-.52-.11-.76,.18-.24,.52-.29,.76-.11l30.37,22.78c.24,.18,.29,.52,.11,.76-.11,.14-.27,.22-.43,.22Z" fill="#002346"></path>
  <path d="M551.45,509.68s-.05,0-.07,0l-78.63-10.3c-.3-.04-.51-.31-.47-.61,.04-.3,.32-.51,.61-.47l78.63,10.3c.3,.04,.51,.31,.47,.61-.04,.27-.27,.47-.54,.47Z" fill="#002346"></path>
  <path d="M551.45,514.01s-.05,0-.07,0l-78.63-10.3c-.3-.04-.51-.31-.47-.61,.04-.3,.32-.5,.61-.47l78.63,10.3c.3,.04,.51,.31,.47,.61-.04,.27-.27,.47-.54,.47Z" fill="#002346"></path>
  <path d="M551.45,518.35s-.05,0-.07,0l-78.63-10.3c-.3-.04-.51-.31-.47-.61,.04-.3,.32-.5,.61-.47l78.63,10.3c.3,.04,.51,.31,.47,.61-.04,.27-.27,.47-.54,.47Z" fill="#002346"></path>
  <g>
    <g>
      <path d="M160.21,448.62s18.26-15.35,38.98-.41c0,0,13.01,10.12,4.34,18.8,0,0-9.16,6.27-22.65-4.34,0,0-14.34-11.71-20.67-14.05Z" fill="#7cd295"></path>
      <path d="M196.2,469.29c-4.01,0-9.39-1.34-15.63-6.24-.15-.12-14.36-11.69-20.53-13.97l-.78-.29,.64-.54c.19-.16,18.79-15.42,39.58-.43,.3,.24,7.1,5.59,7.5,12.01,.17,2.76-.87,5.29-3.11,7.52-.09,.07-2.92,1.94-7.67,1.94Zm-35.02-20.8c6.63,2.91,19.44,13.34,20,13.8,13.06,10.26,21.98,4.37,22.07,4.31,1.96-1.97,2.91-4.25,2.75-6.71-.37-5.98-7.05-11.25-7.12-11.3-17.99-12.96-34.28-2.59-37.71-.1Z" fill="#002346"></path>
    </g>
    <g>
      <path d="M140.02,441.12s20.12-28.09,8.07-55.56c0,0-13.5-26.99,2.41-35.18,0,0,19.76-8.19,30.36,20.72,0,0,14.22,42.21-40.85,70.02Z" fill="#7cd295"></path>
      <path d="M138.48,442.45l1.15-1.61c.2-.28,19.82-28.19,8.02-55.09-.13-.25-13.51-27.49,2.63-35.81,.32-.13,7-2.83,14.78,.58,6.95,3.05,12.42,9.91,16.27,20.41,.04,.12,3.56,10.86,.24,24.86-3.06,12.9-12.72,31.31-41.33,45.77l-1.77,.89Zm18.43-92.66c-3.66,0-6.17,1.01-6.21,1.03-15.26,7.86-2.29,34.25-2.16,34.52,10.42,23.75-3.14,48.19-7.09,54.51,26.98-14.14,36.21-31.79,39.17-44.23,3.28-13.74-.17-24.26-.2-24.37-3.75-10.23-9.05-16.9-15.74-19.84-2.82-1.24-5.51-1.62-7.77-1.62Z" fill="#002346"></path>
    </g>
    <g>
      <path d="M88.87,360.16c-5,2.46-8.28,7.53-8.2,13.1,.1,6.96,4.37,16.54,24.53,21.94,0,0,23.65,5.86,26.28,23.41,0,0,6.52-21.75-4.6-42.53-4.26-7.96-11.35-14.11-19.99-16.73-5.43-1.65-11.9-2.21-18.02,.81Z" fill="#7cd295"></path>
      <path d="M131.33,420.83l-.32-2.15c-2.56-17.03-25.69-22.96-25.92-23.01-20.39-5.46-24.8-15.19-24.9-22.4-.08-5.65,3.24-10.97,8.47-13.54h0c5.34-2.63,11.53-2.92,18.38-.84,8.62,2.61,15.82,8.64,20.28,16.97,11.09,20.71,4.7,42.68,4.64,42.9l-.62,2.08Zm-32.94-62.35c-3.34,0-6.45,.7-9.3,2.11h0c-4.89,2.41-8,7.38-7.93,12.66,.1,6.87,4.38,16.18,24.17,21.47,.22,.05,22.04,5.64,26.2,21.66,1.27-5.91,3.85-23.41-5.07-40.07-4.34-8.1-11.34-13.96-19.71-16.5-2.92-.89-5.72-1.33-8.36-1.33Z" fill="#002346"></path>
    </g>
    <g>
      <path d="M87.75,432.42c1.22,2.31,3.46,4.89,7.34,7.6,0,0,15.22,8.82,19.18,21.28,0,0-.38-20.32-11.95-35.74,0,0-1-1.9-3.07-3.38-6.82-4.91-15.4,2.81-11.5,10.24Z" fill="#7cd295"></path>
      <path d="M114.81,464.63l-1.01-3.19c-3.85-12.13-18.81-20.92-18.96-21.01-3.61-2.53-6.13-5.14-7.52-7.79h0c-2.18-4.15-.6-8.22,1.93-10.42,3-2.61,7.04-2.78,10.28-.44,2.13,1.53,3.17,3.47,3.21,3.55,11.49,15.31,12,35.75,12.01,35.96l.06,3.34Zm-20.12-43.51c-1.92,0-3.63,.82-4.81,1.84-2.08,1.8-3.77,5.31-1.71,9.24h0c1.32,2.51,3.74,5.01,7.18,7.43,.54,.31,13.08,7.68,18.19,18.56-.62-6.27-2.96-20.77-11.63-32.33-.05-.08-1.02-1.88-2.96-3.28-1.45-1.04-2.91-1.45-4.27-1.45Z" fill="#002346"></path>
    </g>
    <g>
      <polygon points="106.17 480.51 108.73 530.88 151.47 530.88 154.36 480.99 106.17 480.51" fill="#fff"></polygon>
      <path d="M151.47,531.37h-42.74c-.26,0-.47-.2-.49-.46l-2.56-50.37c0-.13,.04-.26,.14-.36,.09-.1,.21-.15,.36-.15l48.2,.48c.13,0,.26,.06,.35,.15,.09,.1,.14,.23,.13,.36l-2.89,49.89c-.01,.26-.23,.46-.49,.46Zm-42.28-.97h41.82l2.84-48.92-47.17-.47,2.51,49.39Z" fill="#002346"></path>
    </g>
    <path d="M139.43,480.75s-.02,0-.04,0c-.27-.02-.47-.25-.45-.52,.01-.2,1.67-20.08,15.34-29.34,8.1-5.48,18.72-6.22,31.56-2.18,.26,.08,.4,.35,.32,.61s-.35,.4-.61,.32c-12.54-3.95-22.88-3.26-30.71,2.05-13.28,8.99-14.91,28.42-14.92,28.61-.02,.25-.23,.45-.48,.45Z" fill="#002346"></path>
    <path d="M132,480.42c-.21,0-.41-.14-.47-.36-7.57-27.08,10.77-42.77,14.52-45.64,1.12-.86,2.43-1.88,3.7-2.97,33.3-28.66,14.04-60.75,13.84-61.07-.14-.23-.07-.53,.16-.67,.23-.14,.53-.07,.67,.16,.2,.33,19.91,33.1-14.03,62.32-1.28,1.1-2.61,2.14-3.74,3-3.67,2.8-21.58,18.13-14.17,44.61,.07,.26-.08,.53-.34,.6-.04,.01-.09,.02-.13,.02Z" fill="#002346"></path>
    <path d="M128.54,480.77c-.16,0-.32-.08-.41-.23-11.78-18.98-3-43.16-.02-50.12,.75-1.75,1.28-3.22,1.66-4.61,8.27-29.8-16.87-47.88-17.13-48.05-.22-.15-.27-.46-.12-.68,.15-.22,.46-.27,.68-.12,.26,.18,25.96,18.64,17.5,49.11-.4,1.43-.94,2.94-1.71,4.73-2.93,6.85-11.58,30.65-.04,49.23,.14,.23,.07,.53-.16,.67-.08,.05-.17,.07-.26,.07Z" fill="#002346"></path>
    <path d="M116.15,480.47s-.01,0-.02,0c-.27-.01-.48-.24-.47-.51,1.28-31.65-17.29-44.24-17.47-44.36-.22-.15-.29-.45-.14-.67,.15-.22,.45-.29,.67-.14,.19,.13,19.21,12.99,17.91,45.21-.01,.26-.23,.47-.49,.47Z" fill="#002346"></path>
  </g>
</svg>
