<svg id="b25cc074-a977-4dce-9caa-719237540be2" data-name="Layer 1" xmlns="http://www.w3.org/2000/svg" width="865.76" height="682.89" viewBox="0 0 865.76 682.89"><rect x="368.17" y="623.49" width="18.61" height="11.42" fill="#f9b499"/><rect x="414.98" y="623.49" width="18.61" height="11.42" fill="#f9b499"/><path d="M364.48,627.1l-9.32-116.52L351,402h99.54L447,484.94,435.32,627.1H411.09s-2-90.53-.77-114.52a60.41,60.41,0,0,0-.24-9.22l-9.34-92.06-7.91,71.1A367.77,367.77,0,0,0,390.58,523V627.1Z" fill="#274546"/><rect x="350.97" y="401.99" width="99.26" height="6.62" opacity="0.2"/><path d="M359.09,192.4s-7.84-10-4.67-18.87a13.86,13.86,0,0,0,4.5-2.6c.26-.22.58-.3.73,0,.54,1.18,7.11,1.29,9.1,2.19,0,0-4.73,17.43-5,19.85A18.37,18.37,0,0,0,359.09,192.4Z" fill="#274546"/><path d="M314.59,318.23l26.79,22,15.23-16.36L351,402h99.54l-8.18-78.4,14.1,12.13,2.26-58.09S437,257,416.71,253.94H383.82s-22.7,4.23-32.57,17.76Z" fill="#"/><path d="M319.09,321.93s-13.24,15.76-8.73,23.37c0,0,3.67,12.41,50.76,46.25l9.87-9.87L333.2,341.36l3.79-4.74Z" fill="#f9b499"/><path d="M361.12,391.55l9.87-9.87,19.4,8.15a6.48,6.48,0,0,1,2.43,10.08l-5.26,6.36a6.49,6.49,0,0,1-9.16.82Z" fill="#f9b499"/><path d="M347.3,658.6s-1.13-20.3,19.18-22v-4.79s10.71-1.41,14.1,3.1c0,0,6.06-3.38,7.75,0l4.37,23.69Z" fill="#"/><path d="M454.59,658.6s1.13-20.3-19.17-22v-4.79s-10.72-1.41-14.1,3.1c0,0-6.07-3.38-7.76,0l-4.37,23.69Z" fill="#"/><path d="M383.82,642.67s-6.21-5.78-17.34-6.07v-4.79S379.59,633.22,383.82,642.67Z" opacity="0.2"/><path d="M417.79,642.67s6.2-5.78,17.34-6.07v-4.79S422,633.22,417.79,642.67Z" opacity="0.2"/><path d="M552.91,396.6l-102.4-3.14-3.26-136.17q24.11,1.05,50,1.12,27.84,0,53.62-1.12Q551.9,327,552.91,396.6Z" fill="#ccc"/><g opacity="0.2"><path d="M499.92,285.82c-19.77,0-38.93-1.32-39.25-1.34l.07-1c.54,0,54.44,3.75,74.55-1.33l.24,1C527.29,285.2,513.46,285.82,499.92,285.82Z"/></g><g opacity="0.2"><path d="M501.94,299.27c-19.76,0-38.93-1.32-39.25-1.34l.07-1c.54,0,54.44,3.75,74.55-1.33l.24.95C529.31,298.65,515.48,299.27,501.94,299.27Z"/></g><g opacity="0.2"><path d="M462.78,315.88l-.11-1c.41,0,41-4.69,72.77-2.92l-.06,1C503.7,311.19,463.19,315.84,462.78,315.88Z"/></g><g opacity="0.2"><rect x="497.57" y="292.06" width="0.99" height="72.92" transform="translate(161.97 821.5) rotate(-89.12)"/></g><g opacity="0.2"><polygon points="464.09 341.91 464.06 340.92 532.93 338.68 532.96 339.67 464.09 341.91"/></g><g opacity="0.2"><polygon points="466.1 354.25 466.08 353.26 531.37 352.36 531.38 353.35 466.1 354.25"/></g><g opacity="0.2"><rect x="467.2" y="365.46" width="65.75" height="0.99" transform="translate(-8.44 11.82) rotate(-1.34)"/></g><g opacity="0.2"><polygon points="467.22 378.7 467.21 377.71 532.94 377.04 532.95 378.03 467.22 378.7"/></g><path d="M487,258.35l-.63,6.42a4.42,4.42,0,0,0,4.6,4.85l14.79-.66a4.43,4.43,0,0,0,4.16-5.17l-.94-5.44Z" fill="#f9b499"/><path d="M492.2,251.73,487,258.35l31.4-.09-5.77-5.82a8.28,8.28,0,0,0-4.45-2.32l-8-1.4A8.25,8.25,0,0,0,492.2,251.73Z" fill="#f9b499"/><path d="M382.66,234.13h32.89a0,0,0,0,1,0,0v24.56a8.33,8.33,0,0,1-8.33,8.33H391a8.33,8.33,0,0,1-8.33-8.33V234.13a0,0,0,0,1,0,0Z" fill="#f9b499"/><path d="M518.78,306.55a14.32,14.32,0,0,1-10.06-3.5,12.42,12.42,0,0,1-3.79-10c1.41-23.27,21.5-24.78,21.7-24.79l.06,1c-.79,0-19.42,1.49-20.77,23.87a11.58,11.58,0,0,0,3.46,9.23c2.46,2.26,5.8,3.36,10,3.23a21.76,21.76,0,0,0,15.38-7.18c3.53-3.89,5.15-7.85,4.82-11.78-.38-4.37-3.24-8.66-8.49-12.76l.61-.78c5.48,4.27,8.46,8.8,8.86,13.46.36,4.21-1.34,8.42-5.07,12.52a22.75,22.75,0,0,1-16.09,7.51Z" fill="#274546"/><polygon points="518.85 297.51 517.87 297.38 521.23 273.13 532.49 295.87 531.6 296.31 521.77 276.44 518.85 297.51" fill="#274546"/><path d="M510.84,291.42l-.22-1c.63-.14,15.37-3.52,20.75-3.56v1C526.11,287.93,511,291.39,510.84,291.42Z" fill="#274546"/><path d="M661,313.27s-12.71-.92-11.54,27.58,4.08,43.7,4.08,43.7-.39,6.3-5.28,5.07-14.11-7.38-18.65-2.79-3,12.08,3.21,20.7,19.26,28,20.43,29.75,1.6,5-1.86,4.64-26.88-8.25-30,3.09,18.28,32.48,20.58,34.84,2.4,3.83,1.47,5.26-8.53-2-15.29-4-14.94-3.11-16.17,3.58,8.16,26.28,43.42,46.85l17,8.48,16.05-10.24c33-24.07,40.42-44.43,38.51-51s-10-4.6-16.37-2-13.77,6.8-14.84,5.49-1.09-2.83,1-5.4,21.2-25.67,17-36.71-26.74-.74-30.15-.08-3.29-2.6-2.33-4.43,12-22.47,17.36-31.64,6.31-16.66,1.14-20.87-13.54,2.92-18.28,4.66-5.76-4.54-5.76-4.54,1.38-15.39-.3-43.88-14.52-26.23-14.52-26.23" fill="#ebebeb"/><path d="M661.94,338.8v.59c0,.4.08,1,.15,1.75.09,1.61.25,3.84.45,6.73.38,5.85.9,14.31,1.47,24.77,1.16,20.86,2.52,49.83,3.92,81.76s2.68,60.86,3.72,81.84c.53,10.44,1,18.9,1.25,24.77.15,2.91.26,5.17.34,6.74a10.84,10.84,0,0,0,.08,1.77,5.81,5.81,0,0,1,0,.59v-.59c0-.39-.08-1-.14-1.75-.1-1.6-.26-3.84-.45-6.74-.4-5.84-.9-14.3-1.48-24.76-1.16-20.86-2.52-49.84-3.92-81.84s-2.67-60.85-3.72-81.84c-.53-10.43-1-18.88-1.27-24.77-.12-2.91-.25-5.17-.32-6.74a10.64,10.64,0,0,0-.08-1.75A4.69,4.69,0,0,1,661.94,338.8Z" fill="#e0e0e0"/><path d="M642.09,396a5.19,5.19,0,0,1,1.06.86c.66.6,1.61,1.5,2.7,2.59,2.23,2.23,5.25,5.37,8.5,8.9l8.3,9.07,2.52,2.74a6.28,6.28,0,0,1,.88,1.05,5.92,5.92,0,0,1-1.06-.87c-.66-.59-1.6-1.48-2.68-2.6-2.21-2.25-5.18-5.42-8.44-8.95l-8.36-9L643,397A5.9,5.9,0,0,1,642.09,396Z" fill="#e0e0e0"/><path d="M667.74,420.61c-.13-.13,6.06-6.62,13.84-14.45s14.19-14.17,14.32-14-6.07,6.61-13.85,14.44S667.86,420.73,667.74,420.61Z" fill="#e0e0e0"/><path d="M667.66,469.76a6.09,6.09,0,0,1,1.18-.76l3.32-1.86c2.8-1.6,6.66-3.75,10.84-6.32s7.88-5,10.54-6.79l3.21-2.1a6.36,6.36,0,0,1,1.2-.72,10.79,10.79,0,0,1-1.06.93c-.7.56-1.73,1.33-3,2.28-2.6,1.89-6.27,4.39-10.46,7s-8,4.7-11,6.16c-1.43.74-2.6,1.32-3.42,1.69A5,5,0,0,1,667.66,469.76Z" fill="#e0e0e0"/><path d="M639.56,452.55a5.21,5.21,0,0,1,1.19.57c.72.38,1.78,1,3.06,1.7,2.58,1.46,6.13,3.53,10,5.84s7.4,4.44,9.92,6c1.26.78,2.28,1.42,3,1.89a5.38,5.38,0,0,1,1,.75,4.15,4.15,0,0,1-1.17-.54c-.74-.39-1.78-1-3.08-1.7-2.57-1.48-6.12-3.53-10-5.86s-7.39-4.45-9.91-6c-1.27-.79-2.28-1.43-3-1.9A4.23,4.23,0,0,1,639.56,452.55Z" fill="#e0e0e0"/><path d="M634,495.94a6.25,6.25,0,0,1,1.49.73l3.95,2.16c3.32,1.86,7.88,4.48,12.84,7.4s9.54,5.6,12.83,7.56l3.86,2.36a8.44,8.44,0,0,1,1.36.94,8.19,8.19,0,0,1-1.49-.72l-4-2.18c-3.32-1.86-7.9-4.48-12.84-7.4s-9.55-5.6-12.84-7.56l-3.85-2.35A8.44,8.44,0,0,1,634,495.94Z" fill="#e0e0e0"/><path d="M669.61,516.34a11.23,11.23,0,0,1,1.48-1l4.12-2.51c3.49-2.12,8.28-5.07,13.48-8.45s9.86-6.58,13.19-8.91l4-2.76a9.37,9.37,0,0,1,1.51-1,11.67,11.67,0,0,1-1.37,1.16c-.88.7-2.2,1.7-3.83,2.92-3.21,2.42-7.88,5.68-13.11,9.08s-10.07,6.29-13.6,8.31c-1.78,1-3.2,1.8-4.23,2.33A10.35,10.35,0,0,1,669.61,516.34Z" fill="#e0e0e0"/><polygon points="695.11 545.61 648.19 545.61 663.5 661.53 679.79 661.53 695.11 545.61" fill="#e0e0e0"/><path d="M650.61,559.87s0,.17.26.42a2.85,2.85,0,0,0,1.14.8,5.61,5.61,0,0,0,4.94-.61c1.91-1,3.55-3.09,6.1-4a13.26,13.26,0,0,1,8.62.16,37,37,0,0,1,8,3.9,59.3,59.3,0,0,0,6.53,3.5,17.54,17.54,0,0,0,4.82,1.39,7.71,7.71,0,0,0,1.36.1h.48a24,24,0,0,1-6.42-1.93A63.25,63.25,0,0,1,680,560a35.5,35.5,0,0,0-8.18-4,13.72,13.72,0,0,0-9.1-.1,11.92,11.92,0,0,0-3.43,2.12,25.51,25.51,0,0,1-2.68,2.07,5.59,5.59,0,0,1-4.58.8A5,5,0,0,1,650.61,559.87Z" fill="#f5f5f5"/><path d="M652.33,581.22s.37-.48,1.11-1.25a10.65,10.65,0,0,1,3.75-2.38,16.64,16.64,0,0,1,6.52-1,66.27,66.27,0,0,1,8.17,1.11,28.58,28.58,0,0,0,8.36.35,23.27,23.27,0,0,0,6.58-1.88,20.12,20.12,0,0,0,3.94-2.35,5.19,5.19,0,0,0,1.25-1.13,41.41,41.41,0,0,1-5.42,3,24.57,24.57,0,0,1-6.42,1.6,29,29,0,0,1-8.15-.4,62.2,62.2,0,0,0-8.26-1.06A16.45,16.45,0,0,0,657,577a9.88,9.88,0,0,0-3.77,2.68,6.72,6.72,0,0,0-.71,1A1.34,1.34,0,0,0,652.33,581.22Z" fill="#f5f5f5"/><path d="M689.8,592.64a4,4,0,0,0-1.3-.67,13.6,13.6,0,0,0-3.88-.84,24.72,24.72,0,0,0-5.89.34c-2.18.35-4.53,1-7,1.48a28.74,28.74,0,0,1-7,.78,15.33,15.33,0,0,1-5.55-1.18,13.24,13.24,0,0,1-4.21-3.13,3.77,3.77,0,0,0,.79,1.22A10.21,10.21,0,0,0,659,593a14.84,14.84,0,0,0,5.75,1.41,27.49,27.49,0,0,0,7.17-.74c2.49-.53,4.81-1.15,7-1.6a26.25,26.25,0,0,1,5.73-.48A20.93,20.93,0,0,1,689.8,592.64Z" fill="#f5f5f5"/><path d="M658.34,612.59a7.45,7.45,0,0,1,4.54-.47,22.78,22.78,0,0,1,4.81,1.78,18.33,18.33,0,0,0,17.38-.89,16.86,16.86,0,0,0,2.81-2.15,4.91,4.91,0,0,0,.82-1,39.36,39.36,0,0,1-3.88,2.68,19.42,19.42,0,0,1-10.9,2.31c-4.45-.26-7.85-2.9-10.93-3.21a7,7,0,0,0-3.59.24C658.64,612.2,658.31,612.56,658.34,612.59Z" fill="#f5f5f5"/><path d="M661,634.83a9,9,0,0,0,3.92-.77c2.36-.79,5.28-2.6,8.7-3.95a13.64,13.64,0,0,1,5-1,9,9,0,0,1,4,.91,9.41,9.41,0,0,1,2.91,2.49,2.37,2.37,0,0,0-.45-1,6.36,6.36,0,0,0-2.2-2,9.22,9.22,0,0,0-4.25-1.14,14,14,0,0,0-5.27,1c-3.54,1.41-6.42,3.21-8.61,4.16S661,634.72,661,634.83Z" fill="#f5f5f5"/><path d="M663.25,645.18a10.58,10.58,0,0,0,3,1,56.48,56.48,0,0,0,7.43,1.25,55.52,55.52,0,0,0,7.52.21,11.15,11.15,0,0,0,3.1-.37c0-.23-4.81,0-10.56-.61S663.3,645,663.25,645.18Z" fill="#f5f5f5"/><rect x="120.98" y="32.15" width="96.39" height="141.51" transform="translate(-19.21 41.91) rotate(-13.37)" fill="#e0e0e0"/><rect x="113.68" y="28.09" width="96.39" height="141.51" transform="translate(-18.47 40.11) rotate(-13.37)" fill="#ebebeb"/><rect x="105.83" y="26.9" width="96.39" height="138.8" transform="translate(-18.09 38.23) rotate(-13.37)" fill="#f5f5f5"/><path d="M262.35,172.2c0,.23-24.37,6.21-54.56,13.38s-54.7,12.84-54.75,12.59,24.38-6.21,54.56-13.39S262.3,172,262.35,172.2Z" fill="#e0e0e0"/><path d="M186.53,63.45c0,.15-16.61,4.24-37.17,9.12s-37.28,8.75-37.31,8.57,16.61-4.23,37.18-9.12S186.49,63.24,186.53,63.45Z" fill="#e0e0e0"/><path d="M188.86,73.19c0,.16-16.61,4.25-37.17,9.13s-37.28,8.75-37.31,8.57,16.6-4.24,37.18-9.12S188.82,73,188.86,73.19Z" fill="#e0e0e0"/><path d="M191.23,83c0,.15-16.6,4.24-37.17,9.13s-37.27,8.75-37.31,8.57,16.6-4.24,37.18-9.13S191.15,82.84,191.23,83Z" fill="#e0e0e0"/><path d="M193.52,92.79c0,.15-16.61,4.24-37.18,9.13s-37.27,8.72-37.27,8.55,16.6-4.25,37.18-9.13S193.48,92.63,193.52,92.79Z" fill="#e0e0e0"/><path d="M195.85,102.58c0,.16-16.61,4.25-37.18,9.13s-37.26,8.75-37.29,8.57,16.6-4.24,37.17-9.12S195.8,102.43,195.85,102.58Z" fill="#e0e0e0"/><path d="M198.18,112.38c0,.15-16.61,4.24-37.18,9.13s-37.26,8.75-37.29,8.57,16.59-4.24,37.17-9.13S198.13,112.23,198.18,112.38Z" fill="#e0e0e0"/><path d="M200.51,122.19c0,.15-16.61,4.23-37.18,9.12s-37.26,8.74-37.29,8.57,16.59-4.24,37.17-9.13S200.46,122,200.51,122.19Z" fill="#e0e0e0"/><g id="a2770005-ccef-4a72-a70d-0449fd59d543" data-name="freesvgillustration--Floor--inject-4"><path d="M797.14,661.11c0,.23-163.1.42-364.26.42s-364.26-.19-364.26-.42,163.08-.41,364.26-.41S797.14,660.87,797.14,661.11Z" fill="#3f3d56"/></g><path d="M276.2,551.58c1.61-5.39,4.9-10.59,10.05-12.84s11.55-1,17,1,10.86,4.67,16.69,5,12.39-2.41,14.13-8c1.61-5.25-1.52-10.82-5.47-14.62a34.5,34.5,0,0,0-56.53,13.56" fill="#274546"/><g opacity="0.3"><path d="M276.2,551.58c1.61-5.39,4.9-10.59,10.05-12.84s11.55-1,17,1,10.86,4.67,16.69,5,12.39-2.41,14.13-8c1.61-5.25-1.52-10.82-5.47-14.62a34.5,34.5,0,0,0-56.53,13.56"/></g><path d="M230.08,575c-8.55-8.1-8.12-22.24-3.86-33.21s13.57-19.42,23.95-25a75.86,75.86,0,0,1,66.1-2.13,31.35,31.35,0,0,0-25.37,14.89c-4.67,7.78-5.71,17.22-9.63,25.42a40,40,0,0,1-51.19,20" fill="#274546"/><path d="M226,526.21c-9.46-11.15-10.72-29.08-9.33-43.65s4.82-29.22,2.47-43.66c-1.36-8.57-4.68-16.74-5.81-25.34s.47-18.31,7.13-23.86c7.65-6.42,19.7-4.81,27.68,1.12s12.56,15.39,15.93,24.76C271.47,436.19,274.2,459,268.1,480s-20.37,39.83-41.31,46.17" fill="#274546"/><path d="M221.43,617.8a9.11,9.11,0,0,1,0-1.28v-3.69c.13-3.21.44-7.83,1.16-13.51a174.52,174.52,0,0,1,3.63-19.8,91.34,91.34,0,0,1,9-22.93A94.94,94.94,0,0,1,250,536.85,93.86,93.86,0,0,1,265.5,524c2.36-1.6,4.64-2.87,6.61-4s3.77-1.92,5.21-2.61l3.41-1.43a6.42,6.42,0,0,1,1.2-.45,10.26,10.26,0,0,1-1.14.59l-3.34,1.61c-1.41.74-3.21,1.6-5.13,2.73s-4.19,2.45-6.52,4.1a96.73,96.73,0,0,0-29.86,32.53c-8.7,15.21-11.09,31.21-12.84,42.41-.78,5.67-1.18,10.27-1.39,13.47-.1,1.6-.16,2.77-.21,3.67A6.91,6.91,0,0,1,221.43,617.8Z" fill="#274546"/><path d="M139.87,482.18c-17.51,10.56-17.44,20.17-14.44,29.23s13.65,15.38,22.56,12c5-1.92,8.68-6.29,11.79-10.68s6-9.1,10.4-12.26,10.69-4.37,15.07-1.24" fill="#274546"/><g opacity="0.3"><path d="M139.87,482.18c-17.51,10.56-17.44,20.17-14.44,29.23s13.65,15.38,22.56,12c5-1.92,8.68-6.29,11.79-10.68s6-9.1,10.4-12.26,10.69-4.37,15.07-1.24"/></g><path d="M126.76,493.75c4.57-6.33,15.88-8.16,23-5s12.37,9.4,17,15.61,9.23,12.84,15.71,17.19,15.54,5.92,22,1.6a18.85,18.85,0,0,0,7.46-12.93,42.84,42.84,0,0,0-1-15.26c-1.61-7.34-4.06-15-9.94-19.66-6.54-5.2-15.63-5.44-24-5.17-9.63.31-19.26,1-28.31,4.35s-18.18,10.49-22,19.26" fill="#274546"/><path d="M206.88,603.86a1.28,1.28,0,0,1,0-.39v-1.12c0-1.06,0-2.52-.14-4.35-.12-3.83-.28-9.27-.47-16s-.48-14.78-1-23.67-1.15-18.7-2.5-28.89a93.77,93.77,0,0,0-2.91-14.65,77.34,77.34,0,0,0-12.26-23.52,71,71,0,0,0-7.39-8.11,53.91,53.91,0,0,0-13.1-8.92c-.85-.4-1.6-.78-2.26-1.06l-1.72-.66-1-.41-.35-.18.38.1,1.08.35L165,473c.69.24,1.44.61,2.31,1a52.3,52.3,0,0,1,13.35,8.8,69,69,0,0,1,7.53,8.13A74.9,74.9,0,0,1,195,501.59a77,77,0,0,1,5.46,12.94,91.93,91.93,0,0,1,2.93,14.79c1.37,10.22,2,20,2.46,28.89s.67,16.94.82,23.7.17,12.21.21,16v5.44A1.83,1.83,0,0,1,206.88,603.86Z" fill="#274546"/><path d="M213.19,611.71a49.16,49.16,0,0,1-1.91-7.53,78.53,78.53,0,0,1-.81-21.1,140.81,140.81,0,0,1,6.66-30.57c3.6-11.23,8.48-23.3,12.63-36.23a164.85,164.85,0,0,0,5-19.18,171,171,0,0,0,2.49-18.29,265.44,265.44,0,0,0,.56-31.28c-.3-8.92-.78-16.13-1.07-21.1l-.34-5.73v-1.49a2.18,2.18,0,0,1,0-.51,2,2,0,0,1,0,.49c0,.39.08.87.15,1.5q.17,2,.48,5.72c.38,5,.94,12.18,1.31,21.11a258.2,258.2,0,0,1-.38,31.35,169.17,169.17,0,0,1-2.46,18.37,163.63,163.63,0,0,1-5,19.26c-4.19,13-9.08,25-12.69,36.22A142.79,142.79,0,0,0,211,583.21a82,82,0,0,0,.55,21c.43,2.46.83,4.35,1.17,5.62.15.61.27,1.09.35,1.44A2.2,2.2,0,0,1,213.19,611.71Z" fill="#274546"/><path d="M221.43,617.8a9.11,9.11,0,0,1,0-1.28v-3.69c.13-3.21.44-7.83,1.16-13.51a174.52,174.52,0,0,1,3.63-19.8,91.34,91.34,0,0,1,9-22.93A94.94,94.94,0,0,1,250,536.85,93.86,93.86,0,0,1,265.5,524c2.36-1.6,4.64-2.87,6.61-4s3.77-1.92,5.21-2.61l3.41-1.43a6.42,6.42,0,0,1,1.2-.45,10.26,10.26,0,0,1-1.14.59l-3.34,1.61c-1.41.74-3.21,1.6-5.13,2.73s-4.19,2.45-6.52,4.1a96.73,96.73,0,0,0-29.86,32.53c-8.7,15.21-11.09,31.21-12.84,42.41-.78,5.67-1.18,10.27-1.39,13.47-.1,1.6-.16,2.77-.21,3.67A6.91,6.91,0,0,1,221.43,617.8Z" fill="#274546"/><path d="M206.88,603.86a1.28,1.28,0,0,1,0-.39v-1.12c0-1.06,0-2.52-.14-4.35-.12-3.83-.28-9.27-.47-16s-.48-14.78-1-23.67-1.15-18.7-2.5-28.89a93.77,93.77,0,0,0-2.91-14.65,77.34,77.34,0,0,0-12.26-23.52,71,71,0,0,0-7.39-8.11,53.91,53.91,0,0,0-13.1-8.92c-.85-.4-1.6-.78-2.26-1.06l-1.72-.66-1-.41-.35-.18.38.1,1.08.35L165,473c.69.24,1.44.61,2.31,1a52.3,52.3,0,0,1,13.35,8.8,69,69,0,0,1,7.53,8.13A74.9,74.9,0,0,1,195,501.59a77,77,0,0,1,5.46,12.94,91.93,91.93,0,0,1,2.93,14.79c1.37,10.22,2,20,2.46,28.89s.67,16.94.82,23.7.17,12.21.21,16v5.44A1.83,1.83,0,0,1,206.88,603.86Z" fill="#274546"/><path d="M213.19,611.71a49.16,49.16,0,0,1-1.91-7.53,78.53,78.53,0,0,1-.81-21.1,140.81,140.81,0,0,1,6.66-30.57c3.6-11.23,8.48-23.3,12.63-36.23a164.85,164.85,0,0,0,5-19.18,171,171,0,0,0,2.49-18.29,265.44,265.44,0,0,0,.56-31.28c-.3-8.92-.78-16.13-1.07-21.1l-.34-5.73v-1.49a2.18,2.18,0,0,1,0-.51,2,2,0,0,1,0,.49c0,.39.08.87.15,1.5q.17,2,.48,5.72c.38,5,.94,12.18,1.31,21.11a258.2,258.2,0,0,1-.38,31.35,169.17,169.17,0,0,1-2.46,18.37,163.63,163.63,0,0,1-5,19.26c-4.19,13-9.08,25-12.69,36.22A142.79,142.79,0,0,0,211,583.21a82,82,0,0,0,.55,21c.43,2.46.83,4.35,1.17,5.62.15.61.27,1.09.35,1.44A2.2,2.2,0,0,1,213.19,611.71Z" fill="#274546"/><g opacity="0.2"><path d="M221.43,617.8a9.11,9.11,0,0,1,0-1.28v-3.69c.13-3.21.44-7.83,1.16-13.51a174.52,174.52,0,0,1,3.63-19.8,91.34,91.34,0,0,1,9-22.93A94.94,94.94,0,0,1,250,536.85,93.86,93.86,0,0,1,265.5,524c2.36-1.6,4.64-2.87,6.61-4s3.77-1.92,5.21-2.61l3.41-1.43a6.42,6.42,0,0,1,1.2-.45,10.26,10.26,0,0,1-1.14.59l-3.34,1.61c-1.41.74-3.21,1.6-5.13,2.73s-4.19,2.45-6.52,4.1a96.73,96.73,0,0,0-29.86,32.53c-8.7,15.21-11.09,31.21-12.84,42.41-.78,5.67-1.18,10.27-1.39,13.47-.1,1.6-.16,2.77-.21,3.67A6.91,6.91,0,0,1,221.43,617.8Z"/><path d="M206.88,603.86a1.28,1.28,0,0,1,0-.39v-1.12c0-1.06,0-2.52-.14-4.35-.12-3.83-.28-9.27-.47-16s-.48-14.78-1-23.67-1.15-18.7-2.5-28.89a93.77,93.77,0,0,0-2.91-14.65,77.34,77.34,0,0,0-12.26-23.52,71,71,0,0,0-7.39-8.11,53.91,53.91,0,0,0-13.1-8.92c-.85-.4-1.6-.78-2.26-1.06l-1.72-.66-1-.41-.35-.18.38.1,1.08.35L165,473c.69.24,1.44.61,2.31,1a52.3,52.3,0,0,1,13.35,8.8,69,69,0,0,1,7.53,8.13A74.9,74.9,0,0,1,195,501.59a77,77,0,0,1,5.46,12.94,91.93,91.93,0,0,1,2.93,14.79c1.37,10.22,2,20,2.46,28.89s.67,16.94.82,23.7.17,12.21.21,16v5.44A1.83,1.83,0,0,1,206.88,603.86Z"/><path d="M213.19,611.71a49.16,49.16,0,0,1-1.91-7.53,78.53,78.53,0,0,1-.81-21.1,140.81,140.81,0,0,1,6.66-30.57c3.6-11.23,8.48-23.3,12.63-36.23a164.85,164.85,0,0,0,5-19.18,171,171,0,0,0,2.49-18.29,265.44,265.44,0,0,0,.56-31.28c-.3-8.92-.78-16.13-1.07-21.1l-.34-5.73v-1.49a2.18,2.18,0,0,1,0-.51,2,2,0,0,1,0,.49c0,.39.08.87.15,1.5q.17,2,.48,5.72c.38,5,.94,12.18,1.31,21.11a258.2,258.2,0,0,1-.38,31.35,169.17,169.17,0,0,1-2.46,18.37,163.63,163.63,0,0,1-5,19.26c-4.19,13-9.08,25-12.69,36.22A142.79,142.79,0,0,0,211,583.21a82,82,0,0,0,.55,21c.43,2.46.83,4.35,1.17,5.62.15.61.27,1.09.35,1.44A2.2,2.2,0,0,1,213.19,611.71Z"/></g><polygon points="183.23 617.8 193.5 665.25 238.14 665.25 247.75 617.8 183.23 617.8" fill="#274546"/><polygon points="183.23 617.8 193.5 665.25 238.14 665.25 247.75 617.8 183.23 617.8" opacity="0.2"/><path d="M242.47,643a34.44,34.44,0,0,0-7.24-4.16,25.56,25.56,0,0,0-8.81-1.76,30.75,30.75,0,0,0-10.81,2c-3.74,1.27-7.24,2.74-10.64,3.54a25.25,25.25,0,0,1-9.21.28,18.94,18.94,0,0,1-5.91-1.86,9.58,9.58,0,0,1-1.42-.92c-.31-.22-.47-.35-.45-.38s.7.41,2,1a20.91,20.91,0,0,0,5.86,1.61,25.77,25.77,0,0,0,9-.44c3.29-.81,6.79-2.31,10.56-3.57a30.64,30.64,0,0,1,11.09-2,25.46,25.46,0,0,1,9,2,23.11,23.11,0,0,1,5.35,3.12,16.53,16.53,0,0,1,1.28,1.1C242.34,642.85,242.49,643,242.47,643Z" opacity="0.1"/><path d="M241.85,646.19a36.22,36.22,0,0,0-6.95-4.09,23.59,23.59,0,0,0-8.49-1.75A30.6,30.6,0,0,0,216,642.23c-3.63,1.22-7,2.61-10.26,3.49a26.5,26.5,0,0,1-8.86,1,15.27,15.27,0,0,1-5.79-1.6,11.18,11.18,0,0,1-1.38-.89c-.3-.22-.45-.35-.43-.37s.69.4,1.94,1a16.07,16.07,0,0,0,5.71,1.27,26.61,26.61,0,0,0,8.6-1.14c3.21-.88,6.55-2.31,10.23-3.53a30.34,30.34,0,0,1,10.71-1.86,23.46,23.46,0,0,1,8.69,2,22.59,22.59,0,0,1,5.13,3.11,12.45,12.45,0,0,1,1.22,1.07A3.11,3.11,0,0,1,241.85,646.19Z" fill="#fff"/><path d="M243.27,639.88a38.48,38.48,0,0,0-7.43-4.38,27.26,27.26,0,0,0-9-2.16,29,29,0,0,0-11.24,1.95,103.61,103.61,0,0,1-11,3.62,28.7,28.7,0,0,1-9.52,0A21.35,21.35,0,0,1,189,637a10.68,10.68,0,0,1-1.48-.91c-.32-.24-.48-.37-.47-.4s.73.43,2.07,1a24.2,24.2,0,0,0,6.07,1.61,28.84,28.84,0,0,0,9.27-.18,113.62,113.62,0,0,0,10.92-3.64,28.88,28.88,0,0,1,11.45-2,26.9,26.9,0,0,1,9.2,2.38,25.78,25.78,0,0,1,5.49,3.31,14.16,14.16,0,0,1,1.31,1.13C243.16,639.71,243.29,639.85,243.27,639.88Z" fill="#fff"/><polygon points="256.56 619.6 174.4 619.6 172.52 603.79 256.56 603.79 256.56 619.6" fill="#274546"/><path d="M382.66,246.94v-6.65s14.67,8.55,29.83,1.78C412.49,242.07,403.72,251.54,382.66,246.94Z" fill="#f4a48e"/><ellipse cx="361.87" cy="203.18" rx="8.67" ry="11.52" transform="translate(-50.47 156.18) rotate(-22.81)" fill="#f9b499"/><ellipse cx="438.44" cy="203.34" rx="11.52" ry="8.67" transform="translate(112.56 560.24) rotate(-72.48)" fill="#f9b499"/><path d="M359.09,192.4s-7.84-10-4.67-18.87a13.86,13.86,0,0,0,4.5-2.6c.26-.22.58-.3.73,0,.54,1.18,7.11,1.29,9.1,2.19,0,0-4.73,17.43-5,19.85A18.37,18.37,0,0,0,359.09,192.4Z" opacity="0.2"/><ellipse cx="399.11" cy="199.92" rx="35.74" ry="45.46" fill="#f9b499"/><path d="M434.85,196.06s-1.76-20.25-11.91-30c0,0-13.55,8-20.07,7.91a3,3,0,0,1-2.89-3.24,9.83,9.83,0,0,1,3.72-7s-38.4,21.85-44.05,7.86c0,0-9.67,6.33-10.52-.24,0,0,0-4.66,6.14-8.47,0,0-13.75,1.27-12.69-5.07,0,0-.43-6.35,14.38-7,0,0-17.13-5.08-9.94-12.69,0,0,1.68-2.57,11.32,1.47a3.73,3.73,0,0,0,5-2.18l0-.1s-17-3.21-7.68-14.21c0,0,3.49-1.69,3.65,3,0,0,2.91,5.08,11.79,5.93,0,0,15,.21,26.44-2.54,0,0,18-3.77,31.88,8.89a29.6,29.6,0,0,1,6.51,9,12.23,12.23,0,0,0,3.71,4.64,14.94,14.94,0,0,1,3.87,3.69c3.7,5.49,9.76,18.78-1.64,36.67C441.9,192.36,437,192,434.85,196.06Z" fill="#274546"/></svg>