<?xml version="1.0" encoding="UTF-8"?>
<svg xmlns="http://www.w3.org/2000/svg" id="a" width="865.76" height="682.89" viewBox="0 0 865.76 682.89">
  <g>
    <path d="M306.18,329h253c14.13,0,25.58,11.45,25.58,25.58h0v5.2c0,14.13-11.45,25.58-25.58,25.58h-253v-56.36h0Z" fill="#fff"></path>
    <path d="M559.18,385.86h-253.5v-57.36h253.5c14.38,0,26.08,11.7,26.08,26.08v5.2c0,14.38-11.7,26.08-26.08,26.08Zm-252.5-1h252.5c13.83,0,25.08-11.25,25.08-25.08v-5.2c0-13.83-11.25-25.08-25.08-25.08h-252.5v55.36Z" fill="#002346"></path>
  </g>
  <g>
    <rect x="306.18" y="342.68" width="187.57" height="1" fill="#002346"></rect>
    <rect x="306.18" y="357.68" width="187.57" height="1" fill="#002346"></rect>
    <rect x="306.18" y="370.68" width="187.57" height="1" fill="#002346"></rect>
  </g>
  <g>
    <polygon points="552.91 183.65 552.91 192.98 557.16 195.21 558.24 191.93 556.24 185.93 552.91 183.65" fill="#f2b3c1"></polygon>
    <path d="M557.45,195.93l-5.05-2.65v-10.58l4.26,2.91,2.11,6.32-1.32,4Zm-4.05-3.26l3.47,1.82,.84-2.56-1.89-5.68-2.42-1.65v8.08Z" fill="#002346"></path>
  </g>
  <g>
    <ellipse cx="341.24" cy="200.93" rx="3" ry="5" fill="#f2b3c1"></ellipse>
    <path d="M341.24,206.43c-1.96,0-3.5-2.42-3.5-5.5s1.54-5.5,3.5-5.5,3.5,2.42,3.5,5.5-1.54,5.5-3.5,5.5Zm0-10c-1.36,0-2.5,2.06-2.5,4.5s1.14,4.5,2.5,4.5,2.5-2.06,2.5-4.5-1.14-4.5-2.5-4.5Z" fill="#002346"></path>
  </g>
  <g>
    <path d="M294.8,315.06h273.2c23,0,41.65,18.65,41.65,41.65h0c0,23-18.65,41.65-41.65,41.66H294.8v-14.82h263.73c13.86,0,25.1-11.24,25.11-25.1h0c0-13.87-11.24-25.11-25.11-25.11H294.8v-18.28Z" fill="#184343"></path>
    <path d="M568,398.87H294.3v-15.82h264.23c13.56,0,24.6-11.04,24.61-24.6,0-13.57-11.04-24.61-24.61-24.61H294.3v-19.28h273.7c23.24,0,42.15,18.91,42.15,42.15s-18.91,42.15-42.15,42.16Zm-272.7-1h272.7c22.69,0,41.15-18.47,41.15-41.16s-18.46-41.15-41.15-41.15H295.3v17.28h263.23c14.12,0,25.61,11.49,25.61,25.61,0,14.12-11.49,25.6-25.61,25.6H295.3v13.82Z" fill="#002346"></path>
  </g>
  <g>
    <path d="M614.94,467.73h-253c-14.13,0-25.58-11.45-25.58-25.58h0v-5.2c0-14.13,11.45-25.58,25.58-25.58h253v56.36h0Z" fill="#fff"></path>
    <path d="M615.44,468.23h-253.5c-14.38,0-26.08-11.7-26.08-26.08v-5.2c0-14.38,11.7-26.08,26.08-26.08h253.5v57.36Zm-253.5-56.36c-13.83,0-25.08,11.25-25.08,25.08v5.2c0,13.83,11.25,25.08,25.08,25.08h252.5v-55.36h-252.5Z" fill="#002346"></path>
  </g>
  <g>
    <path d="M626.31,481.67H353.12c-23,0-41.64-18.65-41.65-41.65h0c0-23,18.66-41.65,41.66-41.65h273.18v14.84H362.58c-13.86,0-25.09,11.22-25.11,25.08h0c0,13.86,11.24,25.1,25.1,25.11h263.74v18.27Z" fill="#ebebeb"></path>
    <path d="M626.81,482.17H353.12c-23.24,0-42.14-18.91-42.15-42.15,0-23.24,18.92-42.15,42.16-42.15h273.68v15.84H362.58c-13.55,0-24.59,11.03-24.61,24.58,0,13.56,11.04,24.6,24.6,24.61h264.24v19.27Zm-273.68-83.3c-22.69,0-41.15,18.46-41.16,41.15,0,22.68,18.47,41.14,41.15,41.15h272.69v-17.27H362.57c-14.12,0-25.6-11.49-25.6-25.61,.02-14.11,11.51-25.58,25.61-25.58h263.23v-13.84H353.13Z" fill="#002346"></path>
  </g>
  <g>
    <path d="M605.32,556.67H317.87c-15.59,0-28.22-12.63-28.22-28.22v-5.74c0-15.59,12.63-28.22,28.22-28.22h287.45v62.18h0Z" fill="#fff"></path>
    <path d="M605.82,557.17H317.87c-15.84,0-28.72-12.88-28.72-28.72v-5.74c0-15.84,12.88-28.72,28.72-28.72h287.95v63.18Zm-287.95-62.18c-15.28,0-27.72,12.44-27.72,27.72v5.74c0,15.29,12.44,27.72,27.72,27.72h286.95v-61.18H317.87Z" fill="#002346"></path>
  </g>
  <g>
    <path d="M617.24,572.05H306.38c-23,0-41.65-20.58-41.65-46h0c0-25.38,18.65-45.95,41.65-45.95h310.86v16.34H315.85c-13.87,0-25.11,12.4-25.11,27.7h0c0,15.3,11.24,27.71,25.11,27.71h301.39v20.2Z" fill="ffff"></path>
    <path d="M617.74,572.55H306.38c-23.24,0-42.15-20.86-42.15-46.5s18.91-46.45,42.15-46.45h311.36v17.34H315.85c-13.57,0-24.61,12.2-24.61,27.2s11.04,27.21,24.61,27.21h301.89v21.2Zm-311.36-91.95c-22.69,0-41.15,20.39-41.15,45.45s18.46,45.5,41.15,45.5h310.36v-19.2H315.85c-14.12,0-25.61-12.66-25.61-28.21s11.49-28.2,25.61-28.2h300.89v-15.34H306.38Z" fill="#002346"></path>
  </g>
  <g>
    <path d="M327.32,587.43h283.51c15.59,0,28.22,12.63,28.22,28.22v5.74c0,15.59-12.63,28.22-28.22,28.22H327.32v-62.18h0Z" fill="#fff"></path>
    <path d="M610.83,650.11H326.82v-63.18h284.01c15.84,0,28.72,12.88,28.72,28.72v5.74c0,15.84-12.88,28.72-28.72,28.72Zm-283.01-1h283.01c15.28,0,27.72-12.43,27.72-27.72v-5.74c0-15.29-12.44-27.72-27.72-27.72H327.82v61.18Z" fill="#002346"></path>
  </g>
  <g>
    <path d="M311.47,572.05h310.85c23,0,41.66,20.57,41.66,45.95h0c0,25.39-18.65,46-41.66,46H311.47v-16.38h301.4c13.86,0,25.11-12.41,25.11-27.7h0c0-15.3-11.25-27.71-25.11-27.71H311.47v-20.16Z" fill="#184343"></path>
    <path d="M622.32,664.5H310.97v-17.38h301.9c13.57,0,24.61-12.2,24.61-27.2s-11.04-27.21-24.61-27.21H310.97v-21.16h311.35c23.25,0,42.16,20.84,42.16,46.45s-18.91,46.5-42.16,46.5Zm-310.35-1h310.35c22.7,0,41.16-20.41,41.16-45.5s-18.46-45.45-41.16-45.45H311.97v19.16h300.9c14.12,0,25.61,12.66,25.61,28.21s-11.49,28.2-25.61,28.2H311.97v15.38Z" fill="#002346"></path>
  </g>
  <g>
    <path d="M517.53,159.38c-28.69-37-60.28-36.62-67.73-36-1.35,.12-2.7,.19-4.05,.23-50.08,1.31-69.12,43.05-69.12,43.05v34.14h140.9v-41.42Z" fill="#184343"></path>
    <path d="M518.03,201.3h-141.9l.05-34.85c.19-.42,19.75-42.04,69.56-43.34,1.47-.04,2.79-.12,4.02-.23,8.84-.74,39.87-.3,68.17,36.19l.1,.14v42.09Zm-140.9-1h139.9v-40.75c-27.96-35.96-58.49-36.4-67.19-35.67-1.25,.11-2.58,.19-4.08,.23-48.02,1.26-67.57,40.44-68.64,42.66v33.53Z" fill="#002346"></path>
  </g>
  <g>
    <path d="M353.69,166.29l1.45-4.45s64.91,3.51,91.52,25.54c0,0,25.17-27.09,88.39-31.79l4.7,6.25-93.39,32.77-92.67-28.32Z" fill="#fff"></path>
    <path d="M446.37,195.14l-.16-.05-93.16-28.47,1.73-5.3,.38,.02c.65,.04,64.81,3.74,91.46,25.36,3.19-3.14,29.5-27.24,88.39-31.61l.27-.02,5.27,7.01-94.19,33.05Zm-92.05-29.17l92.03,28.12,92.59-32.49-4.12-5.49c-62.06,4.69-87.54,31.34-87.79,31.61l-.32,.34-.36-.3c-25.12-20.8-85.45-25.06-90.85-25.4l-1.17,3.6Z" fill="#002346"></path>
  </g>
  <g>
    <path d="M312.67,273.01s.48-21.68,101.5-23.49h65.6s75.36,4.7,88.53,6.57l-119.39,62.44-136.24-45.52Z" fill="ffff"></path>
    <path d="M448.95,319.07l-136.79-45.7v-.37c.03-.91,1.65-22.18,102-23.98h65.61c.78,.05,75.56,4.72,88.6,6.58l1.54,.22-120.95,63.26Zm-135.71-46.4l135.63,45.31,117.79-61.6c-16.52-1.96-86.19-6.32-86.92-6.36h-65.57c-91.82,1.65-100.19,19.87-100.93,22.65Z" fill="#002346"></path>
  </g>
  <g>
    <path d="M416.17,350.04l-11.17-3c-5.15,2.71-35.59,6.34-35.59,6.34-10.48,1.08-4.88,9.93-4.88,9.93,0,0,4.88,14.64,22,11.2l39.19-7.76-9.55-16.71Z" fill="#184343"></path>
    <path d="M381.56,375.53c-12.83,0-17.15-11.08-17.49-12-.3-.5-2.51-4.29-1.05-7.29,.92-1.88,3.04-3.01,6.33-3.35,.3-.04,30.4-3.65,35.41-6.29l.17-.09,.19,.05,11.37,3.05,10,17.49-39.87,7.89c-1.82,.37-3.51,.53-5.07,.53Zm23.49-27.96c-5.63,2.71-34.35,6.16-35.58,6.3-2.93,.3-4.79,1.24-5.54,2.79-1.29,2.66,1,6.34,1.02,6.37l.05,.11c.19,.58,4.95,14.17,21.43,10.87l38.51-7.62-9.1-15.93-10.78-2.9Z" fill="#002346"></path>
  </g>
  <g>
    <path d="M485.75,366.55l40.72,14.86s9.15,2.39,14.81-3.92l6.32-7.84s2.83-4.53-4.14-7.6c0,0-12.2-3.51-23.74-5.69,0,0-8.49-1.74-13.29-6.32,0,0-2.19-5.32-11.76-3.75l-8.92,20.26Z" fill="#184343"></path>
    <path d="M530.58,382.37c-2.37,0-4.08-.43-4.24-.47l-41.27-15.06,9.24-21,.27-.04c9.22-1.52,11.87,3.15,12.26,3.95,4.65,4.38,12.89,6.11,12.98,6.12,11.42,2.16,23.66,5.67,23.78,5.7,2.69,1.18,4.3,2.68,4.86,4.49,.64,2.09-.39,3.78-.43,3.85l-6.35,7.89c-3.36,3.75-7.84,4.56-11.08,4.56Zm-44.16-16.1l40.22,14.68s8.88,2.22,14.27-3.78l6.3-7.82h0s.8-1.37,.29-2.99c-.47-1.51-1.9-2.8-4.24-3.83-.06-.01-12.25-3.51-23.63-5.66-.36-.07-8.69-1.82-13.54-6.45l-.12-.17c-.08-.2-2.15-4.83-10.95-3.49l-8.59,19.52Z" fill="#002346"></path>
  </g>
  <g>
    <path d="M390.59,127.05s-3.9-16.57,4.81-28.23c1.09-1.41,2.09-2.88,3-4.4,3.7-6.43,5.55-13.51,7.65-20.59,.73-2.45,1.32-4.93,1.78-7.45,1.94-10.67,9.04-41.86,26.31-44.79,0,0,21.59-10.26,36.8,8.85,0,0,14.15-2.31,19.6,28.94,.37,2.14,.53,4.31,.54,6.48,.03,6.17,.59,20.71,4.98,27.57,0,0,8.85,18.62,7.41,32.71-1.07-.5-2.26-.68-3.43-.54,0,0,.72-13.55-4.16-21.68,0,0,3.07,14.81,2,20.41,0,0-53.47-13.55-96.1,.18l-.36-15.71h0c-1.18,1.88-1.76,4.07-1.67,6.29l.4,10s-5.53,0-9.56,1.97Z" fill="#002346"></path>
    <path d="M390.24,127.78l-.14-.61c-.04-.17-3.85-16.93,4.9-28.64,1.07-1.39,2.07-2.86,2.97-4.36,3.25-5.65,5.02-11.7,6.9-18.1l.7-2.38c.72-2.44,1.32-4.93,1.77-7.4,2.29-12.6,9.46-42.19,26.65-45.18,1.34-.6,22.31-9.58,37.17,8.8,2.16-.17,14.77,.12,19.88,29.38,.36,2.05,.54,4.2,.55,6.56,.03,5.95,.56,20.52,4.9,27.3,.12,.24,8.92,18.96,7.49,33.03l-.07,.7-.64-.29c-.99-.46-2.08-.63-3.16-.5l-.59,.07,.03-.59c0-.12,.49-10.14-2.46-17.96,.84,4.8,2.03,12.91,1.29,16.81l-.1,.52-.51-.13c-.53-.13-53.82-13.35-95.82,.17l-.64,.21-.33-14.39c-.53,1.35-.78,2.8-.72,4.27l.42,10.52h-.52s0,0,0,0c-.07,0-5.47,.02-9.34,1.92l-.56,.28Zm57.33-108.39c-7.47,0-13.12,2.6-13.23,2.65l-.13,.04c-17.09,2.9-24.14,34.7-25.9,44.38-.46,2.51-1.06,5.03-1.79,7.5l-.7,2.37c-1.81,6.18-3.68,12.57-7,18.33-.92,1.54-1.94,3.04-3.04,4.46-7.54,10.1-5.42,24.14-4.84,27.21,3.3-1.44,7.27-1.7,8.68-1.74l-.38-9.49c-.1-2.33,.51-4.6,1.75-6.57l.89-1.41,.38,16.71c39.91-12.57,89.54-1.46,95.21-.12,.78-5.79-2.05-19.55-2.08-19.7l-.6-2.89,1.52,2.53c4.39,7.32,4.33,18.7,4.25,21.4,.84-.03,1.68,.09,2.47,.37,1.07-13.71-7.34-31.6-7.42-31.78-4.45-6.94-5-21.74-5.03-27.78-.01-2.3-.19-4.39-.53-6.39-5.29-30.31-18.89-28.56-19.03-28.53l-.29,.04-.18-.23c-7.19-9.03-15.89-11.36-22.97-11.36Z" fill="#002346"></path>
  </g>
  <g>
    <path d="M432.09,107.54h32.15v20.81c0,8.06-6.53,14.59-14.59,14.59h-3c-8.06,0-14.59-6.53-14.59-14.59v-20.81h.03Z" fill="#f2b3c1"></path>
    <path d="M449.65,143.44h-3c-8.32,0-15.09-6.77-15.09-15.09v-21.31h33.18v21.31c0,8.32-6.77,15.09-15.09,15.09Zm-17.09-35.4v20.31c0,7.77,6.32,14.09,14.09,14.09h3c7.77,0,14.09-6.32,14.09-14.09v-20.31h-31.18Z" fill="#002346"></path>
  </g>
  <g>
    <rect x="416.74" y="35.43" width="60" height="81" rx="30" ry="30" fill="#f2b3c1"></rect>
    <path d="M446.74,116.93c-16.82,0-30.5-13.68-30.5-30.5v-21c0-16.82,13.68-30.5,30.5-30.5s30.5,13.68,30.5,30.5v21c0,16.82-13.68,30.5-30.5,30.5Zm0-81c-16.27,0-29.5,13.23-29.5,29.5v21c0,16.27,13.23,29.5,29.5,29.5s29.5-13.23,29.5-29.5v-21c0-16.27-13.23-29.5-29.5-29.5Z" fill="#002346"></path>
  </g>
  <g>
    <path d="M345.39,170.07l3.6-3.78h4.7s53-1.67,93,21.09c0,0,47.57-28.26,97.78-25.33l2.89,4.24-83.12,28.32-117-19.15-1.85-5.39Z" fill="#fff"></path>
    <path d="M464.28,195.12l-.12-.02-117.3-19.2-2.05-5.96,3.96-4.15h4.91c.51-.02,53.36-1.41,93,21.01,3.82-2.2,49.9-28.06,97.81-25.25h.25s3.4,5,3.4,5l-83.86,28.57Zm-116.67-20.11l116.58,19.08,82.38-28.07-2.38-3.49c-49.4-2.78-96.78,24.99-97.25,25.27l-.25,.15-.25-.14c-39.41-22.43-92.21-21.04-92.74-21.02h-4.5l-3.24,3.4,1.65,4.82Z" fill="#002346"></path>
  </g>
  <g>
    <path d="M341.11,169.93l3,90.44s65.92,2,97.06,17.56h15.91s45.71-19.88,97.06-21.53l-2-90.11s-72.73,4.11-97.29,23.26h-14.09s-25.53-17.56-99.65-19.62Z" fill="#fff"></path>
    <path d="M457.18,278.43h-16.13l-.11-.05c-30.68-15.33-96.19-17.49-96.85-17.51h-.47s-3.03-91.45-3.03-91.45h.53c70.72,1.98,97.67,18.28,99.78,19.63h13.77c24.53-18.94,96.71-23.22,97.43-23.26l.52-.03,2.02,91.12-.49,.02c-50.66,1.63-96.42,21.29-96.88,21.49l-.1,.04Zm-15.9-1h15.69c2.39-1.02,47.11-19.81,96.65-21.51l-1.98-89.09c-6.58,.42-73.42,5.13-96.49,23.12l-.14,.11h-14.42l-.13-.09c-.25-.17-26.19-17.42-98.85-19.52l2.97,89.44c5.99,.22,67.15,2.85,96.69,17.54Z" fill="#002346"></path>
  </g>
  <g>
    <path d="M468.03,212.85s44.26-15,73.52-14.27v-21s-49.31,1.26-74.78,15.17l1.26,20.1Z" fill="#ebebeb"></path>
    <path d="M467.57,213.53l-1.32-21.07,.28-.15c25.28-13.81,74.51-15.22,75.01-15.23h.51s0,22.01,0,22.01h-.51c-.68-.03-1.37-.04-2.07-.04-28.82,0-70.84,14.12-71.27,14.27l-.62,.21Zm-.28-20.5l1.2,19.13c5.45-1.79,45.42-14.61,72.56-14.1v-19.97c-5.3,.19-50,2.14-73.76,14.94Z" fill="#002346"></path>
  </g>
  <polygon points="457.06 277.93 440.76 277.93 440.76 189.55 454.85 189.55 457.06 277.93" fill="#a7a9ac"></polygon>
  <g>
    <polygon points="457.06 277.93 440.76 277.93 440.76 189.55 454.85 189.55 457.06 277.93" fill="#ebebeb"></polygon>
    <path d="M457.57,278.43h-17.31v-89.38h15.08l2.24,89.38Zm-16.31-1h15.29l-2.19-87.38h-13.1v87.38Z" fill="#002346"></path>
  </g>
  <g>
    <path d="M410.05,282.04l45.52,33.6c7.94,5.95,22.21,14.2,32.12,19.72,8.05,4.46,11.14,14.48,7,22.7-.2,.39-.4,.77-.61,1.14-3.89,6.89-12.01,10.21-19.61,8.01l-104.52-29.9c-11.49-3-22.45-7.72-32.53-14-1.82-1.14-3.41-2.61-4.69-4.34l-12.64-17.06c-9.14-13.44-10.1-23-7.1-29.69,2.69-5.79,8.41-9.57,14.79-9.77,15.1-.66,55.34-.24,82.27,19.59Z" fill="ffff"></path>
    <path d="M479.24,368.39c-1.63,0-3.28-.23-4.92-.7l-104.52-29.9c-11.54-3.01-22.53-7.74-32.66-14.06-1.88-1.18-3.51-2.68-4.83-4.47l-12.64-17.06c-8.28-12.17-10.68-22.33-7.15-30.19,2.79-6,8.62-9.86,15.23-10.07,15.85-.68,55.63-.16,82.58,19.69h0l45.52,33.6c7.84,5.88,21.77,13.95,32.07,19.69,8.31,4.61,11.48,14.87,7.2,23.36-.2,.4-.41,.79-.62,1.16-3.19,5.64-9.06,8.94-15.27,8.94Zm-143.56-105.61c-3.03,0-5.69,.07-7.89,.17-6.23,.2-11.73,3.83-14.36,9.48-3.37,7.52-1,17.35,7.06,29.2l12.63,17.04c1.25,1.68,2.78,3.1,4.55,4.21,10.04,6.26,20.94,10.95,32.39,13.94l104.53,29.9c7.42,2.14,15.24-1.06,19.04-7.78,.21-.37,.4-.74,.6-1.12,4.03-8.01,1.05-17.69-6.8-22.03-10.33-5.75-24.3-13.85-32.18-19.76l-45.52-33.6c-22.97-16.91-55.42-19.66-74.07-19.66Z" fill="#002346"></path>
  </g>
  <g>
    <path d="M414.75,343.81l73-59.24s30-27.82,71.53-28.18c0,0,30-3.25,32.16,10.83,0,0,6.14,18.55-22,48.84,0,0-21.39,12.58-29.62,15.83l-114.24,36.49s-14.45-8.31-10.83-24.57Z" fill="ffff"></path>
    <path d="M425.52,368.92l-.19-.11c-.15-.08-14.73-8.68-11.07-25.11l.04-.17,.14-.11,73-59.24c.28-.26,30.59-27.93,71.84-28.29,1.19-.13,30.45-3.13,32.66,11.25,.24,.69,5.89,19.1-22.13,49.26l-.11,.09c-.21,.13-21.52,12.64-29.69,15.86l-114.48,36.57Zm-10.32-24.83c-3.15,14.62,8.8,22.71,10.44,23.75l114.02-36.42c7.85-3.1,28.16-14.99,29.46-15.75,27.56-29.7,21.9-48.11,21.84-48.29-2.08-13.53-31.34-10.52-31.63-10.49-40.9,.36-70.95,27.77-71.24,28.05l-72.89,59.15Z" fill="#002346"></path>
  </g>
  <g>
    <path d="M552.98,183.53c-.07-.02-.13,.07-.07,.12,1.11,1.07,6.21,6.35-.2,6.81,0,0-19.24-.98-26.11-2.29-1.1-.21-2.14,.53-2.33,1.63-.33,1.96-1.03,6.14,.97,8.14,0,0-1.74,4.36,1.28,6.57,.4,.29,.61,.77,.51,1.26-.34,1.75-.66,5.86,3.2,8.17,4.86,6.57,12.39,8,20.38,9.15,2.42,.35,4.89-.47,6.52-2.3,2.83-3.18,6.25-9.75,4.39-22.2,0,.03,.33-12.82-8.56-15.06Z" fill="#f2b3c1"></path>
    <path d="M551.74,223.66c-.39,0-.79-.03-1.18-.08-8.42-1.22-15.79-2.75-20.66-9.27-4.06-2.5-3.7-6.87-3.35-8.65,.06-.29-.06-.58-.32-.76-2.86-2.08-1.92-5.77-1.56-6.85-1.9-2.24-1.23-6.32-.9-8.31,.11-.69,.48-1.27,1.03-1.66,.55-.39,1.22-.53,1.88-.4,6.75,1.29,25.85,2.27,26.04,2.28,.98-.07,2.29-.33,2.58-1.13,.43-1.18-1.22-3.33-2.75-4.82l-.27-.27,.17-.42c.13-.23,.39-.35,.64-.28h0c8.97,2.27,8.95,14.59,8.93,15.52,1.84,12.38-1.44,19.1-4.52,22.56-1.46,1.63-3.55,2.54-5.78,2.54Zm-25.52-35.03c-.3,0-.59,.09-.84,.27-.33,.23-.55,.58-.62,.98-.32,1.93-.98,5.89,.83,7.7l.23,.23-.12,.31s-1.56,4.03,1.11,5.98c.57,.41,.84,1.09,.71,1.76-.31,1.58-.64,5.48,2.97,7.65l.14,.13c4.64,6.27,11.82,7.76,20.05,8.95,2.32,.34,4.59-.46,6.07-2.13,2.94-3.3,6.07-9.76,4.27-21.79l-.07-.5h.07c-.04-2-.57-10.75-6.57-13.58,1.13,1.33,2.3,3.17,1.78,4.59-.38,1.04-1.56,1.65-3.51,1.79-.25,0-19.42-1-26.24-2.3-.09-.02-.19-.03-.28-.03Z" fill="#002346"></path>
  </g>
  <g>
    <ellipse cx="461.74" cy="52.43" rx="14.5" ry="25.5" transform="translate(63.17 291.38) rotate(-37.42)" fill="#002346"></ellipse>
    <path d="M471.41,75.01c-6.64,0-15.13-5.03-21.58-13.46-8.71-11.39-10.46-24.74-3.89-29.76,3.22-2.47,7.91-2.6,13.18-.36,5.18,2.19,10.34,6.42,14.53,11.9,4.19,5.48,6.92,11.56,7.68,17.14,.78,5.67-.57,10.16-3.8,12.63-1.7,1.3-3.8,1.92-6.13,1.92Zm-19.29-44.17c-2.16,0-4.05,.58-5.57,1.74-6.13,4.69-4.3,17.41,4.07,28.36,8.38,10.95,20.18,16.04,26.31,11.35,2.93-2.24,4.14-6.39,3.41-11.7-.74-5.41-3.4-11.32-7.49-16.67h0c-4.09-5.34-9.1-9.46-14.13-11.58-2.37-1.01-4.61-1.51-6.61-1.51Z" fill="#002346"></path>
  </g>
  <g>
    <ellipse cx="431.03" cy="47.74" rx="18.92" ry="14.5" transform="translate(174.17 397.15) rotate(-60)" fill="#002346"></ellipse>
    <path d="M427.45,66.17c-2.19,0-4.27-.54-6.13-1.61-7.16-4.13-8.63-15.04-3.28-24.32,5.35-9.27,15.54-13.46,22.7-9.32,7.16,4.14,8.63,15.05,3.28,24.32-2.58,4.47-6.35,7.91-10.61,9.68-2.02,.84-4.03,1.25-5.96,1.25Zm7.16-35.85c-5.7,0-11.94,3.9-15.71,10.42-5.08,8.8-3.77,19.09,2.91,22.95,3.22,1.86,7.2,1.96,11.21,.3,4.06-1.68,7.65-4.97,10.13-9.25h0c5.08-8.8,3.77-19.09-2.91-22.95-1.73-1-3.64-1.47-5.63-1.47Z" fill="#002346"></path>
  </g>
  <g>
    <path d="M423.84,199.4c-.08,0-.15-.02-.22-.05-22.53-11.35-70.69-11.35-71.16-11.39h0c-.28,0-.5-.22-.5-.5,0-.28,.22-.5,.5-.5,.46,0,48.87,.04,71.62,11.49,.25,.12,.35,.42,.22,.67-.09,.17-.26,.28-.45,.28Z" fill="#002346"></path>
    <path d="M423.16,220.55c-.08,0-.15-.02-.22-.05-22.53-11.35-70.7-11.36-71.16-11.39h0c-.28,0-.5-.22-.5-.5,0-.28,.22-.5,.5-.5h.01c1.08,0,49,.11,71.6,11.49,.25,.12,.35,.42,.22,.67-.09,.17-.26,.28-.45,.28Z" fill="#002346"></path>
    <path d="M424.16,210.55c-.08,0-.15-.02-.22-.05-22.53-11.35-70.69-11.39-71.16-11.39h0c-.28,0-.5-.22-.5-.5,0-.28,.22-.5,.5-.5,.46,0,48.87,.04,71.62,11.49,.25,.12,.35,.42,.22,.67-.09,.17-.26,.28-.45,.28Z" fill="#002346"></path>
  </g>
  <g>
    <path d="M341.92,194.72c.1-.15-.06-.33-.21-.24-1.85,1.03-7.76,5.39-8.83,19.53-.33,3.92,.07,7.86,1.18,11.63,1.65,5.54,5.26,11.84,12.9,8.74l11.64-4.45c1.6-.61,3-1.66,3.99-3.06,.88-1.25,1.55-2.66,1.96-4.16,2.25-2.66,3.49-6.01,3.52-9.49,0,0,2.17-1.69,1.9-6.26,0,0,1.4-1.66,1.39-5.8,0-1.81-1.69-3.17-3.47-2.81-7.11,1.42-23,5.62-27.49,3.4-.8-.39-1.17-1.35-.93-2.2,.25-.9,.9-2.41,2.47-4.82Z" fill="#f2b3c1"></path>
    <path d="M343.15,235.7c-1.16,0-2.24-.24-3.25-.73-2.78-1.33-4.91-4.43-6.33-9.19-1.13-3.85-1.53-7.82-1.2-11.81,1.09-14.4,7.23-18.89,9.09-19.93,.26-.15,.59-.1,.8,.12,.21,.23,.24,.57,.07,.83h0c-1.59,2.45-2.19,3.9-2.41,4.68-.18,.64,.11,1.34,.67,1.62,3.54,1.75,15.06-.79,22.69-2.48,1.7-.37,3.23-.71,4.48-.96,1-.2,2.03,.06,2.82,.7,.79,.64,1.24,1.59,1.24,2.6,.02,3.58-1.01,5.41-1.38,5.95,.18,3.9-1.36,5.79-1.91,6.33-.08,3.47-1.34,6.83-3.56,9.5-.42,1.51-1.1,2.92-2,4.21-1.03,1.46-2.49,2.58-4.22,3.24l-11.64,4.45c-1.4,.57-2.73,.85-3.98,.85Zm-2.5-39.89c-2.39,1.94-6.42,6.85-7.28,18.24-.32,3.87,.07,7.72,1.16,11.45,.92,3.08,2.67,7.07,5.8,8.57,1.84,.88,4,.83,6.43-.15l11.65-4.46c1.55-.59,2.84-1.59,3.76-2.88,.86-1.22,1.49-2.56,1.88-4l.1-.19c2.17-2.56,3.37-5.82,3.4-9.17v-.24s.19-.15,.19-.15c.08-.06,1.96-1.62,1.71-5.84v-.2s.12-.15,.12-.15c.01-.01,1.29-1.61,1.27-5.47,0-.71-.32-1.38-.88-1.83-.56-.46-1.29-.64-1.99-.5-1.25,.25-2.78,.59-4.47,.96-8.23,1.82-19.49,4.3-23.35,2.4-.99-.49-1.5-1.69-1.19-2.79,.27-.96,.83-2.17,1.69-3.61Zm.84-1.35h0Z" fill="#002346"></path>
  </g>
  <path d="M347.78,211.55c-.24,0-.45-.17-.49-.41-.05-.27,.13-.53,.4-.58l22.18-4.09c.27-.05,.53,.13,.58,.4,.05,.27-.13,.53-.4,.58l-22.18,4.09s-.06,0-.09,0Z" fill="#002346"></path>
  <path d="M348.24,217.43c-.24,0-.45-.17-.49-.41-.05-.27,.13-.53,.4-.58l19.81-3.71c.27-.05,.53,.13,.58,.4,.05,.27-.13,.53-.4,.58l-19.81,3.71s-.06,0-.09,0Z" fill="#002346"></path>
  <path d="M349.24,226.43c-.23,0-.44-.16-.49-.4-.06-.27,.12-.54,.39-.59l15.29-3.22c.27-.06,.54,.12,.59,.39,.06,.27-.12,.54-.39,.59l-15.29,3.22s-.07,.01-.1,.01Z" fill="#002346"></path>
  <path d="M549.24,200.43s-.03,0-.04,0l-24-2c-.28-.02-.48-.26-.46-.54s.26-.47,.54-.46l24,2c.28,.02,.48,.26,.46,.54-.02,.26-.24,.46-.5,.46Z" fill="#002346"></path>
  <path d="M549.24,209.11s-.04,0-.06,0c-22.15-2.69-22.32-2.84-22.47-2.97-.21-.18-.24-.49-.06-.71,.14-.17,.37-.22,.56-.14,.87,.2,13.64,1.79,22.08,2.82,.27,.03,.47,.28,.44,.56-.03,.25-.25,.44-.5,.44Z" fill="#002346"></path>
  <path d="M549.24,216.69s-.04,0-.06,0l-19-2.26c-.27-.03-.47-.28-.44-.55,.03-.28,.28-.48,.56-.44l19,2.26c.27,.03,.47,.28,.44,.55-.03,.25-.25,.44-.5,.44Z" fill="#002346"></path>
  <g>
    <rect x="369.74" y="425.05" width="245.19" height="1" fill="#002346"></rect>
    <rect x="369.74" y="440.05" width="245.19" height="1" fill="#002346"></rect>
    <rect x="369.74" y="453.05" width="245.19" height="1" fill="#002346"></rect>
  </g>
  <g>
    <rect x="360.74" y="511.08" width="245.19" height="1" fill="#002346"></rect>
    <rect x="360.74" y="526.08" width="245.19" height="1" fill="#002346"></rect>
    <rect x="360.74" y="539.08" width="245.19" height="1" fill="#002346"></rect>
  </g>
  <g>
    <rect x="326.74" y="604.02" width="245.19" height="1" fill="#002346"></rect>
    <rect x="326.74" y="619.02" width="245.19" height="1" fill="#002346"></rect>
    <rect x="326.74" y="632.02" width="245.19" height="1" fill="#002346"></rect>
  </g>
  <g>
    <g>
      <path d="M312.23,548.58s25.31-21.29,54.04-.57c0,0,18.04,14.03,6.01,26.06,0,0-12.7,8.69-31.41-6.01,0,0-19.88-16.23-28.65-19.48Z" fill="#7cd295"></path>
      <path d="M362.13,577.24c-5.56,0-13.02-1.86-21.66-8.65-.21-.17-19.91-16.21-28.47-19.37l-1.09-.4,.89-.75c.26-.22,26.05-21.38,54.87-.6,.42,.33,9.85,7.76,10.4,16.66,.24,3.82-1.21,7.33-4.31,10.43-.12,.09-4.06,2.69-10.64,2.69Zm-48.55-28.84c9.19,4.03,26.95,18.49,27.73,19.13,18.1,14.22,30.48,6.06,30.6,5.98,2.71-2.73,4.03-5.89,3.82-9.31-.51-8.29-9.77-15.59-9.87-15.67-24.93-17.97-47.53-3.59-52.28-.14Z" fill="#002346"></path>
    </g>
    <g>
      <path d="M284.25,538.18s27.9-38.95,11.19-77.03c0,0-18.71-37.42,3.34-48.78,0,0,27.4-11.36,42.1,28.73,0,0,19.71,58.52-56.63,97.08Z" fill="#7cd295"></path>
      <path d="M282.1,540.02l1.6-2.23c.28-.39,27.48-39.08,11.12-76.37-.18-.35-18.73-38.12,3.65-49.65,.44-.19,9.7-3.92,20.48,.81,9.63,4.22,17.22,13.74,22.55,28.29,.06,.17,4.94,15.05,.33,34.47-4.24,17.88-17.63,43.41-57.3,63.45l-2.45,1.24Zm25.55-128.46c-5.08,0-8.55,1.4-8.61,1.43-21.15,10.9-3.18,47.49-3,47.85,14.44,32.93-4.35,66.81-9.83,75.57,37.41-19.6,50.2-44.08,54.31-61.32,4.54-19.05-.23-33.64-.28-33.78-5.2-14.18-12.54-23.44-21.82-27.5-3.91-1.71-7.64-2.25-10.77-2.25Z" fill="#002346"></path>
    </g>
    <g>
      <path d="M213.33,425.93c-6.93,3.41-11.48,10.44-11.37,18.16,.14,9.65,6.05,22.93,34.01,30.41,0,0,32.78,8.12,36.44,32.46,0,0,9.04-30.16-6.38-58.96-5.91-11.03-15.74-19.57-27.72-23.2-7.52-2.28-16.5-3.06-24.99,1.12Z" fill="#7cd295"></path>
      <path d="M272.19,510.05l-.45-2.98c-3.54-23.6-35.61-31.83-35.93-31.91-28.27-7.57-34.38-21.06-34.52-31.06-.11-7.83,4.5-15.21,11.74-18.78h0c7.41-3.65,15.98-4.04,25.48-1.16,11.95,3.62,21.93,11.98,28.12,23.53,15.38,28.72,6.52,59.17,6.43,59.47l-.87,2.88Zm-45.67-86.43c-4.63,0-8.94,.98-12.89,2.93h0c-6.78,3.34-11.1,10.23-10.99,17.55,.14,9.53,6.07,22.43,33.51,29.77,.31,.08,30.56,7.82,36.32,30.02,1.75-8.19,5.34-32.45-7.03-55.56-6.01-11.23-15.72-19.35-27.32-22.87-4.05-1.23-7.92-1.84-11.6-1.84Z" fill="#002346"></path>
    </g>
    <g>
      <path d="M211.77,526.12c1.68,3.21,4.8,6.78,10.17,10.53,0,0,21.1,12.23,26.59,29.5,0,0-.53-28.17-16.57-49.55,0,0-1.39-2.63-4.25-4.69-9.45-6.8-21.35,3.89-15.94,14.2Z" fill="#7cd295"></path>
      <path d="M249.29,570.78l-1.4-4.42c-5.34-16.82-26.08-29-26.28-29.12-5-3.5-8.5-7.13-10.43-10.8h0c-3.02-5.75-.83-11.4,2.68-14.45,4.16-3.61,9.75-3.85,14.25-.61,2.95,2.13,4.4,4.81,4.45,4.92,15.93,21.22,16.64,49.57,16.64,49.85l.09,4.63Zm-27.89-60.33c-2.66,0-5.04,1.13-6.67,2.55-2.88,2.5-5.23,7.36-2.37,12.81h0c1.83,3.49,5.18,6.95,9.96,10.3,.76,.44,18.13,10.65,25.22,25.73-.86-8.7-4.11-28.8-16.12-44.82-.07-.11-1.42-2.61-4.11-4.55-2-1.44-4.03-2.01-5.92-2.01Z" fill="#002346"></path>
    </g>
    <g>
      <polygon points="237.31 592.79 240.86 662.62 300.12 662.62 304.13 593.45 237.31 592.79" fill="#fff"></polygon>
      <path d="M300.12,663.29h-59.26c-.36,0-.66-.28-.67-.64l-3.55-69.83c0-.19,.06-.37,.19-.5,.13-.13,.29-.21,.49-.21l66.82,.66c.18,0,.36,.08,.49,.21,.13,.13,.19,.32,.18,.5l-4.01,69.16c-.02,.36-.32,.64-.67,.64Zm-58.62-1.35h57.98l3.93-67.82-65.4-.65,3.48,68.47Z" fill="#002346"></path>
    </g>
    <path d="M283.42,593.13s-.03,0-.05,0c-.37-.03-.65-.35-.62-.72,.02-.28,2.31-27.84,21.27-40.68,11.23-7.6,25.95-8.62,43.75-3.02,.35,.11,.55,.49,.44,.85s-.49,.55-.85,.44c-17.39-5.47-31.71-4.51-42.58,2.84-18.42,12.47-20.67,39.4-20.69,39.67-.03,.35-.32,.62-.67,.62Z" fill="#002346"></path>
    <path d="M273.13,592.66c-.29,0-.56-.2-.65-.49-10.5-37.54,14.93-59.3,20.13-63.28,1.55-1.19,3.37-2.6,5.13-4.11,46.17-39.73,19.46-84.22,19.19-84.66-.2-.32-.1-.73,.22-.93,.32-.2,.73-.1,.93,.22,.28,.45,27.61,45.89-19.45,86.4-1.78,1.53-3.62,2.96-5.19,4.16-5.08,3.89-29.92,25.14-19.65,61.84,.1,.36-.11,.73-.47,.83-.06,.02-.12,.02-.18,.02Z" fill="#002346"></path>
    <path d="M268.32,593.15c-.23,0-.45-.11-.57-.32-16.33-26.32-4.15-59.84-.03-69.49,1.04-2.43,1.77-4.46,2.31-6.39,11.47-41.31-23.39-66.37-23.74-66.62-.3-.21-.38-.63-.16-.94,.21-.3,.63-.38,.94-.16,.36,.25,36,25.84,24.27,68.09-.55,1.99-1.3,4.07-2.37,6.56-4.06,9.5-16.05,42.49-.06,68.25,.2,.32,.1,.73-.22,.93-.11,.07-.23,.1-.35,.1Z" fill="#002346"></path>
    <path d="M251.15,592.74s-.02,0-.03,0c-.37-.01-.66-.33-.65-.7,1.77-43.88-23.96-61.33-24.22-61.5-.31-.2-.4-.62-.19-.93,.21-.31,.62-.4,.93-.19,.27,.17,26.63,18,24.83,62.69-.01,.36-.31,.65-.67,.65Z" fill="#002346"></path>
  </g>
</svg>
